<svg width="396" height="306" viewBox="0 0 396 306" fill="none" xmlns="http://www.w3.org/2000/svg">
<mask id="mask0_140_72" style="mask-type:alpha" maskUnits="userSpaceOnUse" x="-1" y="0" width="397" height="396">
<path fill-rule="evenodd" clip-rule="evenodd" d="M0.0193192 46.7961C-0.0396178 82.7941 0.279821 93.8031 1.4067 94.6022C2.55125 95.413 2.55715 95.7678 1.43381 96.2251C0.314004 96.6824 -0.00307688 129.812 -0.000719397 246.406L0.00281682 396L197.992 395.983L395.982 395.968V325.267C395.982 271.064 395.652 254.566 394.567 254.566C393.467 254.566 393.467 254.252 394.567 253.152C396.507 251.212 396.458 236.128 394.508 235.218C393.352 234.678 393.346 234.385 394.482 233.852C395.611 233.323 395.937 207.552 395.964 116.586L395.999 0L198.048 0.0141428L0.0959373 0.0282855L0.0193192 46.7961ZM129.586 5.23047C129.586 5.51686 129.056 6.07786 128.408 6.47857C127.759 6.87928 127.229 6.64475 127.229 5.95882C127.229 5.2729 127.759 4.71072 128.408 4.71072C129.056 4.71072 129.586 4.94408 129.586 5.23047ZM191.593 9.10559C190.395 10.3042 189.406 8.49981 190.389 6.90992C191.132 5.70779 191.41 5.70779 191.809 6.90521C192.082 7.72431 191.984 8.7143 191.593 9.10559ZM166.127 8.24642C166.127 8.89462 165.597 9.42498 164.949 9.42498C164.3 9.42498 163.77 8.89462 163.77 8.24642C163.77 7.5982 164.3 7.06785 164.949 7.06785C165.597 7.06785 166.127 7.5982 166.127 8.24642ZM170.842 8.24642C170.842 8.89462 170.312 9.42498 169.664 9.42498C169.015 9.42498 168.485 8.89462 168.485 8.24642C168.485 7.5982 169.015 7.06785 169.664 7.06785C170.312 7.06785 170.842 7.5982 170.842 8.24642ZM120.156 9.42498C120.156 10.0732 119.923 10.6035 119.637 10.6035C119.35 10.6035 118.789 10.0732 118.388 9.42498C117.988 8.77677 118.222 8.24642 118.908 8.24642C119.594 8.24642 120.156 8.77677 120.156 9.42498ZM335.866 10.6035C335.866 11.2518 335.632 11.7821 335.346 11.7821C335.06 11.7821 334.499 11.2518 334.098 10.6035C333.697 9.95533 333.932 9.42498 334.618 9.42498C335.304 9.42498 335.866 9.95533 335.866 10.6035ZM5.96488 13.2753C4.80029 14.4303 4.66591 14.2948 5.30479 12.6154C5.74799 11.4533 6.40691 10.7992 6.76996 11.1622C7.13301 11.524 6.77114 12.4751 5.96488 13.2753ZM226.243 12.3714C226.243 13.3437 225.713 14.1392 225.064 14.1392C224.416 14.1392 223.886 13.3437 223.886 12.3714C223.886 11.3991 224.416 10.6035 225.064 10.6035C225.713 10.6035 226.243 11.3991 226.243 12.3714ZM272.214 12.4409C272.214 13.451 271.683 13.9507 271.035 13.55C270.387 13.1492 269.856 12.3231 269.856 11.7126C269.856 11.1021 270.387 10.6035 271.035 10.6035C271.683 10.6035 272.214 11.4309 272.214 12.4409ZM308.755 11.7126C308.755 12.3231 308.224 13.1492 307.576 13.55C306.928 13.9507 306.397 13.451 306.397 12.4409C306.397 11.4309 306.928 10.6035 307.576 10.6035C308.224 10.6035 308.755 11.1021 308.755 11.7126ZM3.46124 15.2483C3.46124 15.8588 2.93081 16.6849 2.2825 17.0856C1.63419 17.4864 1.10376 16.9866 1.10376 15.9766C1.10376 14.9666 1.63419 14.1392 2.2825 14.1392C2.93081 14.1392 3.46124 14.6378 3.46124 15.2483ZM278.572 16.0061C279.012 17.1528 278.749 17.6926 277.887 17.405C276.125 16.8181 275.155 14.1392 276.705 14.1392C277.338 14.1392 278.177 14.9796 278.572 16.0061ZM303.007 16.811C301.843 17.966 301.708 17.8305 302.347 16.151C302.79 14.989 303.449 14.3349 303.812 14.6979C304.175 15.0597 303.814 16.0108 303.007 16.811ZM17.3362 16.7179C17.0792 17.4875 16.2258 18.243 15.4396 18.3974C14.6546 18.5506 14.5579 18.4056 15.2262 18.0756C15.8946 17.7445 16.1421 16.989 15.7755 16.3962C15.4089 15.8034 15.7154 15.3178 16.4557 15.3178C17.1971 15.3178 17.5932 15.9472 17.3362 16.7179ZM317.644 17.596C317.217 18.2878 316.347 18.8535 315.712 18.8535C315.075 18.8535 315.239 18.111 316.076 17.2047C317.767 15.3685 318.853 15.6395 317.644 17.596ZM45.8959 17.6749C45.8959 18.3231 45.3654 18.8535 44.7171 18.8535C44.0688 18.8535 43.5384 18.3231 43.5384 17.6749C43.5384 17.0267 44.0688 16.4964 44.7171 16.4964C45.3654 16.4964 45.8959 17.0267 45.8959 17.6749ZM284.465 17.2C286.038 17.8046 286.064 18.1381 284.645 19.5571C283.735 20.4669 282.423 21.2106 281.728 21.2106C280.335 21.2106 280.01 18.5235 281.251 17.2825C282.206 16.3267 282.188 16.3267 284.465 17.2ZM347.064 17.6749C347.465 18.3231 347.262 18.8535 346.614 18.8535C345.965 18.8535 345.107 18.3231 344.706 17.6749C344.306 17.0267 344.508 16.4964 345.157 16.4964C345.805 16.4964 346.663 17.0267 347.064 17.6749ZM9.35494 20.3019C9.35494 20.9926 8.60644 20.8783 7.58683 20.0321C6.61437 19.2247 5.81872 18.3809 5.81872 18.157C5.81872 17.933 6.61437 18.0544 7.58683 18.4269C8.55929 18.8005 9.35494 19.6443 9.35494 20.3019ZM309.393 18.9325C310.602 20.8889 309.516 21.1599 307.825 19.3237C306.988 18.4174 306.824 17.6749 307.461 17.6749C308.096 17.6749 308.966 18.2406 309.393 18.9325ZM166.127 20.0321C166.127 20.6803 165.597 21.2106 164.949 21.2106C164.3 21.2106 163.77 20.6803 163.77 20.0321C163.77 19.3838 164.3 18.8535 164.949 18.8535C165.597 18.8535 166.127 19.3838 166.127 20.0321ZM181.451 20.0321C181.451 20.6803 180.921 21.2106 180.272 21.2106C179.624 21.2106 179.093 20.6803 179.093 20.0321C179.093 19.3838 179.624 18.8535 180.272 18.8535C180.921 18.8535 181.451 19.3838 181.451 20.0321ZM263.963 20.6213C263.963 21.5937 263.432 22.3892 262.784 22.3892C262.136 22.3892 261.605 21.5937 261.605 20.6213C261.605 19.649 262.136 18.8535 262.784 18.8535C263.432 18.8535 263.963 19.649 263.963 20.6213ZM276.659 20.2536C276.402 21.0232 275.549 21.7787 274.762 21.9331C273.977 22.0863 273.881 21.9413 274.549 21.6113C275.217 21.2802 275.465 20.5247 275.098 19.9319C274.732 19.3391 275.038 18.8535 275.778 18.8535C276.52 18.8535 276.916 19.4828 276.659 20.2536ZM170.842 21.2106C170.842 21.8588 170.015 22.3892 169.005 22.3892C167.994 22.3892 167.495 21.8588 167.895 21.2106C168.296 20.5624 169.123 20.0321 169.733 20.0321C170.344 20.0321 170.842 20.5624 170.842 21.2106ZM215.634 22.3892C215.634 23.0374 215.401 23.5678 215.115 23.5678C214.828 23.5678 214.267 23.0374 213.866 22.3892C213.466 21.741 213.7 21.2106 214.386 21.2106C215.072 21.2106 215.634 21.741 215.634 22.3892ZM305.219 22.2855C305.219 23.4829 302.205 23.3038 300.93 22.0309C300.48 21.5795 301.26 21.2106 302.664 21.2106C304.069 21.2106 305.219 21.6938 305.219 22.2855ZM377.711 22.3892C378.112 23.0374 377.877 23.5678 377.191 23.5678C376.505 23.5678 375.943 23.0374 375.943 22.3892C375.943 21.741 376.176 21.2106 376.463 21.2106C376.749 21.2106 377.31 21.741 377.711 22.3892ZM69.4707 24.2266C69.4707 25.2366 68.9402 25.7363 68.2919 25.3356C67.6436 24.9349 67.1132 24.1087 67.1132 23.4982C67.1132 22.8877 67.6436 22.3892 68.2919 22.3892C68.9402 22.3892 69.4707 23.2165 69.4707 24.2266ZM371.228 23.5678C371.228 24.216 370.698 24.7463 370.049 24.7463C369.401 24.7463 368.871 24.216 368.871 23.5678C368.871 22.9195 369.401 22.3892 370.049 22.3892C370.698 22.3892 371.228 22.9195 371.228 23.5678ZM21.7317 24.7463C23.8204 25.6444 23.7202 25.7681 20.8477 25.8424C19.0654 25.8872 17.6061 25.3945 17.6061 24.7463C17.6061 23.3627 18.5126 23.3627 21.7317 24.7463ZM248.605 24.7004C249.559 25.3038 249.884 26.2231 249.327 26.7452C248.771 27.2661 248.072 27.008 247.774 26.17C247.353 24.9891 246.855 24.9596 245.551 26.0427C244.191 27.1706 244.011 27.0681 244.613 25.5018C245.46 23.2955 246.161 23.1553 248.605 24.7004ZM257.849 25.8518C258.143 26.7357 257.701 27.1777 256.817 26.8831C255.966 26.599 255.037 25.6703 254.754 24.8206C254.46 23.9366 254.902 23.4947 255.786 23.7893C256.636 24.0722 257.565 25.0009 257.849 25.8518ZM271.84 26.1464C271.464 27.0858 271.185 26.8064 271.128 25.4334C271.078 24.1912 271.356 23.4959 271.747 23.8871C272.138 24.2784 272.181 25.2955 271.84 26.1464ZM322.9 24.7463C324.33 25.6703 324.16 25.8919 322.016 25.9072C320.556 25.9166 319.363 25.3945 319.363 24.7463C319.363 23.2696 320.614 23.2696 322.9 24.7463ZM289.895 25.9249C289.895 26.5731 289.365 27.1034 288.716 27.1034C288.068 27.1034 287.538 26.5731 287.538 25.9249C287.538 25.2767 288.068 24.7463 288.716 24.7463C289.365 24.7463 289.895 25.2767 289.895 25.9249ZM207.383 27.1034C207.383 27.7517 207.15 28.282 206.863 28.282C206.577 28.282 206.016 27.7517 205.615 27.1034C205.214 26.4552 205.449 25.9249 206.135 25.9249C206.821 25.9249 207.383 26.4552 207.383 27.1034ZM240.388 27.1034C240.388 27.7517 239.857 28.282 239.209 28.282C238.561 28.282 238.03 27.7517 238.03 27.1034C238.03 26.4552 238.561 25.9249 239.209 25.9249C239.857 25.9249 240.388 26.4552 240.388 27.1034ZM73.41 28.665C73.8367 28.2384 74.1856 28.5083 74.1856 29.2638C74.1856 30.8407 73.8992 30.9078 71.3354 29.9237C70.3099 29.5301 69.4707 28.6698 69.4707 28.0121C69.4707 27.259 70.0577 27.3026 71.0525 28.1276C71.9224 28.8489 72.9833 29.0917 73.41 28.665ZM255.484 30.0805C255.121 30.4435 254.462 29.7894 254.019 28.6273C253.38 26.9479 253.514 26.8123 254.679 27.9673C255.485 28.7676 255.847 29.7187 255.484 30.0805ZM261.605 27.6232C261.605 27.9096 261.075 28.4706 260.427 28.8713C259.778 29.272 259.248 29.0375 259.248 28.3515C259.248 27.6656 259.778 27.1034 260.427 27.1034C261.075 27.1034 261.605 27.3368 261.605 27.6232ZM29.9829 29.4606C30.3837 30.1088 30.1491 30.6391 29.4631 30.6391C28.777 30.6391 28.2148 30.1088 28.2148 29.4606C28.2148 28.8124 28.4482 28.282 28.7346 28.282C29.021 28.282 29.5821 28.8124 29.9829 29.4606ZM273.393 29.4606C273.393 30.1088 272.83 30.6391 272.144 30.6391C271.458 30.6391 271.224 30.1088 271.625 29.4606C272.025 28.8124 272.586 28.282 272.873 28.282C273.159 28.282 273.393 28.8124 273.393 29.4606ZM331.151 29.4606C331.151 30.1088 330.589 30.6391 329.903 30.6391C329.217 30.6391 328.982 30.1088 329.383 29.4606C329.784 28.8124 330.345 28.282 330.631 28.282C330.918 28.282 331.151 28.8124 331.151 29.4606ZM186.166 32.9963C186.166 33.6445 185.635 34.1748 184.987 34.1748C184.339 34.1748 183.808 33.6445 183.808 32.9963C183.808 32.3481 184.339 31.8177 184.987 31.8177C185.635 31.8177 186.166 32.3481 186.166 32.9963ZM216.564 34.6451C215.729 35.5526 214.859 36.1183 214.632 35.9026C213.933 35.2379 215.705 32.9963 216.929 32.9963C217.565 32.9963 217.401 33.7388 216.564 34.6451ZM253.903 36.3552C253.239 37.0541 250.997 35.2827 250.997 34.0593C250.997 33.4229 251.739 33.5867 252.646 34.4235C253.553 35.2591 254.119 36.1289 253.903 36.3552ZM234.477 38.0052C234.486 38.4919 233.964 38.8891 233.316 38.8891C232.667 38.8891 232.145 37.6964 232.154 36.2373C232.17 34.0935 232.391 33.9238 233.316 35.3534C233.944 36.3257 234.466 37.5184 234.477 38.0052ZM263.373 35.3534C263.774 36.0016 263.54 36.532 262.854 36.532C262.168 36.532 261.605 36.0016 261.605 35.3534C261.605 34.7052 261.839 34.1748 262.125 34.1748C262.411 34.1748 262.973 34.7052 263.373 35.3534ZM15.2486 36.532C15.2486 37.1802 16.1327 37.7105 17.2136 37.7105C18.2933 37.7105 18.8638 38.024 18.4807 38.4071C17.4977 39.3912 12.8912 37.7801 12.8912 36.453C12.8912 35.8484 13.4216 35.3534 14.0699 35.3534C14.7182 35.3534 15.2486 35.8837 15.2486 36.532ZM69.4707 37.2473C69.4707 38.4082 68.8165 38.8903 67.7792 38.4919C66.848 38.1348 65.8602 38.4766 65.5832 39.2497C65.305 40.024 64.6084 40.2162 64.0343 39.6764C63.445 39.1224 63.9848 37.9698 65.2779 37.0246C68.2554 34.8478 69.4707 34.9114 69.4707 37.2473ZM219.943 37.1719C220.836 39.5008 220.003 40.3128 217.645 39.4088C216.621 39.0152 216.072 37.9427 216.424 37.0234C217.269 34.8207 219.069 34.8961 219.943 37.1719ZM316.472 36.4424C316.102 37.0423 316.611 37.7836 317.604 38.0912C319 38.5226 318.959 38.6098 317.421 38.4742C315.201 38.2798 313.681 35.3534 315.799 35.3534C316.539 35.3534 316.842 35.8437 316.472 36.4424ZM370.049 37.2367C370.049 37.9946 368.988 38.8914 367.692 39.2309C366.02 39.6681 365.334 39.2662 365.334 37.8531C365.334 36.6439 366.263 35.859 367.692 35.859C368.988 35.859 370.049 36.4789 370.049 37.2367ZM48.2534 37.7105C48.2534 38.3587 47.7229 38.8891 47.0746 38.8891C46.4263 38.8891 45.8959 38.3587 45.8959 37.7105C45.8959 37.0623 46.4263 36.532 47.0746 36.532C47.7229 36.532 48.2534 37.0623 48.2534 37.7105ZM176.736 37.7105C176.736 38.3587 176.206 38.8891 175.557 38.8891C174.909 38.8891 174.379 38.3587 174.379 37.7105C174.379 37.0623 174.909 36.532 175.557 36.532C176.206 36.532 176.736 37.0623 176.736 37.7105ZM238.836 39.1107C238.46 40.05 238.18 39.7707 238.124 38.3976C238.073 37.1554 238.351 36.4601 238.742 36.8513C239.134 37.2426 239.176 38.2597 238.836 39.1107ZM348.832 37.7105C348.832 38.3587 348.302 38.8891 347.653 38.8891C347.005 38.8891 346.475 38.3587 346.475 37.7105C346.475 37.0623 347.005 36.532 347.653 36.532C348.302 36.532 348.832 37.0623 348.832 37.7105ZM261.064 38.9681C262.274 40.9245 261.188 41.1955 259.496 39.3593C258.66 38.453 258.496 37.7105 259.132 37.7105C259.768 37.7105 260.638 38.2762 261.064 38.9681ZM269.856 38.8891C269.856 39.5373 269.326 40.0677 268.678 40.0677C268.029 40.0677 267.499 39.5373 267.499 38.8891C267.499 38.2409 268.029 37.7105 268.678 37.7105C269.326 37.7105 269.856 38.2409 269.856 38.8891ZM110.727 40.0677C110.727 40.7159 110.196 41.2462 109.548 41.2462C108.9 41.2462 108.369 40.7159 108.369 40.0677C108.369 39.4194 108.9 38.8891 109.548 38.8891C110.196 38.8891 110.727 39.4194 110.727 40.0677ZM10.5337 47.139C10.5337 47.7873 10.0032 48.3176 9.35494 48.3176C8.70663 48.3176 8.1762 47.7873 8.1762 47.139C8.1762 46.4908 8.70663 45.9605 9.35494 45.9605C10.0032 45.9605 10.5337 46.4908 10.5337 47.139ZM51.7896 46.4802C51.7896 46.7666 51.2591 47.3276 50.6108 47.7283C49.9625 48.129 49.4321 47.8945 49.4321 47.2086C49.4321 46.5226 49.9625 45.9605 50.6108 45.9605C51.2591 45.9605 51.7896 46.1938 51.7896 46.4802ZM71.8281 46.4802C71.8281 46.7666 71.2977 47.3276 70.6494 47.7283C70.0011 48.129 69.4707 47.8945 69.4707 47.2086C69.4707 46.5226 70.0011 45.9605 70.6494 45.9605C71.2977 45.9605 71.8281 46.1938 71.8281 46.4802ZM311.112 47.139C311.112 47.7873 310.582 48.3176 309.934 48.3176C309.285 48.3176 308.755 47.7873 308.755 47.139C308.755 46.4908 309.285 45.9605 309.934 45.9605C310.582 45.9605 311.112 46.4908 311.112 47.139ZM372.407 47.139C372.407 47.7873 371.876 48.3176 371.228 48.3176C370.58 48.3176 370.049 47.7873 370.049 47.139C370.049 46.4908 370.58 45.9605 371.228 45.9605C371.876 45.9605 372.407 46.4908 372.407 47.139ZM221.528 49.4962C221.528 50.1444 220.998 50.6747 220.349 50.6747C219.701 50.6747 219.171 50.1444 219.171 49.4962C219.171 48.848 219.701 48.3176 220.349 48.3176C220.998 48.3176 221.528 48.848 221.528 49.4962ZM184.717 52.0749C183.989 54.2599 181.451 54.6217 181.451 52.5404C181.451 51.5139 182.291 50.6747 183.317 50.6747C184.344 50.6747 184.974 51.3041 184.717 52.0749ZM225.064 53.0319C225.064 53.6801 224.269 54.2104 223.296 54.2104C222.324 54.2104 221.528 53.6801 221.528 53.0319C221.528 52.3836 222.324 51.8533 223.296 51.8533C224.269 51.8533 225.064 52.3836 225.064 53.0319ZM282.233 53.0319C282.634 53.6801 282.399 54.2104 281.713 54.2104C281.027 54.2104 280.465 53.6801 280.465 53.0319C280.465 52.3836 280.698 51.8533 280.985 51.8533C281.271 51.8533 281.832 52.3836 282.233 53.0319ZM169.664 54.2104C169.664 54.8586 169.133 55.389 168.485 55.389C167.837 55.389 167.306 54.8586 167.306 54.2104C167.306 53.5622 167.837 53.0319 168.485 53.0319C169.133 53.0319 169.664 53.5622 169.664 54.2104ZM173.2 55.389C173.2 56.0372 172.637 56.5676 171.951 56.5676C171.265 56.5676 171.031 56.0372 171.432 55.389C171.832 54.7408 172.394 54.2104 172.68 54.2104C172.966 54.2104 173.2 54.7408 173.2 55.389ZM206.187 59.8086C206.154 61.4221 203.986 64.1716 203.294 63.4787C202.365 62.5499 203.845 58.9247 205.152 58.9247C205.731 58.9247 206.196 59.3219 206.187 59.8086ZM276.609 61.9937C276.218 62.3849 275.201 62.4274 274.351 62.0868C273.41 61.7108 273.69 61.4315 275.063 61.3749C276.305 61.3242 277.001 61.6024 276.609 61.9937ZM85.3837 73.0675C85.7844 73.7157 85.5499 74.246 84.8638 74.246C84.1778 74.246 83.6155 73.7157 83.6155 73.0675C83.6155 72.4192 83.8489 71.8889 84.1354 71.8889C84.4218 71.8889 84.9829 72.4192 85.3837 73.0675ZM386.552 73.0675C386.552 73.7157 385.989 74.246 385.303 74.246C384.617 74.246 384.383 73.7157 384.784 73.0675C385.184 72.4192 385.745 71.8889 386.032 71.8889C386.318 71.8889 386.552 72.4192 386.552 73.0675ZM58.862 77.7817C58.862 78.4299 58.3316 78.9603 57.6833 78.9603C57.035 78.9603 56.5045 78.4299 56.5045 77.7817C56.5045 77.1335 57.035 76.6031 57.6833 76.6031C58.3316 76.6031 58.862 77.1335 58.862 77.7817ZM245.103 80.1388C245.103 80.787 244.307 81.3174 243.335 81.3174C242.362 81.3174 241.567 80.787 241.567 80.1388C241.567 79.4906 242.362 78.9603 243.335 78.9603C244.307 78.9603 245.103 79.4906 245.103 80.1388ZM291.786 85.7123C290.588 86.9109 289.599 85.1065 290.582 83.5166C291.325 82.3145 291.603 82.3145 292.001 83.5119C292.275 84.331 292.177 85.321 291.786 85.7123ZM78.9006 84.8531C78.9006 85.5013 78.3702 86.0317 77.7218 86.0317C77.0735 86.0317 76.5431 85.5013 76.5431 84.8531C76.5431 84.2049 77.0735 83.6745 77.7218 83.6745C78.3702 83.6745 78.9006 84.2049 78.9006 84.8531ZM125.398 86.1318C125.019 86.7459 124.207 86.938 123.593 86.5585C122.978 86.179 122.786 85.367 123.166 84.7529C123.545 84.1389 124.358 83.9468 124.972 84.3263C125.586 84.7058 125.778 85.5178 125.398 86.1318ZM177.591 86.0317C177.493 87.3281 176.995 88.3888 176.485 88.3888C175.37 88.3888 175.338 87.9728 176.273 85.539C177.25 82.991 177.804 83.1984 177.591 86.0317ZM379.479 84.8531C379.479 85.5013 378.949 86.0317 378.301 86.0317C377.652 86.0317 377.122 85.5013 377.122 84.8531C377.122 84.2049 377.652 83.6745 378.301 83.6745C378.949 83.6745 379.479 84.2049 379.479 84.8531ZM215.634 87.2102C215.634 87.8584 215.104 88.3888 214.456 88.3888C213.807 88.3888 213.277 87.8584 213.277 87.2102C213.277 86.562 213.807 86.0317 214.456 86.0317C215.104 86.0317 215.634 86.562 215.634 87.2102ZM294.021 90.7459C294.421 91.3941 294.187 91.9245 293.501 91.9245C292.815 91.9245 292.253 91.3941 292.253 90.7459C292.253 90.0977 292.486 89.5674 292.772 89.5674C293.059 89.5674 293.62 90.0977 294.021 90.7459ZM236.852 91.9245C236.852 92.5727 236.321 93.1031 235.673 93.1031C235.025 93.1031 234.494 92.5727 234.494 91.9245C234.494 91.2763 235.025 90.7459 235.673 90.7459C236.321 90.7459 236.852 91.2763 236.852 91.9245ZM144.91 93.1031C144.91 93.7513 144.411 94.2816 143.801 94.2816C143.19 94.2816 142.364 93.7513 141.963 93.1031C141.562 92.4548 142.062 91.9245 143.072 91.9245C144.083 91.9245 144.91 92.4548 144.91 93.1031ZM176.259 97.5085C175.767 98 174.612 97.3742 173.692 96.1166C171.159 92.654 171.692 91.5261 174.587 94.2227C175.999 95.538 176.751 97.0159 176.259 97.5085ZM207.383 95.4602C207.383 96.1084 206.821 96.6387 206.135 96.6387C205.449 96.6387 205.214 96.1084 205.615 95.4602C206.016 94.812 206.577 94.2816 206.863 94.2816C207.15 94.2816 207.383 94.812 207.383 95.4602ZM302.861 95.4602C302.861 96.1084 302.363 96.6387 301.752 96.6387C301.141 96.6387 300.315 96.1084 299.914 95.4602C299.514 94.812 300.013 94.2816 301.023 94.2816C302.034 94.2816 302.861 94.812 302.861 95.4602ZM111.905 96.6387C111.905 97.2869 111.375 97.8173 110.727 97.8173C110.078 97.8173 109.548 97.2869 109.548 96.6387C109.548 95.9905 110.078 95.4602 110.727 95.4602C111.375 95.4602 111.905 95.9905 111.905 96.6387ZM55.3258 101.423C55.3258 102.033 54.7954 102.532 54.1471 102.532C53.4987 102.532 52.9683 101.704 52.9683 100.694C52.9683 99.6842 53.4987 99.1844 54.1471 99.5852C54.7954 99.9859 55.3258 100.812 55.3258 101.423ZM356.508 102.321C355.572 103.258 353.545 101.131 354.265 99.967C354.754 99.175 355.361 99.2964 355.988 100.309C356.52 101.17 356.754 102.075 356.508 102.321ZM30.5723 101.353C30.5723 102.001 30.0418 102.532 29.3935 102.532C28.7452 102.532 28.2148 102.001 28.2148 101.353C28.2148 100.705 28.7452 100.174 29.3935 100.174C30.0418 100.174 30.5723 100.705 30.5723 101.353ZM63.577 102.532C63.577 103.18 63.0465 103.71 62.3982 103.71C61.7499 103.71 61.2195 103.18 61.2195 102.532C61.2195 101.883 61.7499 101.353 62.3982 101.353C63.0465 101.353 63.577 101.883 63.577 102.532ZM169.664 102.532C169.664 103.18 169.133 103.71 168.485 103.71C167.837 103.71 167.306 103.18 167.306 102.532C167.306 101.883 167.837 101.353 168.485 101.353C169.133 101.353 169.664 101.883 169.664 102.532ZM364.156 102.532C364.156 103.18 363.625 103.71 362.977 103.71C362.329 103.71 361.798 103.18 361.798 102.532C361.798 101.883 362.329 101.353 362.977 101.353C363.625 101.353 364.156 101.883 364.156 102.532ZM129.586 105.441C129.586 106.493 128.894 106.906 127.825 106.496C126.856 106.124 126.357 105.346 126.716 104.765C127.744 103.101 129.586 103.535 129.586 105.441ZM295.013 106.596C295.452 107.738 295.103 108.087 293.96 107.649C293.021 107.288 292.253 106.52 292.253 105.941C292.253 104.246 294.298 104.732 295.013 106.596ZM68.1941 110.362C68.464 110.593 68.4157 111.05 68.0868 111.379C67.1686 112.297 60.0407 110.62 60.0407 109.485C60.0407 108.586 66.9906 109.333 68.1941 110.362ZM189.702 109.603C189.702 110.251 189.172 110.782 188.523 110.782C187.875 110.782 187.345 110.251 187.345 109.603C187.345 108.955 187.875 108.424 188.523 108.424C189.172 108.424 189.702 108.955 189.702 109.603ZM312.291 110.782C312.291 111.43 311.761 111.96 311.112 111.96C310.464 111.96 309.934 111.43 309.934 110.782C309.934 110.133 310.464 109.603 311.112 109.603C311.761 109.603 312.291 110.133 312.291 110.782ZM369.46 110.782C369.059 111.43 367.998 111.96 367.102 111.96C366.207 111.96 365.146 111.43 364.745 110.782C364.33 110.111 365.345 109.603 367.102 109.603C368.86 109.603 369.875 110.111 369.46 110.782ZM145.499 111.96C145.9 112.608 145.37 113.139 144.321 113.139C143.272 113.139 142.741 112.608 143.142 111.96C143.543 111.312 144.073 110.782 144.321 110.782C144.568 110.782 145.099 111.312 145.499 111.96ZM192.51 112.611C192.912 113.66 192.714 114.132 192.047 113.72C191.405 113.324 190.881 112.501 190.881 111.891C190.881 110.196 191.726 110.569 192.51 112.611ZM137.838 113.139C137.838 113.787 137.307 114.317 136.659 114.317C136.011 114.317 135.48 113.787 135.48 113.139C135.48 112.49 136.011 111.96 136.659 111.96C137.307 111.96 137.838 112.49 137.838 113.139ZM183.808 113.139C183.808 113.787 183.31 114.317 182.699 114.317C182.089 114.317 181.262 113.787 180.862 113.139C180.461 112.49 180.961 111.96 181.971 111.96C182.981 111.96 183.808 112.49 183.808 113.139ZM251.802 114.539C251.426 115.478 251.146 115.199 251.09 113.826C251.039 112.584 251.317 111.888 251.709 112.279C252.1 112.671 252.142 113.688 251.802 114.539ZM260.427 112.423C260.427 112.678 259.631 113.192 258.658 113.565C257.686 113.938 256.89 113.729 256.89 113.102C256.89 112.474 257.686 111.96 258.658 111.96C259.631 111.96 260.427 112.169 260.427 112.423ZM221.528 115.496C221.528 116.144 221.295 116.674 221.008 116.674C220.722 116.674 220.161 116.144 219.76 115.496C219.359 114.848 219.594 114.317 220.28 114.317C220.966 114.317 221.528 114.848 221.528 115.496ZM360.619 115.496C360.619 116.144 360.089 116.674 359.441 116.674C358.792 116.674 358.262 116.144 358.262 115.496C358.262 114.848 358.792 114.317 359.441 114.317C360.089 114.317 360.619 114.848 360.619 115.496ZM3.46124 117.853C3.46124 118.501 2.93081 119.031 2.2825 119.031C1.63419 119.031 1.10376 118.501 1.10376 117.853C1.10376 117.205 1.63419 116.674 2.2825 116.674C2.93081 116.674 3.46124 117.205 3.46124 117.853ZM11.7124 117.853C11.7124 118.501 11.182 119.031 10.5337 119.031C9.88537 119.031 9.35494 118.501 9.35494 117.853C9.35494 117.205 9.88537 116.674 10.5337 116.674C11.182 116.674 11.7124 117.205 11.7124 117.853ZM304.04 117.853C304.04 118.501 303.806 119.031 303.52 119.031C303.234 119.031 302.673 118.501 302.272 117.853C301.871 117.205 302.106 116.674 302.792 116.674C303.478 116.674 304.04 117.205 304.04 117.853ZM312.291 117.853C312.291 118.501 312.058 119.031 311.771 119.031C311.485 119.031 310.924 118.501 310.523 117.853C310.122 117.205 310.357 116.674 311.043 116.674C311.729 116.674 312.291 117.205 312.291 117.853ZM235.673 119.031C235.673 119.68 235.111 120.21 234.425 120.21C233.739 120.21 233.504 119.68 233.905 119.031C234.306 118.383 234.867 117.853 235.153 117.853C235.44 117.853 235.673 118.383 235.673 119.031ZM288.716 118.373C288.716 118.659 288.186 119.22 287.538 119.621C286.889 120.021 286.359 119.787 286.359 119.101C286.359 118.415 286.889 117.853 287.538 117.853C288.186 117.853 288.716 118.086 288.716 118.373ZM307.576 119.031C307.576 119.68 307.343 120.21 307.056 120.21C306.77 120.21 306.209 119.68 305.808 119.031C305.407 118.383 305.642 117.853 306.328 117.853C307.014 117.853 307.576 118.383 307.576 119.031ZM216.04 122.865C215.621 123.542 214.991 123.432 214.471 122.592C213.994 121.82 213.145 121.272 212.585 121.377C212.025 121.481 211.374 120.984 211.138 120.276C210.838 119.376 211.62 119.402 213.724 120.36C215.382 121.115 216.424 122.243 216.04 122.865ZM1.90884 122.789C1.53282 123.728 1.25346 123.449 1.19688 122.076C1.14619 120.833 1.42438 120.138 1.81572 120.529C2.20706 120.921 2.24949 121.938 1.90884 122.789ZM303.666 122.789C303.29 123.728 303.011 123.449 302.954 122.076C302.904 120.833 303.182 120.138 303.573 120.529C303.964 120.921 304.007 121.938 303.666 122.789ZM79.49 122.567C79.8907 123.215 79.6562 123.746 78.9701 123.746C78.2841 123.746 77.7218 123.215 77.7218 122.567C77.7218 121.919 77.9552 121.389 78.2417 121.389C78.5281 121.389 79.0892 121.919 79.49 122.567ZM210.035 123.029C211.171 123.891 212.082 125.332 212.06 126.232C212.033 127.429 211.601 127.314 210.457 125.808C209.596 124.673 208.287 123.746 207.548 123.746C206.809 123.746 206.204 123.215 206.204 122.567C206.204 120.978 207.547 121.141 210.035 123.029ZM228.227 123.967C227.851 124.907 227.571 124.627 227.515 123.254C227.464 122.012 227.742 121.317 228.134 121.708C228.525 122.099 228.568 123.116 228.227 123.967ZM311.702 122.567C312.102 123.215 311.868 123.746 311.182 123.746C310.496 123.746 309.934 123.215 309.934 122.567C309.934 121.919 310.167 121.389 310.453 121.389C310.74 121.389 311.301 121.919 311.702 122.567ZM380.658 122.567C380.658 123.215 380.096 123.746 379.41 123.746C378.724 123.746 378.489 123.215 378.89 122.567C379.291 121.919 379.852 121.389 380.138 121.389C380.425 121.389 380.658 121.919 380.658 122.567ZM221.51 127.576C221.484 131.398 219.755 133.896 218.52 131.897C217.982 131.027 218.119 130.185 218.837 129.946C219.531 129.715 219.828 128.491 219.497 127.225C219.166 125.958 219.487 124.924 220.211 124.924C220.936 124.924 221.52 126.118 221.51 127.576ZM268.972 125.704C268.163 126.032 267.499 127.139 267.499 128.165C267.499 129.192 267.168 129.701 266.763 129.297C265.614 128.146 267.255 124.914 268.936 125.017C270.118 125.09 270.126 125.239 268.972 125.704ZM17.6061 126.623C17.6061 126.909 17.0757 127.47 16.4274 127.871C15.7791 128.271 15.2486 128.037 15.2486 127.351C15.2486 126.665 15.7791 126.103 16.4274 126.103C17.0757 126.103 17.6061 126.336 17.6061 126.623ZM215.634 127.281C215.634 127.93 215.401 128.46 215.115 128.46C214.828 128.46 214.267 127.93 213.866 127.281C213.466 126.633 213.7 126.103 214.386 126.103C215.072 126.103 215.634 126.633 215.634 127.281ZM249.818 127.871C249.818 128.843 249.287 129.639 248.639 129.639C247.991 129.639 247.46 128.843 247.46 127.871C247.46 126.898 247.991 126.103 248.639 126.103C249.287 126.103 249.818 126.898 249.818 127.871ZM318.185 127.281C318.185 127.93 317.654 128.46 317.006 128.46C316.358 128.46 315.827 127.93 315.827 127.281C315.827 126.633 316.358 126.103 317.006 126.103C317.654 126.103 318.185 126.633 318.185 127.281ZM33.5191 128.46C33.9199 129.108 33.6853 129.639 32.9993 129.639C32.3133 129.639 31.751 129.108 31.751 128.46C31.751 127.812 31.9844 127.281 32.2708 127.281C32.5573 127.281 33.1183 127.812 33.5191 128.46ZM334.098 128.46C334.499 129.108 334.264 129.639 333.578 129.639C332.892 129.639 332.33 129.108 332.33 128.46C332.33 127.812 332.563 127.281 332.849 127.281C333.136 127.281 333.697 127.812 334.098 128.46ZM232.137 130.354C232.137 130.609 231.341 130.817 230.369 130.817C229.396 130.817 228.601 130.303 228.601 129.675C228.601 129.048 229.396 128.839 230.369 129.212C231.341 129.586 232.137 130.099 232.137 130.354ZM26.9995 133.764C26.9995 134.412 26.4856 134.147 25.8573 133.174C25.229 132.202 24.7151 130.876 24.7151 130.228C24.7151 129.58 25.229 129.845 25.8573 130.817C26.4856 131.789 26.9995 133.115 26.9995 133.764ZM215.634 130.084C215.634 130.328 214.827 131.199 213.839 132.018C212.339 133.264 212.165 133.191 212.787 131.573C213.421 129.921 215.634 128.763 215.634 130.084ZM40.8073 133.396C40.4312 134.335 40.1519 134.056 40.0953 132.683C40.0446 131.441 40.3228 130.745 40.7141 131.137C41.1055 131.528 41.1479 132.545 40.8073 133.396ZM192.649 131.996C193.05 132.644 192.815 133.174 192.129 133.174C191.443 133.174 190.881 132.644 190.881 131.996C190.881 131.347 191.114 130.817 191.401 130.817C191.687 130.817 192.248 131.347 192.649 131.996ZM246.282 132.669C246.282 133.04 245.52 134.104 244.589 135.035C243.393 136.231 242.657 136.341 242.081 135.409C241.632 134.683 241.996 133.627 242.889 133.061C244.766 131.872 246.282 131.697 246.282 132.669ZM323.612 135.212C322.414 136.411 321.425 134.606 322.408 133.016C323.151 131.814 323.429 131.814 323.827 133.012C324.101 133.831 324.003 134.821 323.612 135.212ZM23.4998 133.694C23.4998 133.98 22.9694 134.541 22.3211 134.942C21.6728 135.343 21.1423 135.108 21.1423 134.422C21.1423 133.736 21.6728 133.174 22.3211 133.174C22.9694 133.174 23.4998 133.408 23.4998 133.694ZM225.064 137.23C225.064 137.516 224.534 138.077 223.886 138.478C223.237 138.878 222.707 138.644 222.707 137.958C222.707 137.272 223.237 136.71 223.886 136.71C224.534 136.71 225.064 136.943 225.064 137.23ZM236.852 137.888C234.566 139.365 233.316 139.365 233.316 137.888C233.316 137.24 234.508 136.718 235.968 136.728C238.112 136.743 238.282 136.964 236.852 137.888ZM9.94431 139.067C10.3451 139.715 10.1105 140.246 9.42448 140.246C8.73846 140.246 8.1762 139.715 8.1762 139.067C8.1762 138.419 8.40959 137.888 8.69602 137.888C8.98246 137.888 9.54354 138.419 9.94431 139.067ZM59.4007 138.986C60.273 140.396 58.0558 141.793 56.4857 140.823C55.1667 140.009 56.033 137.888 57.6833 137.888C58.255 137.888 59.0282 138.382 59.4007 138.986ZM311.112 139.067C311.112 139.715 310.582 140.246 309.934 140.246C309.285 140.246 308.755 139.715 308.755 139.067C308.755 138.419 309.285 137.888 309.934 137.888C310.582 137.888 311.112 138.419 311.112 139.067ZM360.619 139.656C360.619 140.629 359.824 141.424 358.851 141.424C357.879 141.424 357.083 140.629 357.083 139.656C357.083 138.684 357.879 137.888 358.851 137.888C359.824 137.888 360.619 138.684 360.619 139.656ZM214.456 142.083C214.456 143.093 213.925 143.593 213.277 143.192C212.629 142.791 212.098 141.965 212.098 141.355C212.098 140.744 212.629 140.246 213.277 140.246C213.925 140.246 214.456 141.073 214.456 142.083ZM217.992 142.603C217.992 143.251 217.461 143.781 216.813 143.781C216.165 143.781 215.634 143.251 215.634 142.603C215.634 141.955 216.165 141.424 216.813 141.424C217.461 141.424 217.992 141.955 217.992 142.603ZM41.1809 143.781C41.1809 144.43 40.6505 144.96 40.0022 144.96C39.3539 144.96 38.8234 144.43 38.8234 143.781C38.8234 143.133 39.3539 142.603 40.0022 142.603C40.6505 142.603 41.1809 143.133 41.1809 143.781ZM342.349 143.781C342.75 144.43 342.515 144.96 341.829 144.96C341.143 144.96 340.581 144.43 340.581 143.781C340.581 143.133 340.814 142.603 341.101 142.603C341.387 142.603 341.948 143.133 342.349 143.781ZM172.021 144.96C172.021 145.608 171.788 146.138 171.501 146.138C171.215 146.138 170.654 145.608 170.253 144.96C169.852 144.312 170.087 143.781 170.773 143.781C171.459 143.781 172.021 144.312 172.021 144.96ZM229.779 147.317L232.137 149.674H229.19C227.029 149.674 226.243 149.046 226.243 147.317C226.243 146.021 226.508 144.96 226.832 144.96C227.157 144.96 228.483 146.021 229.779 147.317ZM249.178 147.236C249.551 147.839 249.317 148.665 248.658 149.073C247.999 149.48 247.46 148.986 247.46 147.976C247.46 145.905 248.168 145.601 249.178 147.236ZM245.103 150.263C245.103 151.236 244.572 152.031 243.924 152.031C243.276 152.031 242.745 151.236 242.745 150.263C242.745 149.291 243.276 148.496 243.924 148.496C244.572 148.496 245.103 149.291 245.103 150.263ZM257.48 149.674C257.88 150.322 257.646 150.853 256.96 150.853C256.274 150.853 255.712 150.322 255.712 149.674C255.712 149.026 255.945 148.496 256.231 148.496C256.518 148.496 257.079 149.026 257.48 149.674ZM263.963 152.031C263.963 152.679 263.432 153.21 262.784 153.21C262.136 153.21 261.605 152.679 261.605 152.031C261.605 151.383 262.136 150.853 262.784 150.853C263.432 150.853 263.963 151.383 263.963 152.031ZM60.0407 153.21C60.0407 153.858 59.5103 154.388 58.862 154.388C58.2137 154.388 57.6833 153.858 57.6833 153.21C57.6833 152.562 58.2137 152.031 58.862 152.031C59.5103 152.031 60.0407 152.562 60.0407 153.21ZM360.619 153.21C360.619 153.858 360.089 154.388 359.441 154.388C358.792 154.388 358.262 153.858 358.262 153.21C358.262 152.562 358.792 152.031 359.441 152.031C360.089 152.031 360.619 152.562 360.619 153.21ZM6.99746 156.746C6.99746 157.394 6.46703 157.924 5.81872 157.924C5.17041 157.924 4.63998 157.394 4.63998 156.746C4.63998 156.097 5.17041 155.567 5.81872 155.567C6.46703 155.567 6.99746 156.097 6.99746 156.746ZM307.576 156.746C307.576 157.394 307.046 157.924 306.397 157.924C305.749 157.924 305.219 157.394 305.219 156.746C305.219 156.097 305.749 155.567 306.397 155.567C307.046 155.567 307.576 156.097 307.576 156.746ZM251.802 159.324C251.426 160.264 251.146 159.984 251.09 158.611C251.039 157.369 251.317 156.674 251.709 157.065C252.1 157.456 252.142 158.473 251.802 159.324ZM115.442 159.103C115.442 159.751 114.614 160.281 113.604 160.281C112.594 160.281 112.094 159.751 112.495 159.103C112.895 158.454 113.722 157.924 114.332 157.924C114.943 157.924 115.442 158.454 115.442 159.103ZM187.345 160.281C187.345 160.929 186.594 161.46 185.674 161.46C184.756 161.46 183.768 162.123 183.478 162.933C183.19 163.744 182.55 164.031 182.056 163.573C180.499 162.126 182.455 159.103 184.951 159.103C186.267 159.103 187.345 159.633 187.345 160.281ZM86.7534 168.826C86.4268 169.637 86.1593 168.973 86.1593 167.353C86.1593 165.732 86.4268 165.07 86.7534 165.879C87.081 166.69 87.081 168.016 86.7534 168.826ZM388.909 167.942C388.909 168.838 388.379 169.898 387.73 170.299C387.06 170.714 386.552 169.699 386.552 167.942C386.552 166.185 387.06 165.17 387.73 165.585C388.379 165.985 388.909 167.046 388.909 167.942ZM212.688 170.888C213.088 171.536 212.854 172.067 212.168 172.067C211.482 172.067 210.919 171.536 210.919 170.888C210.919 170.24 211.153 169.71 211.439 169.71C211.726 169.71 212.287 170.24 212.688 170.888ZM219.171 172.067C219.171 172.715 218.64 173.245 217.992 173.245C217.344 173.245 216.813 172.715 216.813 172.067C216.813 171.419 217.344 170.888 217.992 170.888C218.64 170.888 219.171 171.419 219.171 172.067ZM149.036 173.245C149.436 173.894 149.202 174.424 148.516 174.424C147.83 174.424 147.267 173.894 147.267 173.245C147.267 172.597 147.501 172.067 147.787 172.067C148.074 172.067 148.635 172.597 149.036 173.245ZM103.28 179.36C102.904 180.299 102.625 180.02 102.569 178.647C102.518 177.405 102.796 176.709 103.187 177.1C103.579 177.492 103.621 178.509 103.28 179.36ZM151.982 179.728C151.982 181.348 151.452 182.674 150.804 182.674C150.155 182.674 149.625 181.348 149.625 179.728C149.625 178.107 150.155 176.781 150.804 176.781C151.452 176.781 151.982 178.107 151.982 179.728ZM128.408 184.076C128.408 185.626 125.728 184.656 125.141 182.894C124.854 182.033 125.394 181.77 126.541 182.21C127.567 182.604 128.408 183.444 128.408 184.076ZM55.9152 186.21C56.3407 186.897 55.1419 187.388 53.0379 187.388C51.0552 187.388 49.4321 186.858 49.4321 186.21C49.4321 185.561 50.7263 185.031 52.3094 185.031C53.8924 185.031 55.5144 185.561 55.9152 186.21ZM356.494 186.21C356.919 186.897 355.721 187.388 353.616 187.388C351.634 187.388 350.011 186.858 350.011 186.21C350.011 185.561 351.305 185.031 352.888 185.031C354.471 185.031 356.093 185.561 356.494 186.21ZM124.871 187.388C124.871 188.036 124.373 188.567 123.762 188.567C123.152 188.567 122.325 188.036 121.925 187.388C121.524 186.74 122.024 186.21 123.034 186.21C124.044 186.21 124.871 186.74 124.871 187.388ZM50.6108 195.638C50.6108 196.286 50.0486 196.817 49.3625 196.817C48.6765 196.817 48.442 196.286 48.8427 195.638C49.2435 194.99 49.8046 194.46 50.091 194.46C50.3774 194.46 50.6108 194.99 50.6108 195.638ZM295.789 195.638C295.789 196.286 295.258 196.817 294.61 196.817C293.962 196.817 293.431 196.286 293.431 195.638C293.431 194.99 293.962 194.46 294.61 194.46C295.258 194.46 295.789 194.99 295.789 195.638ZM11.7124 197.995C11.7124 198.643 10.8849 199.174 9.87476 199.174C8.86458 199.174 8.3648 198.643 8.76557 197.995C9.16634 197.347 9.99264 196.817 10.6032 196.817C11.2138 196.817 11.7124 197.347 11.7124 197.995ZM312.291 197.995C312.291 198.643 311.761 199.174 311.112 199.174C310.464 199.174 309.934 198.643 309.934 197.995C309.934 197.347 310.464 196.817 311.112 196.817C311.761 196.817 312.291 197.347 312.291 197.995ZM173.2 205.067C173.2 205.715 172.669 206.245 172.021 206.245C171.373 206.245 170.842 205.715 170.842 205.067C170.842 204.418 171.373 203.888 172.021 203.888C172.669 203.888 173.2 204.418 173.2 205.067ZM181.451 207.493C181.451 208.104 180.921 208.602 180.272 208.602C179.624 208.602 179.093 207.775 179.093 206.765C179.093 205.755 179.624 205.255 180.272 205.656C180.921 206.057 181.451 206.883 181.451 207.493ZM9.35494 209.781C9.35494 210.429 8.82451 210.959 8.1762 210.959C7.52789 210.959 6.99746 210.429 6.99746 209.781C6.99746 209.133 7.52789 208.602 8.1762 208.602C8.82451 208.602 9.35494 209.133 9.35494 209.781ZM61.2195 210.468C61.2195 211.495 60.59 212.125 59.8203 211.868C57.6338 211.14 57.2719 208.602 59.3535 208.602C60.3802 208.602 61.2195 209.443 61.2195 210.468ZM361.798 210.44C361.798 211.45 361.268 211.949 360.619 211.549C359.971 211.148 359.441 210.322 359.441 209.711C359.441 209.101 359.971 208.602 360.619 208.602C361.268 208.602 361.798 209.43 361.798 210.44ZM81.7496 212.896C82.8317 215.717 81.9877 215.934 80.3198 213.264C79.5277 211.997 79.3591 210.959 79.9438 210.959C80.5273 210.959 81.3406 211.83 81.7496 212.896ZM252.074 215.674C252.032 216.839 251.665 216.639 250.997 215.084C249.605 211.845 249.605 209.984 250.997 212.138C251.625 213.11 252.111 214.701 252.074 215.674ZM383.479 212.824C384.586 215.707 384.345 216.087 382.426 214.495C380.467 212.869 380.08 210.959 381.711 210.959C382.289 210.959 383.085 211.799 383.479 212.824ZM14.9999 217.323C14.1642 218.23 13.2943 218.796 13.068 218.58C12.369 217.915 14.1406 215.674 15.3642 215.674C16.0007 215.674 15.8368 216.416 14.9999 217.323ZM317.006 216.852C317.006 217.501 316.077 218.023 314.943 218.013C313.18 217.998 313.137 217.828 314.649 216.852C316.873 215.414 317.006 215.414 317.006 216.852ZM272.214 218.69C272.214 219.7 271.683 220.199 271.035 219.799C270.387 219.398 269.856 218.572 269.856 217.961C269.856 217.351 270.387 216.852 271.035 216.852C271.683 216.852 272.214 217.68 272.214 218.69ZM38.3743 221.006C37.3253 222.054 36.466 222.452 36.466 221.886C36.466 220.552 39.1016 217.917 39.7688 218.584C40.0517 218.866 39.4246 219.955 38.3743 221.006ZM291.074 219.209C291.074 219.858 290.543 220.388 289.895 220.388C289.247 220.388 288.716 219.858 288.716 219.209C288.716 218.561 289.247 218.031 289.895 218.031C290.543 218.031 291.074 218.561 291.074 219.209ZM339.896 220.802C339.488 221.864 338.685 222.441 338.111 222.086C337.537 221.732 337.726 220.727 338.53 219.855C340.338 217.892 340.871 218.262 339.896 220.802ZM216.439 221.788C216.063 222.727 215.784 222.448 215.728 221.075C215.677 219.833 215.955 219.138 216.346 219.529C216.738 219.92 216.78 220.937 216.439 221.788ZM221.209 219.921C220.817 220.313 219.8 220.355 218.95 220.014C218.01 219.638 218.289 219.359 219.662 219.303C220.905 219.252 221.6 219.53 221.209 219.921ZM379.081 220.903C378.701 221.894 379.261 222.797 380.428 223.079C382.258 223.518 382.248 223.636 380.313 224.476C379.15 224.981 377.908 225.102 377.553 224.747C376.807 224.003 378.143 219.209 379.095 219.209C379.445 219.209 379.439 219.972 379.081 220.903ZM79.1363 224.159C78.0366 225.259 77.4071 225.259 76.3074 224.159C75.2076 223.06 75.5211 222.745 77.7218 222.745C79.9226 222.745 80.2361 223.06 79.1363 224.159ZM239.504 223.525C238.694 223.853 237.368 223.853 236.557 223.525C235.747 223.199 236.41 222.931 238.03 222.931C239.651 222.931 240.315 223.199 239.504 223.525ZM271.625 223.585C268.765 224.273 266.394 226.281 268.442 226.281C269.22 226.281 269.856 226.811 269.856 227.459C269.856 229.329 267.824 228.828 267.032 226.764C265.976 224.012 267.227 222.727 270.81 222.882C273.255 222.987 273.442 223.148 271.625 223.585ZM11.993 226.24C13.1352 227.574 13.4959 228.854 12.8452 229.256C12.2216 229.641 11.7124 229.363 11.7124 228.638C11.7124 227.913 11.2056 227.634 10.5855 228.017C9.96552 228.4 9.75689 229.492 10.1223 230.443C10.4865 231.395 10.2508 232.174 9.59776 232.174C8.94474 232.174 8.46263 230.317 8.52628 228.049C8.66066 223.312 9.23117 223.015 11.993 226.24ZM312.021 226.06C312.728 228.181 310.292 227.735 309.469 225.593C309.029 224.446 309.292 223.906 310.154 224.194C310.924 224.451 311.764 225.29 312.021 226.06ZM220.349 227.459C220.349 228.108 219.819 228.638 219.171 228.638C218.522 228.638 217.992 228.108 217.992 227.459C217.992 226.811 218.522 226.281 219.171 226.281C219.819 226.281 220.349 226.811 220.349 227.459ZM215.634 228.638C215.634 229.286 215.104 229.816 214.456 229.816C213.807 229.816 213.277 229.286 213.277 228.638C213.277 227.99 213.807 227.459 214.456 227.459C215.104 227.459 215.634 227.99 215.634 228.638ZM94.2242 229.158C94.2242 229.444 93.6938 230.005 93.0455 230.406C92.3972 230.806 91.8667 230.572 91.8667 229.886C91.8667 229.2 92.3972 228.638 93.0455 228.638C93.6938 228.638 94.2242 228.871 94.2242 229.158ZM211.509 231.781C211.509 234.937 210.329 235.405 209.277 232.666C208.215 229.9 208.397 229.03 210.035 229.03C210.846 229.03 211.509 230.268 211.509 231.781ZM305.219 231.134C305.219 231.782 304.688 231.985 304.04 231.584C303.392 231.184 302.861 230.326 302.861 229.677C302.861 229.029 303.392 228.827 304.04 229.227C304.688 229.628 305.219 230.486 305.219 231.134ZM311.112 230.406C311.112 231.378 310.582 232.174 309.934 232.174C309.285 232.174 308.755 231.378 308.755 230.406C308.755 229.433 309.285 228.638 309.934 228.638C310.582 228.638 311.112 229.433 311.112 230.406ZM4.63998 230.995C4.63998 231.643 4.40659 232.174 4.12015 232.174C3.83372 232.174 3.27264 231.643 2.87187 230.995C2.4711 230.347 2.70567 229.816 3.39169 229.816C4.07772 229.816 4.63998 230.347 4.63998 230.995ZM60.0407 230.262C60.0407 230.506 59.2333 231.377 58.2455 232.196C56.745 233.442 56.5717 233.369 57.1929 231.751C57.8271 230.099 60.0407 228.941 60.0407 230.262ZM190.291 230.995C190.692 231.643 190.458 232.174 189.772 232.174C189.086 232.174 188.523 231.643 188.523 230.995C188.523 230.347 188.757 229.816 189.043 229.816C189.33 229.816 189.891 230.347 190.291 230.995ZM360.619 230.869C360.619 231.448 359.851 232.216 358.911 232.577C357.769 233.015 357.42 232.666 357.859 231.524C358.574 229.66 360.619 229.174 360.619 230.869ZM173.2 232.174C173.2 232.822 172.637 233.352 171.951 233.352C171.265 233.352 171.031 232.822 171.432 232.174C171.832 231.525 172.394 230.995 172.68 230.995C172.966 230.995 173.2 231.525 173.2 232.174ZM101.297 233.352C101.297 234 100.501 234.531 99.5285 234.531C98.5561 234.531 97.7604 234 97.7604 233.352C97.7604 232.704 98.5561 232.174 99.5285 232.174C100.501 232.174 101.297 232.704 101.297 233.352ZM239.209 234.068C239.209 234.322 238.414 234.531 237.441 234.531C236.469 234.531 235.673 234.017 235.673 233.389C235.673 232.762 236.469 232.553 237.441 232.926C238.414 233.299 239.209 233.813 239.209 234.068ZM10.5337 234.531C10.5337 235.179 9.73803 235.709 8.76557 235.709C7.79311 235.709 6.99746 235.179 6.99746 234.531C6.99746 233.883 7.79311 233.352 8.76557 233.352C9.73803 233.352 10.5337 233.883 10.5337 234.531ZM94.2242 234.531C94.2242 235.179 93.6938 235.709 93.0455 235.709C92.3972 235.709 91.8667 235.179 91.8667 234.531C91.8667 233.883 92.3972 233.352 93.0455 233.352C93.6938 233.352 94.2242 233.883 94.2242 234.531ZM141.079 236.299C141.079 237.919 140.615 239.245 140.048 239.245C139.481 239.245 139.016 238.758 139.016 238.163C139.016 237.568 138.695 236.242 138.301 235.217C137.847 234.033 138.223 233.352 139.332 233.352C140.41 233.352 141.079 234.481 141.079 236.299ZM311.112 234.531C311.112 235.179 309.653 235.701 307.871 235.692C305.345 235.678 305.019 235.421 306.397 234.531C308.704 233.041 311.112 233.041 311.112 234.531ZM174.379 235.709C173.406 236.337 172.08 236.851 171.432 236.851C170.783 236.851 171.049 236.337 172.021 235.709C172.993 235.081 174.32 234.567 174.968 234.567C175.616 234.567 175.351 235.081 174.379 235.709ZM359.441 236.888C359.441 237.536 358.91 238.066 358.262 238.066C357.614 238.066 357.083 237.536 357.083 236.888C357.083 236.24 357.614 235.709 358.262 235.709C358.91 235.709 359.441 236.24 359.441 236.888ZM232.137 239.834C232.137 240.807 231.606 241.602 230.958 241.602C230.31 241.602 229.779 240.807 229.779 239.834C229.779 238.862 230.31 238.066 230.958 238.066C231.606 238.066 232.137 238.862 232.137 239.834ZM304.467 239.834C304.093 240.807 303.579 241.602 303.324 241.602C303.07 241.602 302.861 240.807 302.861 239.834C302.861 238.862 303.375 238.066 304.003 238.066C304.63 238.066 304.839 238.862 304.467 239.834ZM238.62 241.602C238.219 242.25 237.393 242.781 236.782 242.781C236.172 242.781 235.673 242.25 235.673 241.602C235.673 240.954 236.5 240.424 237.511 240.424C238.521 240.424 239.021 240.954 238.62 241.602ZM288.716 242.122C288.716 242.408 288.186 242.969 287.538 243.37C286.889 243.771 286.359 243.536 286.359 242.85C286.359 242.164 286.889 241.602 287.538 241.602C288.186 241.602 288.716 241.835 288.716 242.122ZM62.3982 245.138C62.3982 245.786 61.8678 246.316 61.2195 246.316C60.5712 246.316 60.0407 245.786 60.0407 245.138C60.0407 244.49 60.5712 243.959 61.2195 243.959C61.8678 243.959 62.3982 244.49 62.3982 245.138ZM217.571 245.727C218.544 246.699 218.836 247.495 218.221 247.495C217.605 247.495 216.442 246.699 215.634 245.727C214.827 244.755 214.535 243.959 214.985 243.959C215.435 243.959 216.599 244.755 217.571 245.727ZM73.0069 247.495C73.0069 248.143 72.4765 248.674 71.8281 248.674C71.1798 248.674 70.6494 248.143 70.6494 247.495C70.6494 246.847 71.1798 246.316 71.8281 246.316C72.4765 246.316 73.0069 246.847 73.0069 247.495ZM374.175 247.495C374.576 248.143 374.341 248.674 373.655 248.674C372.969 248.674 372.407 248.143 372.407 247.495C372.407 246.847 372.64 246.316 372.927 246.316C373.213 246.316 373.774 246.847 374.175 247.495ZM326.436 249.852C326.436 250.5 325.906 251.031 325.257 251.031C324.609 251.031 324.078 250.5 324.078 249.852C324.078 249.204 324.609 248.674 325.257 248.674C325.906 248.674 326.436 249.204 326.436 249.852ZM309.934 252.209C309.934 252.857 309.403 253.388 308.755 253.388C308.107 253.388 307.576 252.857 307.576 252.209C307.576 251.561 308.107 251.031 308.755 251.031C309.403 251.031 309.934 251.561 309.934 252.209ZM95.9923 253.388C96.3931 254.036 95.8933 254.566 94.8831 254.566C93.8729 254.566 93.0455 254.036 93.0455 253.388C93.0455 252.74 93.5441 252.209 94.1547 252.209C94.7653 252.209 95.5915 252.74 95.9923 253.388ZM220.776 253.977C220.036 255.903 217.992 256.408 217.992 254.664C217.992 253.77 218.818 253.161 221.197 252.302C221.338 252.252 221.149 253.005 220.776 253.977ZM249.818 257.208C249.818 257.699 249.287 258.102 248.639 258.102C247.991 258.102 247.46 257.54 247.46 256.854C247.46 256.168 246.93 255.933 246.282 256.334C245.633 256.735 245.103 256.232 245.103 255.216C245.103 253.662 245.479 253.603 247.46 254.84C248.757 255.649 249.818 256.715 249.818 257.208ZM179.953 255.278C179.561 255.669 178.544 255.712 177.694 255.371C176.754 254.995 177.033 254.716 178.406 254.659C179.649 254.609 180.344 254.887 179.953 255.278ZM181.451 258.102C181.451 258.75 180.921 259.281 180.272 259.281C179.624 259.281 179.093 258.75 179.093 258.102C179.093 257.454 179.624 256.923 180.272 256.923C180.921 256.923 181.451 257.454 181.451 258.102ZM135.48 260.459C135.48 261.107 134.95 261.638 134.301 261.638C133.653 261.638 133.123 261.107 133.123 260.459C133.123 259.811 133.653 259.281 134.301 259.281C134.95 259.281 135.48 259.811 135.48 260.459ZM176.268 261.079C175.037 261.992 173.57 262.456 173.006 262.108C171.37 261.097 172.785 259.812 175.762 259.607C178.387 259.426 178.409 259.488 176.268 261.079ZM161.412 261.638C161.412 262.286 160.617 262.816 159.644 262.816C158.672 262.816 157.876 262.286 157.876 261.638C157.876 260.99 158.672 260.459 159.644 260.459C160.617 260.459 161.412 260.99 161.412 261.638ZM69.4707 262.157C69.4707 262.444 68.9402 263.005 68.2919 263.406C67.6436 263.806 67.1132 263.572 67.1132 262.886C67.1132 262.2 67.6436 261.638 68.2919 261.638C68.9402 261.638 69.4707 261.871 69.4707 262.157ZM236.852 265.173C236.852 265.822 236.289 266.352 235.603 266.352C234.917 266.352 234.683 265.822 235.084 265.173C235.484 264.525 236.045 263.995 236.332 263.995C236.618 263.995 236.852 264.525 236.852 265.173ZM296.967 266.352C296.967 267 296.437 267.531 295.789 267.531C295.14 267.531 294.61 267 294.61 266.352C294.61 265.704 295.14 265.173 295.789 265.173C296.437 265.173 296.967 265.704 296.967 266.352ZM391.267 266.352C391.267 267 390.736 267.531 390.088 267.531C389.44 267.531 388.909 267 388.909 266.352C388.909 265.704 389.44 265.173 390.088 265.173C390.736 265.173 391.267 265.704 391.267 266.352ZM181.451 268.779C181.451 269.389 180.921 269.888 180.272 269.888C179.624 269.888 179.093 269.06 179.093 268.05C179.093 267.04 179.624 266.541 180.272 266.941C180.921 267.342 181.451 268.168 181.451 268.779ZM104.538 271.753C103.415 272.877 101.162 271.058 102 269.704C102.498 268.899 103.157 268.919 104.003 269.765C104.697 270.459 104.938 271.354 104.538 271.753ZM124.282 271.066C123.881 271.714 122.922 272.237 122.15 272.227C121.306 272.215 121.452 271.752 122.514 271.066C124.778 269.602 125.186 269.602 124.282 271.066ZM110.087 278.056C110.46 278.66 110.226 279.486 109.567 279.894C108.908 280.3 108.369 279.806 108.369 278.796C108.369 276.726 109.076 276.422 110.087 278.056ZM205.026 280.495C205.026 281.791 204.495 282.852 203.847 282.852C203.199 282.852 202.668 281.791 202.668 280.495C202.668 279.198 203.199 278.138 203.847 278.138C204.495 278.138 205.026 279.198 205.026 280.495ZM173.2 282.193C173.2 282.479 172.669 283.04 172.021 283.441C171.373 283.842 170.842 283.607 170.842 282.921C170.842 282.236 171.373 281.673 172.021 281.673C172.669 281.673 173.2 281.907 173.2 282.193ZM85.5062 287.247C84.3086 288.445 83.3197 286.641 84.3027 285.051C85.0454 283.849 85.3235 283.849 85.722 285.046C85.9954 285.865 85.8976 286.855 85.5062 287.247ZM386.674 286.736C385.161 288.25 383.627 287.081 384.747 285.268C385.181 284.567 386.075 284.326 386.736 284.734C387.541 285.231 387.521 285.89 386.674 286.736ZM32.9297 286.388C32.9297 287.036 32.3675 287.566 31.6814 287.566C30.9954 287.566 30.7609 287.036 31.1616 286.388C31.5624 285.739 32.1235 285.209 32.4099 285.209C32.6963 285.209 32.9297 285.739 32.9297 286.388ZM68.8341 290.332C70.3394 291.433 70.5893 292.178 69.6487 292.759C68.9025 293.221 68.2919 292.979 68.2919 292.224C68.2919 291.468 67.5128 291.149 66.5615 291.513C64.7145 292.223 63.1373 290.755 64.395 289.498C65.5019 288.391 66.413 288.562 68.8341 290.332ZM370.146 289.923C370.741 289.923 371.228 290.719 371.228 291.691C371.228 292.663 370.698 293.459 370.049 293.459C369.401 293.459 368.871 292.945 368.871 292.317C368.871 291.69 368.075 291.481 367.102 291.854C365.954 292.295 365.334 291.824 365.334 290.513C365.334 289.155 365.946 288.727 367.199 289.208C368.225 289.602 369.551 289.923 370.146 289.923ZM54.859 295.497C53.6614 296.695 52.6724 294.891 53.6555 293.301C54.3981 292.099 54.6763 292.099 55.0747 293.296C55.3482 294.115 55.2504 295.105 54.859 295.497ZM357.083 294.048C357.083 295.021 356.288 295.816 355.315 295.816C353.474 295.816 352.976 294.422 354.333 293.067C355.689 291.71 357.083 292.207 357.083 294.048ZM175.719 294.284C174.362 294.824 174.362 295.082 175.719 295.941C176.661 296.537 176.776 296.966 175.996 296.977C175.265 296.986 174.007 296.199 173.2 295.227C171.963 293.738 172.173 293.473 174.529 293.552C176.077 293.604 176.607 293.93 175.719 294.284ZM361.798 300.53C361.798 301.179 361.268 301.709 360.619 301.709C359.971 301.709 359.441 301.179 359.441 300.53C359.441 299.882 359.971 299.352 360.619 299.352C361.268 299.352 361.798 299.882 361.798 300.53ZM128.997 306.423C129.398 307.071 128.867 307.602 127.818 307.602C126.769 307.602 126.239 307.071 126.64 306.423C127.04 305.775 127.571 305.245 127.818 305.245C128.066 305.245 128.596 305.775 128.997 306.423ZM282.823 307.602C282.823 308.25 282.292 308.78 281.644 308.78C280.996 308.78 280.465 308.25 280.465 307.602C280.465 306.954 280.996 306.423 281.644 306.423C282.292 306.423 282.823 306.954 282.823 307.602ZM322.9 307.602C322.9 308.25 322.369 308.78 321.721 308.78C321.073 308.78 320.542 308.25 320.542 307.602C320.542 306.954 321.073 306.423 321.721 306.423C322.369 306.423 322.9 306.954 322.9 307.602ZM166.127 308.78C166.127 309.429 165.597 309.959 164.949 309.959C164.3 309.959 163.77 309.429 163.77 308.78C163.77 308.132 164.3 307.602 164.949 307.602C165.597 307.602 166.127 308.132 166.127 308.78ZM192.06 308.78C192.06 309.429 191.529 309.959 190.881 309.959C190.233 309.959 189.702 309.429 189.702 308.78C189.702 308.132 190.233 307.602 190.881 307.602C191.529 307.602 192.06 308.132 192.06 308.78ZM120.156 309.959C120.156 310.607 119.594 311.137 118.908 311.137C118.222 311.137 117.988 310.607 118.388 309.959C118.789 309.311 119.35 308.78 119.637 308.78C119.923 308.78 120.156 309.311 120.156 309.959ZM335.866 311.137C335.866 311.786 335.304 312.316 334.618 312.316C333.932 312.316 333.697 311.786 334.098 311.137C334.499 310.489 335.06 309.959 335.346 309.959C335.632 309.959 335.866 310.489 335.866 311.137ZM5.96488 313.809C4.80029 314.964 4.66591 314.829 5.30479 313.149C5.74799 311.987 6.40691 311.333 6.76996 311.696C7.13301 312.058 6.77114 313.009 5.96488 313.809ZM308.737 312.021C308.727 312.508 308.204 313.701 307.576 314.673C306.652 316.103 306.43 315.933 306.415 313.789C306.406 312.33 306.928 311.137 307.576 311.137C308.224 311.137 308.747 311.535 308.737 312.021ZM226.243 313.425C226.243 314.036 225.713 314.862 225.064 315.262C224.416 315.663 223.886 315.163 223.886 314.153C223.886 313.143 224.416 312.316 225.064 312.316C225.713 312.316 226.243 312.815 226.243 313.425ZM272.803 313.495C273.204 314.143 272.704 314.673 271.694 314.673C270.684 314.673 269.856 314.143 269.856 313.495C269.856 312.846 270.355 312.316 270.966 312.316C271.576 312.316 272.402 312.846 272.803 313.495ZM2.69388 317.657C1.75914 320.093 1.10376 319.807 1.10376 316.961C1.10376 315.627 1.61062 314.848 2.23063 315.231C2.85065 315.614 3.05929 316.706 2.69388 317.657ZM303.005 317.826C301.615 320.215 301.28 319.45 302.418 316.487C302.821 315.433 303.401 314.819 303.704 315.123C304.008 315.426 303.693 316.643 303.005 317.826ZM17.3362 317.252C17.0792 318.021 16.2388 318.861 15.4691 319.117C14.6074 319.405 14.3445 318.865 14.7842 317.719C15.607 315.576 18.0434 315.13 17.3362 317.252ZM159.86 318.43C159.484 319.37 159.205 319.09 159.148 317.717C159.097 316.475 159.376 315.78 159.767 316.171C160.158 316.562 160.201 317.579 159.86 318.43ZM278.745 317.109C279.955 319.066 278.869 319.337 277.178 317.501C276.341 316.594 276.177 315.852 276.813 315.852C277.449 315.852 278.319 316.417 278.745 317.109ZM317.5 318.623C317.092 319.684 316.289 320.262 315.715 319.907C315.141 319.552 315.33 318.548 316.134 317.676C317.942 315.713 318.475 316.083 317.5 318.623ZM45.3065 318.209C45.7073 318.857 45.4727 319.387 44.7867 319.387C44.1007 319.387 43.5384 318.857 43.5384 318.209C43.5384 317.561 43.7718 317.03 44.0582 317.03C44.3447 317.03 44.9057 317.561 45.3065 318.209ZM284.441 317.726C286.002 318.324 285.936 318.762 283.961 320.881C281.32 323.715 279.897 323.034 281.026 319.476C281.89 316.755 281.9 316.75 284.441 317.726ZM347.013 318.128C347.387 318.731 347.152 319.557 346.493 319.965C345.834 320.371 345.296 319.878 345.296 318.868C345.296 316.797 346.003 316.493 347.013 318.128ZM166.127 320.566C166.127 321.214 165.597 321.745 164.949 321.745C164.3 321.745 163.77 321.214 163.77 320.566C163.77 319.918 164.3 319.387 164.949 319.387C165.597 319.387 166.127 319.918 166.127 320.566ZM181.451 320.566C181.451 321.214 180.889 321.745 180.203 321.745C179.517 321.745 179.282 321.214 179.683 320.566C180.084 319.918 180.645 319.387 180.931 319.387C181.218 319.387 181.451 319.918 181.451 320.566ZM263.963 321.155C263.963 322.128 263.432 322.923 262.784 322.923C262.136 322.923 261.605 322.128 261.605 321.155C261.605 320.183 262.136 319.387 262.784 319.387C263.432 319.387 263.963 320.183 263.963 321.155ZM276.659 320.788C276.402 321.557 275.562 322.396 274.792 322.653C273.93 322.941 273.667 322.401 274.107 321.254C274.93 319.112 277.366 318.666 276.659 320.788ZM240.014 323.145C239.638 324.084 239.359 323.805 239.302 322.432C239.252 321.189 239.53 320.494 239.921 320.885C240.312 321.277 240.355 322.294 240.014 323.145ZM170.842 322.264C170.842 323.508 168.58 324.031 167.907 322.942C167.501 322.283 167.994 321.745 169.005 321.745C170.015 321.745 170.842 321.978 170.842 322.264ZM215.634 322.923C215.634 323.571 215.401 324.102 215.115 324.102C214.828 324.102 214.267 323.571 213.866 322.923C213.466 322.275 213.7 321.745 214.386 321.745C215.072 321.745 215.634 322.275 215.634 322.923ZM69.4707 324.691C69.4707 325.663 68.9402 326.459 68.2919 326.459C67.6436 326.459 67.1132 325.663 67.1132 324.691C67.1132 323.719 67.6436 322.923 68.2919 322.923C68.9402 322.923 69.4707 323.719 69.4707 324.691ZM304.335 323.703C303.525 324.031 302.199 324.031 301.388 323.703C300.578 323.377 301.24 323.109 302.861 323.109C304.482 323.109 305.146 323.377 304.335 323.703ZM370.933 325.967C369.81 327.091 367.557 325.272 368.396 323.918C368.893 323.113 369.552 323.133 370.398 323.979C371.092 324.673 371.333 325.568 370.933 325.967ZM248.605 325.234C249.559 325.838 249.979 326.69 249.54 327.129C248.461 328.208 245.103 326.836 245.103 325.317C245.103 323.82 246.323 323.792 248.605 325.234ZM271.84 326.68C271.464 327.62 271.185 327.34 271.128 325.967C271.078 324.725 271.356 324.03 271.747 324.421C272.138 324.812 272.181 325.829 271.84 326.68ZM23.4998 325.732C23.4998 326.778 18.7306 327.325 18.1271 326.348C17.7641 325.761 18.8249 325.28 20.4834 325.28C22.1419 325.28 23.4998 325.484 23.4998 325.732ZM257.809 326.651C257.557 327.404 256.49 328.148 255.435 328.302C254.216 328.481 253.748 327.982 254.151 326.931C254.91 324.954 258.465 324.68 257.809 326.651ZM322.9 326.459C320.614 327.936 319.363 327.936 319.363 326.459C319.363 325.811 320.556 325.288 322.016 325.298C324.16 325.313 324.33 325.535 322.9 326.459ZM207.383 327.637C207.383 328.286 206.853 328.816 206.204 328.816C205.556 328.816 205.026 328.286 205.026 327.637C205.026 326.989 205.556 326.459 206.204 326.459C206.853 326.459 207.383 326.989 207.383 327.637ZM240.388 327.637C240.388 328.286 239.857 328.816 239.209 328.816C238.561 328.816 238.03 328.286 238.03 327.637C238.03 326.989 238.561 326.459 239.209 326.459C239.857 326.459 240.388 326.989 240.388 327.637ZM261.605 328.816C261.605 329.464 261.075 329.994 260.427 329.994C259.778 329.994 259.248 329.464 259.248 328.816C259.248 328.168 259.778 327.637 260.427 327.637C261.075 327.637 261.605 328.168 261.605 328.816ZM220.349 339.423C220.349 341.542 218.169 340.659 217.397 338.227C216.983 336.921 216.158 336.154 215.562 336.52C214.968 336.888 214.783 336.406 215.15 335.45C215.706 334 216.192 334.088 218.083 335.978C219.33 337.225 220.349 338.775 220.349 339.423ZM301.682 334.709C301.682 335.357 301.152 335.887 300.504 335.887C299.855 335.887 299.325 335.357 299.325 334.709C299.325 334.061 299.855 333.53 300.504 333.53C301.152 333.53 301.682 334.061 301.682 334.709ZM254.533 337.155C254.533 337.713 253.737 337.865 252.765 337.492C251.792 337.119 250.997 336.356 250.997 335.798C250.997 335.24 251.792 335.088 252.765 335.461C253.737 335.834 254.533 336.597 254.533 337.155ZM15.2486 337.066C15.2486 337.714 16.1327 338.244 17.2136 338.244C18.2933 338.244 18.8638 338.558 18.4807 338.941C17.4977 339.925 12.8912 338.314 12.8912 336.987C12.8912 336.382 13.4216 335.887 14.0699 335.887C14.7182 335.887 15.2486 336.418 15.2486 337.066ZM69.4707 337.517C69.4707 338.414 68.3002 339.454 66.8704 339.828C63.4626 340.719 63.0324 340.135 65.3734 337.795C67.712 335.457 69.4707 335.338 69.4707 337.517ZM234.494 338.314C234.494 338.924 233.964 339.423 233.316 339.423C232.667 339.423 232.137 338.596 232.137 337.586C232.137 336.576 232.667 336.076 233.316 336.477C233.964 336.877 234.494 337.703 234.494 338.314ZM318.772 339.23C317.928 340.072 314.649 338.373 314.649 337.093C314.649 336.318 315.494 336.395 316.953 337.306C318.22 338.097 319.038 338.962 318.772 339.23ZM370.049 337.517C370.049 338.414 368.988 339.425 367.692 339.765C366.205 340.154 365.334 339.8 365.334 338.81C365.334 337.946 366.263 336.996 367.397 336.699C368.531 336.404 369.593 336.099 369.755 336.024C369.916 335.949 370.049 336.622 370.049 337.517ZM48.2534 339.493C48.2534 340.103 47.7229 340.602 47.0746 340.602C46.4263 340.602 45.8959 339.774 45.8959 338.764C45.8959 337.754 46.4263 337.254 47.0746 337.655C47.7229 338.056 48.2534 338.882 48.2534 339.493ZM176.736 338.244C176.736 338.893 176.206 339.423 175.557 339.423C174.909 339.423 174.379 338.893 174.379 338.244C174.379 337.596 174.909 337.066 175.557 337.066C176.206 337.066 176.736 337.596 176.736 338.244ZM348.365 340.282C347.168 341.481 346.179 339.676 347.162 338.086C347.904 336.884 348.182 336.884 348.581 338.082C348.854 338.901 348.757 339.891 348.365 340.282ZM260.427 338.764C260.427 339.051 259.896 339.612 259.248 340.012C258.599 340.413 258.069 340.178 258.069 339.493C258.069 338.807 258.599 338.244 259.248 338.244C259.896 338.244 260.427 338.478 260.427 338.764ZM110.727 340.602C110.727 341.25 110.196 341.78 109.548 341.78C108.9 341.78 108.369 341.25 108.369 340.602C108.369 339.953 108.9 339.423 109.548 339.423C110.196 339.423 110.727 339.953 110.727 340.602ZM219.171 342.3C219.171 342.586 218.64 343.147 217.992 343.548C217.344 343.949 216.813 343.714 216.813 343.028C216.813 342.342 217.344 341.78 217.992 341.78C218.64 341.78 219.171 342.013 219.171 342.3ZM205.831 345.537C205.455 346.477 205.175 346.197 205.119 344.824C205.068 343.582 205.346 342.887 205.738 343.278C206.129 343.669 206.171 344.686 205.831 345.537ZM236.123 344.788C236.525 345.837 236.327 346.309 235.66 345.897C235.019 345.501 234.494 344.678 234.494 344.068C234.494 342.373 235.339 342.747 236.123 344.788ZM10.5337 347.673C10.5337 348.321 10.0032 348.852 9.35494 348.852C8.70663 348.852 8.1762 348.321 8.1762 347.673C8.1762 347.025 8.70663 346.494 9.35494 346.494C10.0032 346.494 10.5337 347.025 10.5337 347.673ZM71.2388 347.673C71.6395 348.321 71.405 348.852 70.7189 348.852C70.0329 348.852 69.4707 348.321 69.4707 347.673C69.4707 347.025 69.7041 346.494 69.9905 346.494C70.2769 346.494 70.838 347.025 71.2388 347.673ZM311.112 347.673C311.112 348.321 310.582 348.852 309.934 348.852C309.285 348.852 308.755 348.321 308.755 347.673C308.755 347.025 309.285 346.494 309.934 346.494C310.582 346.494 311.112 347.025 311.112 347.673ZM371.817 347.673C372.218 348.321 371.984 348.852 371.298 348.852C370.612 348.852 370.049 348.321 370.049 347.673C370.049 347.025 370.283 346.494 370.569 346.494C370.856 346.494 371.417 347.025 371.817 347.673ZM221.528 350.03C221.528 350.678 220.966 351.209 220.28 351.209C219.594 351.209 219.359 350.678 219.76 350.03C220.161 349.382 220.722 348.852 221.008 348.852C221.295 348.852 221.528 349.382 221.528 350.03ZM184.987 352.976C184.987 353.949 184.192 354.744 183.219 354.744C181.378 354.744 180.88 353.35 182.237 351.995C183.593 350.638 184.987 351.136 184.987 352.976ZM224.475 353.566C224.876 354.214 224.345 354.744 223.296 354.744C222.247 354.744 221.717 354.214 222.117 353.566C222.518 352.918 223.049 352.387 223.296 352.387C223.544 352.387 224.074 352.918 224.475 353.566ZM169.664 355.923C169.664 356.571 169.133 357.101 168.485 357.101C167.837 357.101 167.306 356.571 167.306 355.923C167.306 355.275 167.837 354.744 168.485 354.744C169.133 354.744 169.664 355.275 169.664 355.923ZM173.2 357.101C173.2 357.75 172.669 358.28 172.021 358.28C171.373 358.28 170.842 357.75 170.842 357.101C170.842 356.453 171.373 355.923 172.021 355.923C172.669 355.923 173.2 356.453 173.2 357.101ZM192.06 357.101C192.06 357.75 191.529 358.28 190.881 358.28C190.233 358.28 189.702 357.75 189.702 357.101C189.702 356.453 190.233 355.923 190.881 355.923C191.529 355.923 192.06 356.453 192.06 357.101ZM206.204 361.157C206.204 362.926 204.089 364.807 203.152 363.87C202.329 363.049 203.957 359.459 205.152 359.459C205.731 359.459 206.204 360.222 206.204 361.157ZM151.982 364.173C151.982 364.821 151.452 365.351 150.804 365.351C150.155 365.351 149.625 364.821 149.625 364.173C149.625 363.525 150.155 362.994 150.804 362.994C151.452 362.994 151.982 363.525 151.982 364.173ZM121.335 370.066C121.335 370.714 121.102 371.244 120.815 371.244C120.529 371.244 119.968 370.714 119.567 370.066C119.166 369.417 119.401 368.887 120.087 368.887C120.773 368.887 121.335 369.417 121.335 370.066ZM85.973 374.78C85.973 375.428 85.4426 375.958 84.7943 375.958C84.146 375.958 83.6155 375.428 83.6155 374.78C83.6155 374.132 84.146 373.601 84.7943 373.601C85.4426 373.601 85.973 374.132 85.973 374.78ZM386.552 374.78C386.552 375.428 386.021 375.958 385.373 375.958C384.725 375.958 384.194 375.428 384.194 374.78C384.194 374.132 384.725 373.601 385.373 373.601C386.021 373.601 386.552 374.132 386.552 374.78ZM245.103 380.673C245.103 381.321 244.307 381.851 243.335 381.851C242.362 381.851 241.567 381.321 241.567 380.673C241.567 380.025 242.362 379.494 243.335 379.494C244.307 379.494 245.103 380.025 245.103 380.673ZM27.036 382.371C27.036 382.657 26.5056 383.218 25.8573 383.619C25.209 384.02 24.6786 383.785 24.6786 383.099C24.6786 382.413 25.209 381.851 25.8573 381.851C26.5056 381.851 27.036 382.085 27.036 382.371ZM159.055 383.03C159.055 383.678 158.524 384.208 157.876 384.208C157.228 384.208 156.697 383.678 156.697 383.03C156.697 382.382 157.228 381.851 157.876 381.851C158.524 381.851 159.055 382.382 159.055 383.03ZM327.615 383.03C327.615 383.678 327.052 384.208 326.366 384.208C325.68 384.208 325.446 383.678 325.847 383.03C326.247 382.382 326.808 381.851 327.095 381.851C327.381 381.851 327.615 382.382 327.615 383.03ZM30.5723 384.208C30.5723 384.857 30.0418 385.387 29.3935 385.387C28.7452 385.387 28.2148 384.857 28.2148 384.208C28.2148 383.56 28.7452 383.03 29.3935 383.03C30.0418 383.03 30.5723 383.56 30.5723 384.208ZM78.9006 385.387C78.9006 386.035 78.3702 386.566 77.7218 386.566C77.0735 386.566 76.5431 386.035 76.5431 385.387C76.5431 384.739 77.0735 384.208 77.7218 384.208C78.3702 384.208 78.9006 384.739 78.9006 385.387ZM292.253 385.387C292.253 386.035 291.722 386.566 291.074 386.566C290.425 386.566 289.895 386.035 289.895 385.387C289.895 384.739 290.425 384.208 291.074 384.208C291.722 384.208 292.253 384.739 292.253 385.387ZM379.479 385.387C379.479 386.035 378.917 386.566 378.231 386.566C377.545 386.566 377.31 386.035 377.711 385.387C378.112 384.739 378.673 384.208 378.959 384.208C379.246 384.208 379.479 384.739 379.479 385.387ZM126.05 386.566C126.05 387.214 125.255 387.744 124.282 387.744C123.31 387.744 122.514 387.214 122.514 386.566C122.514 385.917 123.31 385.387 124.282 385.387C125.255 385.387 126.05 385.917 126.05 386.566ZM177.915 388.264C177.915 388.55 177.384 389.111 176.736 389.512C176.088 389.913 175.557 389.678 175.557 388.992C175.557 388.306 176.088 387.744 176.736 387.744C177.384 387.744 177.915 387.978 177.915 388.264ZM236.852 392.458C236.852 393.107 236.321 393.637 235.673 393.637C235.025 393.637 234.494 393.107 234.494 392.458C234.494 391.81 235.025 391.28 235.673 391.28C236.321 391.28 236.852 391.81 236.852 392.458ZM144.591 394.349C144.199 394.74 143.182 394.783 142.332 394.442C141.391 394.066 141.671 393.787 143.044 393.73C144.286 393.679 144.982 393.958 144.591 394.349Z" fill="black"/>
</mask>
<g mask="url(#mask0_140_72)">
<path d="M290.918 229.839C292.717 230.629 294.29 231.321 295.864 232.013C302.382 234.979 308.339 238.735 312.835 243.974C319.016 250.992 319.69 258.9 314.633 266.709C312.048 270.762 308.451 273.925 304.293 276.693C296.088 282.031 286.872 285.392 277.207 288.061C263.046 291.916 248.547 293.992 233.824 294.684C217.865 295.474 202.018 294.783 186.171 292.608C174.707 291.125 163.355 288.753 152.678 284.403C148.52 282.723 144.361 280.548 140.765 277.978C131.436 271.158 129.413 260.581 135.37 251.19C138.292 246.544 142.451 242.689 147.059 239.328C158.073 231.321 170.773 226.28 184.26 222.623C202.804 217.581 221.686 215.505 241.017 216.098C253.83 216.494 266.642 217.581 279.005 220.744C282.714 221.634 286.198 223.018 289.795 224.204C290.694 224.501 291.48 224.995 292.267 225.489C294.29 226.873 294.178 228.059 291.93 229.344C291.705 229.542 291.368 229.641 290.918 229.839ZM235.847 221.041C235.847 220.942 235.847 220.843 235.847 220.744C235.173 220.744 234.386 220.646 233.712 220.646C218.089 220.744 202.692 222.721 187.632 226.675C174.594 230.036 162.119 234.781 151.442 242.392C147.171 245.457 143.237 248.818 140.428 253.068C135.258 260.976 136.944 269.576 145.036 275.112C148.07 277.187 151.442 278.868 154.926 280.252C164.367 284.107 174.37 286.183 184.485 287.764C199.095 290.038 213.819 290.631 228.542 290.334C245.85 289.939 262.933 287.567 279.342 282.624C287.097 280.252 294.515 277.385 301.146 273.135C305.192 270.466 308.676 267.302 310.924 263.25C313.396 258.703 313.621 254.057 310.699 249.608C309.575 247.928 308.114 246.247 306.653 244.864C301.82 240.317 295.976 237.153 289.457 234.682C281.365 231.618 273.048 229.344 264.394 227.862C252.93 225.786 241.354 224.797 229.778 226.873C229.216 226.972 228.429 227.17 227.98 226.972C227.193 226.576 226.182 226.082 225.957 225.489C225.732 224.896 226.406 223.908 226.968 223.413C227.643 222.919 228.654 222.721 229.553 222.524C231.689 221.832 233.712 221.436 235.847 221.041ZM271.812 224.204C277.319 225.786 282.714 227.268 288.221 228.85C283.163 225.983 277.656 224.797 271.812 224.204Z" fill="#5F9EA0"/>
</g>
</svg>
