<svg width="598" height="356" viewBox="0 0 598 356" fill="none" xmlns="http://www.w3.org/2000/svg">
<mask id="mask0_140_73" style="mask-type:alpha" maskUnits="userSpaceOnUse" x="0" y="0" width="598" height="356">
<path fill-rule="evenodd" clip-rule="evenodd" d="M0.0302799 42.0692C-0.0587209 74.4311 0.423663 84.3281 2.12536 85.0464C3.85375 85.7754 3.86265 86.0943 2.1663 86.5054C0.475284 86.9165 -0.00354036 116.699 1.96685e-05 221.517L0.00535971 356L298.989 355.985L597.973 355.971V292.412C597.973 243.684 597.475 228.853 595.837 228.853C594.176 228.853 594.176 228.57 595.837 227.581C598.767 225.837 598.692 212.276 595.748 211.458C594.002 210.973 593.993 210.709 595.709 210.231C597.414 209.755 597.906 186.587 597.947 104.81L598 0L299.073 0.0127142L0.145981 0.0254284L0.0302799 42.0692ZM195.69 4.70214C195.69 4.9596 194.889 5.46393 193.91 5.82417C192.931 6.1844 192.13 5.97356 192.13 5.35692C192.13 4.74028 192.931 4.23489 193.91 4.23489C194.889 4.23489 195.69 4.44468 195.69 4.70214ZM289.326 8.18583C287.517 9.26336 286.024 7.64124 287.508 6.21195C288.63 5.13124 289.05 5.13124 289.651 6.20771C290.064 6.94408 289.917 7.83407 289.326 8.18583ZM250.87 7.41344C250.87 7.99618 250.069 8.47296 249.09 8.47296C248.111 8.47296 247.31 7.99618 247.31 7.41344C247.31 6.83071 248.111 6.35393 249.09 6.35393C250.069 6.35393 250.87 6.83071 250.87 7.41344ZM257.99 7.41344C257.99 7.99618 257.189 8.47296 256.21 8.47296C255.231 8.47296 254.43 7.99618 254.43 7.41344C254.43 6.83071 255.231 6.35393 256.21 6.35393C257.189 6.35393 257.99 6.83071 257.99 7.41344ZM181.45 8.47296C181.45 9.0557 181.097 9.53248 180.665 9.53248C180.232 9.53248 179.385 9.0557 178.779 8.47296C178.174 7.89023 178.529 7.41344 179.564 7.41344C180.6 7.41344 181.45 7.89023 181.45 8.47296ZM507.192 9.53248C507.192 10.1152 506.84 10.592 506.407 10.592C505.975 10.592 505.128 10.1152 504.522 9.53248C503.917 8.94974 504.271 8.47296 505.307 8.47296C506.343 8.47296 507.192 8.94974 507.192 9.53248ZM9.00868 11.9344C7.25003 12.9727 7.0471 12.8509 8.01187 11.3411C8.68116 10.2964 9.67619 9.70836 10.2244 10.0347C10.7727 10.36 10.2262 11.215 9.00868 11.9344ZM341.651 11.1218C341.651 11.9959 340.85 12.711 339.871 12.711C338.892 12.711 338.091 11.9959 338.091 11.1218C338.091 10.2477 338.892 9.53248 339.871 9.53248C340.85 9.53248 341.651 10.2477 341.651 11.1218ZM411.072 11.1843C411.072 12.0923 410.271 12.5415 409.292 12.1813C408.313 11.821 407.512 11.0783 407.512 10.5295C407.512 9.98065 408.313 9.53248 409.292 9.53248C410.271 9.53248 411.072 10.2763 411.072 11.1843ZM466.252 10.5295C466.252 11.0783 465.451 11.821 464.472 12.1813C463.493 12.5415 462.692 12.0923 462.692 11.1843C462.692 10.2763 463.493 9.53248 464.472 9.53248C465.451 9.53248 466.252 9.98065 466.252 10.5295ZM5.22793 13.708C5.22793 14.2569 4.42692 14.9996 3.44791 15.3598C2.4689 15.7201 1.66789 15.2708 1.66789 14.3628C1.66789 13.4548 2.4689 12.711 3.44791 12.711C4.42692 12.711 5.22793 13.1592 5.22793 13.708ZM420.673 14.3893C421.337 15.4202 420.94 15.9055 419.639 15.647C416.978 15.1193 415.513 12.711 417.853 12.711C418.809 12.711 420.077 13.4665 420.673 14.3893ZM457.573 15.113C455.814 16.1513 455.611 16.0294 456.576 14.5196C457.245 13.4749 458.24 12.8869 458.788 13.2132C459.337 13.5385 458.79 14.3935 457.573 15.113ZM26.1805 15.0293C25.7925 15.7211 24.5037 16.4003 23.3164 16.5391C22.131 16.6768 21.985 16.5465 22.9943 16.2498C24.0035 15.9521 24.3773 15.2729 23.8238 14.74C23.2702 14.2071 23.733 13.7705 24.8508 13.7705C25.9705 13.7705 26.5685 14.3363 26.1805 15.0293ZM479.675 15.8186C479.031 16.4405 477.717 16.9491 476.758 16.9491C475.797 16.9491 476.044 16.2816 477.308 15.4668C479.862 13.8161 481.501 14.0598 479.675 15.8186ZM69.3085 15.8896C69.3085 16.4723 68.5075 16.9491 67.5285 16.9491C66.5495 16.9491 65.7485 16.4723 65.7485 15.8896C65.7485 15.3068 66.5495 14.8301 67.5285 14.8301C68.5075 14.8301 69.3085 15.3068 69.3085 15.8896ZM429.571 15.4626C431.948 16.0061 431.987 16.306 429.844 17.5816C428.469 18.3996 426.488 19.0681 425.438 19.0681C423.336 19.0681 422.845 16.6524 424.719 15.5368C426.161 14.6775 426.134 14.6775 429.571 15.4626ZM524.103 15.8896C524.708 16.4723 524.402 16.9491 523.423 16.9491C522.444 16.9491 521.148 16.4723 520.543 15.8896C519.937 15.3068 520.244 14.8301 521.223 14.8301C522.202 14.8301 523.497 15.3068 524.103 15.8896ZM14.128 18.2512C14.128 18.8721 12.9977 18.7694 11.458 18.0086C9.98947 17.2828 8.78796 16.5242 8.78796 16.3229C8.78796 16.1216 9.98947 16.2307 11.458 16.5656C12.9265 16.9014 14.128 17.66 14.128 18.2512ZM467.215 17.0201C469.041 18.7789 467.402 19.0226 464.848 17.3718C463.584 16.5571 463.336 15.8896 464.298 15.8896C465.257 15.8896 466.571 16.3982 467.215 17.0201ZM250.87 18.0086C250.87 18.5914 250.069 19.0681 249.09 19.0681C248.111 19.0681 247.31 18.5914 247.31 18.0086C247.31 17.4259 248.111 16.9491 249.09 16.9491C250.069 16.9491 250.87 17.4259 250.87 18.0086ZM274.01 18.0086C274.01 18.5914 273.209 19.0681 272.23 19.0681C271.251 19.0681 270.45 18.5914 270.45 18.0086C270.45 17.4259 271.251 16.9491 272.23 16.9491C273.209 16.9491 274.01 17.4259 274.01 18.0086ZM398.611 18.5384C398.611 19.4125 397.81 20.1277 396.831 20.1277C395.852 20.1277 395.051 19.4125 395.051 18.5384C395.051 17.6643 395.852 16.9491 396.831 16.9491C397.81 16.9491 398.611 17.6643 398.611 18.5384ZM417.784 18.2078C417.396 18.8997 416.107 19.5788 414.92 19.7176C413.734 19.8554 413.589 19.725 414.598 19.4284C415.607 19.1306 415.981 18.4515 415.427 17.9186C414.874 17.3856 415.337 16.9491 416.454 16.9491C417.574 16.9491 418.172 17.5149 417.784 18.2078ZM257.99 19.0681C257.99 19.6509 256.741 20.1277 255.215 20.1277C253.69 20.1277 252.935 19.6509 253.54 19.0681C254.145 18.4854 255.393 18.0086 256.315 18.0086C257.237 18.0086 257.99 18.4854 257.99 19.0681ZM325.631 20.1277C325.631 20.7104 325.278 21.1872 324.846 21.1872C324.413 21.1872 323.566 20.7104 322.961 20.1277C322.356 19.5449 322.71 19.0681 323.746 19.0681C324.782 19.0681 325.631 19.5449 325.631 20.1277ZM460.912 20.0344C460.912 21.1109 456.361 20.9498 454.436 19.8056C453.756 19.3998 454.935 19.0681 457.055 19.0681C459.177 19.0681 460.912 19.5025 460.912 20.0344ZM570.383 20.1277C570.988 20.7104 570.634 21.1872 569.598 21.1872C568.562 21.1872 567.713 20.7104 567.713 20.1277C567.713 19.5449 568.065 19.0681 568.498 19.0681C568.931 19.0681 569.778 19.5449 570.383 20.1277ZM104.909 21.7794C104.909 22.6874 104.108 23.1367 103.129 22.7764C102.15 22.4162 101.349 21.6735 101.349 21.1247C101.349 20.5758 102.15 20.1277 103.129 20.1277C104.108 20.1277 104.909 20.8714 104.909 21.7794ZM560.593 21.1872C560.593 21.7699 559.792 22.2467 558.813 22.2467C557.834 22.2467 557.033 21.7699 557.033 21.1872C557.033 20.6044 557.834 20.1277 558.813 20.1277C559.792 20.1277 560.593 20.6044 560.593 21.1872ZM32.8182 22.2467C35.9724 23.054 35.8211 23.1653 31.4832 23.232C28.7918 23.2723 26.5881 22.8294 26.5881 22.2467C26.5881 21.0028 27.957 21.0028 32.8182 22.2467ZM375.42 22.2054C376.86 22.7478 377.351 23.5743 376.511 24.0436C375.671 24.5119 374.615 24.2799 374.165 23.5266C373.529 22.4649 372.776 22.4385 370.808 23.4122C368.753 24.4261 368.483 24.3339 369.391 22.9258C370.671 20.9424 371.73 20.8163 375.42 22.2054ZM389.379 23.2405C389.824 24.0352 389.156 24.4325 387.821 24.1676C386.536 23.9122 385.133 23.0774 384.706 22.3134C384.261 21.5188 384.929 21.1215 386.264 21.3864C387.547 21.6406 388.95 22.4755 389.379 23.2405ZM410.507 23.5054C409.939 24.3498 409.518 24.0987 409.432 22.8644C409.356 21.7477 409.776 21.1225 410.367 21.4743C410.958 21.8261 411.022 22.7404 410.507 23.5054ZM487.612 22.2467C489.771 23.0774 489.515 23.2765 486.277 23.2903C484.074 23.2988 482.272 22.8294 482.272 22.2467C482.272 20.9191 484.161 20.9191 487.612 22.2467ZM437.772 23.3062C437.772 23.8889 436.971 24.3657 435.992 24.3657C435.013 24.3657 434.212 23.8889 434.212 23.3062C434.212 22.7235 435.013 22.2467 435.992 22.2467C436.971 22.2467 437.772 22.7235 437.772 23.3062ZM313.171 24.3657C313.171 24.9485 312.818 25.4252 312.386 25.4252C311.953 25.4252 311.106 24.9485 310.501 24.3657C309.895 23.783 310.25 23.3062 311.286 23.3062C312.322 23.3062 313.171 23.783 313.171 24.3657ZM363.011 24.3657C363.011 24.9485 362.21 25.4252 361.231 25.4252C360.252 25.4252 359.451 24.9485 359.451 24.3657C359.451 23.783 360.252 23.3062 361.231 23.3062C362.21 23.3062 363.011 23.783 363.011 24.3657ZM110.858 25.7696C111.502 25.386 112.029 25.6287 112.029 26.3078C112.029 27.7255 111.596 27.7858 107.725 26.9011C106.176 26.5473 104.909 25.7738 104.909 25.1826C104.909 24.5056 105.795 24.5448 107.298 25.2864C108.611 25.9349 110.213 26.1531 110.858 25.7696ZM385.808 27.0421C385.26 27.3684 384.265 26.7804 383.595 25.7357C382.63 24.2259 382.833 24.104 384.592 25.1423C385.81 25.8618 386.356 26.7168 385.808 27.0421ZM395.051 24.833C395.051 25.0904 394.25 25.5948 393.271 25.955C392.292 26.3152 391.491 26.1044 391.491 25.4878C391.491 24.8711 392.292 24.3657 393.271 24.3657C394.25 24.3657 395.051 24.5755 395.051 24.833ZM45.2783 26.4848C45.8835 27.0675 45.5293 27.5443 44.4933 27.5443C43.4573 27.5443 42.6083 27.0675 42.6083 26.4848C42.6083 25.902 42.9607 25.4252 43.3933 25.4252C43.8258 25.4252 44.6731 25.902 45.2783 26.4848ZM412.852 26.4848C412.852 27.0675 412.003 27.5443 410.967 27.5443C409.931 27.5443 409.576 27.0675 410.182 26.4848C410.787 25.902 411.634 25.4252 412.067 25.4252C412.499 25.4252 412.852 25.902 412.852 26.4848ZM500.072 26.4848C500.072 27.0675 499.223 27.5443 498.187 27.5443C497.151 27.5443 496.797 27.0675 497.402 26.4848C498.008 25.902 498.855 25.4252 499.287 25.4252C499.72 25.4252 500.072 25.902 500.072 26.4848ZM281.13 29.6633C281.13 30.246 280.329 30.7228 279.35 30.7228C278.371 30.7228 277.57 30.246 277.57 29.6633C277.57 29.0806 278.371 28.6038 279.35 28.6038C280.329 28.6038 281.13 29.0806 281.13 29.6633ZM327.035 31.1456C325.773 31.9614 324.46 32.47 324.118 32.2761C323.062 31.6785 325.738 29.6633 327.585 29.6633C328.546 29.6633 328.299 30.3308 327.035 31.1456ZM383.421 32.6829C382.417 33.3112 379.031 31.7188 379.031 30.619C379.031 30.0469 380.153 30.1941 381.522 30.9464C382.892 31.6976 383.747 32.4795 383.421 32.6829ZM354.084 34.1663C354.099 34.6038 353.31 34.9609 352.331 34.9609C351.352 34.9609 350.564 33.8887 350.578 32.577C350.601 30.6497 350.936 30.4972 352.331 31.7823C353.28 32.6564 354.068 33.7287 354.084 34.1663ZM397.721 31.7823C398.327 32.3651 397.972 32.8419 396.936 32.8419C395.901 32.8419 395.051 32.3651 395.051 31.7823C395.051 31.1996 395.404 30.7228 395.836 30.7228C396.269 30.7228 397.116 31.1996 397.721 31.7823ZM23.0281 32.8419C23.0281 33.4246 24.3631 33.9014 25.9954 33.9014C27.6259 33.9014 28.4874 34.1832 27.9089 34.5276C26.4244 35.4123 19.4681 33.9639 19.4681 32.7709C19.4681 32.2273 20.2691 31.7823 21.2481 31.7823C22.2271 31.7823 23.0281 32.2591 23.0281 32.8419ZM104.909 33.485C104.909 34.5286 103.921 34.962 102.355 34.6038C100.948 34.2828 99.4566 34.5901 99.0383 35.2851C98.6183 35.9812 97.5663 36.1539 96.6994 35.6687C95.8094 35.1707 96.6246 34.1345 98.5773 33.2847C103.074 31.3278 104.909 31.385 104.909 33.485ZM332.137 33.4172C333.486 35.5108 332.228 36.2408 328.668 35.4282C327.121 35.0743 326.291 34.1101 326.823 33.2837C328.1 31.3034 330.818 31.3713 332.137 33.4172ZM477.906 32.7613C477.347 33.3006 478.116 33.9671 479.615 34.2436C481.724 34.6314 481.662 34.7098 479.339 34.5879C475.987 34.4131 473.691 31.7823 476.889 31.7823C478.007 31.7823 478.465 32.2231 477.906 32.7613ZM558.813 33.4755C558.813 34.1567 557.211 34.963 555.253 35.2682C552.729 35.6612 551.693 35.2999 551.693 34.0296C551.693 32.9425 553.096 32.2369 555.253 32.2369C557.211 32.2369 558.813 32.7942 558.813 33.4755ZM72.8685 33.9014C72.8685 34.4841 72.0675 34.9609 71.0885 34.9609C70.1095 34.9609 69.3085 34.4841 69.3085 33.9014C69.3085 33.3186 70.1095 32.8419 71.0885 32.8419C72.0675 32.8419 72.8685 33.3186 72.8685 33.9014ZM266.89 33.9014C266.89 34.4841 266.089 34.9609 265.11 34.9609C264.131 34.9609 263.33 34.4841 263.33 33.9014C263.33 33.3186 264.131 32.8419 265.11 32.8419C266.089 32.8419 266.89 33.3186 266.89 33.9014ZM360.667 35.1601C360.099 36.0045 359.677 35.7534 359.592 34.5191C359.515 33.4024 359.935 32.7772 360.526 33.129C361.117 33.4808 361.181 34.3951 360.667 35.1601ZM526.773 33.9014C526.773 34.4841 525.972 34.9609 524.993 34.9609C524.014 34.9609 523.213 34.4841 523.213 33.9014C523.213 33.3186 524.014 32.8419 524.993 32.8419C525.972 32.8419 526.773 33.3186 526.773 33.9014ZM394.234 35.0319C396.061 36.7907 394.421 37.0344 391.867 35.3836C390.603 34.5689 390.356 33.9014 391.317 33.9014C392.276 33.9014 393.59 34.41 394.234 35.0319ZM407.512 34.9609C407.512 35.5436 406.711 36.0204 405.732 36.0204C404.753 36.0204 403.952 35.5436 403.952 34.9609C403.952 34.3782 404.753 33.9014 405.732 33.9014C406.711 33.9014 407.512 34.3782 407.512 34.9609ZM167.209 36.0204C167.209 36.6032 166.408 37.0799 165.429 37.0799C164.45 37.0799 163.649 36.6032 163.649 36.0204C163.649 35.4377 164.45 34.9609 165.429 34.9609C166.408 34.9609 167.209 35.4377 167.209 36.0204ZM15.908 42.3775C15.908 42.9603 15.107 43.437 14.128 43.437C13.149 43.437 12.348 42.9603 12.348 42.3775C12.348 41.7948 13.149 41.318 14.128 41.318C15.107 41.318 15.908 41.7948 15.908 42.3775ZM78.2086 41.7853C78.2086 42.0427 77.4076 42.547 76.4286 42.9073C75.4496 43.2675 74.6486 43.0567 74.6486 42.44C74.6486 41.8234 75.4496 41.318 76.4286 41.318C77.4076 41.318 78.2086 41.5278 78.2086 41.7853ZM108.469 41.7853C108.469 42.0427 107.668 42.547 106.689 42.9073C105.71 43.2675 104.909 43.0567 104.909 42.44C104.909 41.8234 105.71 41.318 106.689 41.318C107.668 41.318 108.469 41.5278 108.469 41.7853ZM469.812 42.3775C469.812 42.9603 469.011 43.437 468.032 43.437C467.053 43.437 466.252 42.9603 466.252 42.3775C466.252 41.7948 467.053 41.318 468.032 41.318C469.011 41.318 469.812 41.7948 469.812 42.3775ZM562.373 42.3775C562.373 42.9603 561.572 43.437 560.593 43.437C559.614 43.437 558.813 42.9603 558.813 42.3775C558.813 41.7948 559.614 41.318 560.593 41.318C561.572 41.318 562.373 41.7948 562.373 42.3775ZM334.531 44.4966C334.531 45.0793 333.73 45.5561 332.751 45.5561C331.772 45.5561 330.971 45.0793 330.971 44.4966C330.971 43.9138 331.772 43.437 332.751 43.437C333.73 43.437 334.531 43.9138 334.531 44.4966ZM278.943 46.8148C277.843 48.7791 274.01 49.1044 274.01 47.2333C274.01 46.3105 275.279 45.5561 276.828 45.5561C278.378 45.5561 279.331 46.1219 278.943 46.8148ZM339.871 47.6751C339.871 48.2578 338.669 48.7346 337.201 48.7346C335.732 48.7346 334.531 48.2578 334.531 47.6751C334.531 47.0924 335.732 46.6156 337.201 46.6156C338.669 46.6156 339.871 47.0924 339.871 47.6751ZM426.202 47.6751C426.807 48.2578 426.453 48.7346 425.417 48.7346C424.381 48.7346 423.532 48.2578 423.532 47.6751C423.532 47.0924 423.884 46.6156 424.317 46.6156C424.749 46.6156 425.597 47.0924 426.202 47.6751ZM256.21 48.7346C256.21 49.3174 255.409 49.7941 254.43 49.7941C253.451 49.7941 252.65 49.3174 252.65 48.7346C252.65 48.1519 253.451 47.6751 254.43 47.6751C255.409 47.6751 256.21 48.1519 256.21 48.7346ZM261.55 49.7941C261.55 50.3769 260.701 50.8537 259.665 50.8537C258.629 50.8537 258.275 50.3769 258.88 49.7941C259.485 49.2114 260.333 48.7346 260.765 48.7346C261.198 48.7346 261.55 49.2114 261.55 49.7941ZM311.364 53.7673C311.314 55.2178 308.041 57.6897 306.996 57.0667C305.593 56.2318 307.827 52.9727 309.801 52.9727C310.675 52.9727 311.378 53.3298 311.364 53.7673ZM417.709 55.7317C417.118 56.0834 415.582 56.1216 414.299 55.8154C412.878 55.4774 413.3 55.2263 415.374 55.1754C417.25 55.1299 418.3 55.3799 417.709 55.7317ZM128.939 65.6869C129.544 66.2696 129.19 66.7464 128.154 66.7464C127.118 66.7464 126.269 66.2696 126.269 65.6869C126.269 65.1042 126.621 64.6274 127.054 64.6274C127.487 64.6274 128.334 65.1042 128.939 65.6869ZM583.733 65.6869C583.733 66.2696 582.884 66.7464 581.848 66.7464C580.812 66.7464 580.458 66.2696 581.063 65.6869C581.668 65.1042 582.516 64.6274 582.948 64.6274C583.381 64.6274 583.733 65.1042 583.733 65.6869ZM88.8887 69.925C88.8887 70.5077 88.0877 70.9845 87.1087 70.9845C86.1297 70.9845 85.3287 70.5077 85.3287 69.925C85.3287 69.3422 86.1297 68.8655 87.1087 68.8655C88.0877 68.8655 88.8887 69.3422 88.8887 69.925ZM370.131 72.044C370.131 72.6267 368.93 73.1035 367.461 73.1035C365.993 73.1035 364.791 72.6267 364.791 72.044C364.791 71.4613 365.993 70.9845 367.461 70.9845C368.93 70.9845 370.131 71.4613 370.131 72.044ZM440.627 77.0545C438.818 78.132 437.325 76.5099 438.81 75.0806C439.931 73.9999 440.351 73.9999 440.953 75.0764C441.366 75.8127 441.218 76.7027 440.627 77.0545ZM119.149 76.2821C119.149 76.8648 118.348 77.3416 117.369 77.3416C116.39 77.3416 115.589 76.8648 115.589 76.2821C115.589 75.6993 116.39 75.2226 117.369 75.2226C118.348 75.2226 119.149 75.6993 119.149 76.2821ZM189.365 77.4317C188.792 77.9837 187.566 78.1564 186.638 77.8152C185.711 77.474 185.421 76.744 185.994 76.192C186.567 75.64 187.793 75.4673 188.721 75.8085C189.648 76.1496 189.938 76.8797 189.365 77.4317ZM268.181 77.3416C268.033 78.5071 267.282 79.4606 266.511 79.4606C264.827 79.4606 264.779 79.0866 266.191 76.8987C267.666 74.608 268.503 74.7945 268.181 77.3416ZM573.053 76.2821C573.053 76.8648 572.252 77.3416 571.273 77.3416C570.294 77.3416 569.493 76.8648 569.493 76.2821C569.493 75.6993 570.294 75.2226 571.273 75.2226C572.252 75.2226 573.053 75.6993 573.053 76.2821ZM325.631 78.4011C325.631 78.9839 324.83 79.4606 323.851 79.4606C322.872 79.4606 322.071 78.9839 322.071 78.4011C322.071 77.8184 322.872 77.3416 323.851 77.3416C324.83 77.3416 325.631 77.8184 325.631 78.4011ZM444.002 81.5797C444.607 82.1624 444.253 82.6392 443.217 82.6392C442.181 82.6392 441.332 82.1624 441.332 81.5797C441.332 80.9969 441.684 80.5202 442.117 80.5202C442.549 80.5202 443.397 80.9969 444.002 81.5797ZM357.671 82.6392C357.671 83.2219 356.87 83.6987 355.891 83.6987C354.912 83.6987 354.111 83.2219 354.111 82.6392C354.111 82.0565 354.912 81.5797 355.891 81.5797C356.87 81.5797 357.671 82.0565 357.671 82.6392ZM218.83 83.6987C218.83 84.2814 218.077 84.7582 217.155 84.7582C216.233 84.7582 214.985 84.2814 214.38 83.6987C213.775 83.116 214.529 82.6392 216.055 82.6392C217.58 82.6392 218.83 83.116 218.83 83.6987ZM266.169 87.6592C265.427 88.101 263.683 87.5384 262.294 86.4079C258.469 83.295 259.274 82.2811 263.645 84.7052C265.778 85.8877 266.913 87.2163 266.169 87.6592ZM313.171 85.8177C313.171 86.4005 312.322 86.8773 311.286 86.8773C310.25 86.8773 309.895 86.4005 310.501 85.8177C311.106 85.235 311.953 84.7582 312.386 84.7582C312.818 84.7582 313.171 85.235 313.171 85.8177ZM457.352 85.8177C457.352 86.4005 456.599 86.8773 455.677 86.8773C454.755 86.8773 453.507 86.4005 452.902 85.8177C452.297 85.235 453.051 84.7582 454.577 84.7582C456.102 84.7582 457.352 85.235 457.352 85.8177ZM168.989 86.8773C168.989 87.46 168.188 87.9368 167.209 87.9368C166.23 87.9368 165.429 87.46 165.429 86.8773C165.429 86.2945 166.23 85.8177 167.209 85.8177C168.188 85.8177 168.989 86.2945 168.989 86.8773ZM83.5486 91.1778C83.5486 91.7267 82.7476 92.1748 81.7686 92.1748C80.7896 92.1748 79.9886 91.4311 79.9886 90.5231C79.9886 89.6151 80.7896 89.1658 81.7686 89.5261C82.7476 89.8863 83.5486 90.629 83.5486 91.1778ZM538.364 91.9852C536.951 92.8275 533.889 90.9161 534.977 89.8693C535.715 89.1573 536.632 89.2665 537.579 90.1766C538.382 90.9511 538.736 91.7648 538.364 91.9852ZM46.1683 91.1153C46.1683 91.6981 45.3673 92.1748 44.3883 92.1748C43.4093 92.1748 42.6083 91.6981 42.6083 91.1153C42.6083 90.5326 43.4093 90.0558 44.3883 90.0558C45.3673 90.0558 46.1683 90.5326 46.1683 91.1153ZM96.0087 92.1748C96.0087 92.7576 95.2077 93.2344 94.2287 93.2344C93.2497 93.2344 92.4487 92.7576 92.4487 92.1748C92.4487 91.5921 93.2497 91.1153 94.2287 91.1153C95.2077 91.1153 96.0087 91.5921 96.0087 92.1748ZM256.21 92.1748C256.21 92.7576 255.409 93.2344 254.43 93.2344C253.451 93.2344 252.65 92.7576 252.65 92.1748C252.65 91.5921 253.451 91.1153 254.43 91.1153C255.409 91.1153 256.21 91.5921 256.21 92.1748ZM549.913 92.1748C549.913 92.7576 549.112 93.2344 548.133 93.2344C547.154 93.2344 546.353 92.7576 546.353 92.1748C546.353 91.5921 547.154 91.1153 548.133 91.1153C549.112 91.1153 549.913 91.5921 549.913 92.1748ZM195.69 94.7908C195.69 95.7359 194.645 96.1078 193.03 95.7391C191.567 95.4043 190.812 94.705 191.355 94.1826C192.907 92.6866 195.69 93.0765 195.69 94.7908ZM445.501 95.8291C446.163 96.8558 445.636 97.1694 443.911 96.7753C442.492 96.4511 441.332 95.7603 441.332 95.24C441.332 93.7164 444.42 94.153 445.501 95.8291ZM102.981 99.2143C103.389 99.4219 103.316 99.833 102.819 100.129C101.432 100.954 90.6687 99.4463 90.6687 98.426C90.6687 97.6176 101.164 98.2893 102.981 99.2143ZM286.47 98.532C286.47 99.1147 285.669 99.5915 284.69 99.5915C283.711 99.5915 282.91 99.1147 282.91 98.532C282.91 97.9492 283.711 97.4724 284.69 97.4724C285.669 97.4724 286.47 97.9492 286.47 98.532ZM471.592 99.5915C471.592 100.174 470.791 100.651 469.812 100.651C468.833 100.651 468.032 100.174 468.032 99.5915C468.032 99.0087 468.833 98.532 469.812 98.532C470.791 98.532 471.592 99.0087 471.592 99.5915ZM557.923 99.5915C557.318 100.174 555.716 100.651 554.363 100.651C553.01 100.651 551.408 100.174 550.803 99.5915C550.176 98.9886 551.709 98.532 554.363 98.532C557.017 98.532 558.549 98.9886 557.923 99.5915ZM219.72 100.651C220.325 101.234 219.524 101.711 217.94 101.711C216.356 101.711 215.555 101.234 216.16 100.651C216.765 100.068 217.566 99.5915 217.94 99.5915C218.314 99.5915 219.115 100.068 219.72 100.651ZM290.71 101.236C291.317 102.179 291.018 102.604 290.011 102.233C289.043 101.877 288.25 101.137 288.25 100.588C288.25 99.0649 289.527 99.4008 290.71 101.236ZM208.15 101.711C208.15 102.293 207.349 102.77 206.37 102.77C205.391 102.77 204.59 102.293 204.59 101.711C204.59 101.128 205.391 100.651 206.37 100.651C207.349 100.651 208.15 101.128 208.15 101.711ZM277.57 101.711C277.57 102.293 276.817 102.77 275.895 102.77C274.973 102.77 273.726 102.293 273.12 101.711C272.515 101.128 273.27 100.651 274.795 100.651C276.321 100.651 277.57 101.128 277.57 101.711ZM380.247 102.969C379.679 103.814 379.257 103.563 379.172 102.328C379.095 101.211 379.515 100.586 380.106 100.938C380.697 101.29 380.761 102.204 380.247 102.969ZM393.271 101.067C393.271 101.296 392.07 101.758 390.601 102.094C389.133 102.429 387.931 102.241 387.931 101.678C387.931 101.113 389.133 100.651 390.601 100.651C392.07 100.651 393.271 100.839 393.271 101.067ZM334.531 103.83C334.531 104.412 334.178 104.889 333.746 104.889C333.313 104.889 332.466 104.412 331.861 103.83C331.256 103.247 331.61 102.77 332.646 102.77C333.682 102.77 334.531 103.247 334.531 103.83ZM544.573 103.83C544.573 104.412 543.772 104.889 542.793 104.889C541.814 104.889 541.013 104.412 541.013 103.83C541.013 103.247 541.814 102.77 542.793 102.77C543.772 102.77 544.573 103.247 544.573 103.83ZM5.22793 105.949C5.22793 106.531 4.42692 107.008 3.44791 107.008C2.4689 107.008 1.66789 106.531 1.66789 105.949C1.66789 105.366 2.4689 104.889 3.44791 104.889C4.42692 104.889 5.22793 105.366 5.22793 105.949ZM17.688 105.949C17.688 106.531 16.887 107.008 15.908 107.008C14.929 107.008 14.128 106.531 14.128 105.949C14.128 105.366 14.929 104.889 15.908 104.889C16.887 104.889 17.688 105.366 17.688 105.949ZM459.132 105.949C459.132 106.531 458.78 107.008 458.347 107.008C457.914 107.008 457.067 106.531 456.462 105.949C455.857 105.366 456.211 104.889 457.247 104.889C458.283 104.889 459.132 105.366 459.132 105.949ZM471.592 105.949C471.592 106.531 471.24 107.008 470.807 107.008C470.375 107.008 469.527 106.531 468.922 105.949C468.317 105.366 468.671 104.889 469.707 104.889C470.743 104.889 471.592 105.366 471.592 105.949ZM355.891 107.008C355.891 107.591 355.042 108.068 354.006 108.068C352.97 108.068 352.616 107.591 353.221 107.008C353.826 106.425 354.674 105.949 355.106 105.949C355.539 105.949 355.891 106.425 355.891 107.008ZM435.992 106.416C435.992 106.673 435.191 107.178 434.212 107.538C433.233 107.898 432.432 107.687 432.432 107.071C432.432 106.454 433.233 105.949 434.212 105.949C435.191 105.949 435.992 106.158 435.992 106.416ZM464.472 107.008C464.472 107.591 464.12 108.068 463.687 108.068C463.255 108.068 462.407 107.591 461.802 107.008C461.197 106.425 461.551 105.949 462.587 105.949C463.623 105.949 464.472 106.425 464.472 107.008ZM326.243 110.455C325.611 111.063 324.659 110.964 323.874 110.209C323.153 109.515 321.871 109.022 321.026 109.117C320.18 109.21 319.198 108.764 318.84 108.127C318.388 107.317 319.568 107.341 322.745 108.202C325.25 108.881 326.823 109.895 326.243 110.455ZM2.88365 110.386C2.31582 111.23 1.89396 110.979 1.80852 109.745C1.73198 108.628 2.15206 108.003 2.74302 108.355C3.33399 108.707 3.39807 109.621 2.88365 110.386ZM458.568 110.386C458 111.23 457.578 110.979 457.493 109.745C457.416 108.628 457.836 108.003 458.427 108.355C459.018 108.707 459.082 109.621 458.568 110.386ZM120.039 110.187C120.644 110.769 120.29 111.246 119.254 111.246C118.218 111.246 117.369 110.769 117.369 110.187C117.369 109.604 117.721 109.127 118.154 109.127C118.586 109.127 119.434 109.604 120.039 110.187ZM317.176 110.602C318.89 111.376 320.266 112.672 320.234 113.482C320.193 114.557 319.54 114.454 317.813 113.1C316.512 112.08 314.536 111.246 313.42 111.246C312.304 111.246 311.391 110.769 311.391 110.187C311.391 108.758 313.418 108.905 317.176 110.602ZM344.647 111.445C344.079 112.29 343.657 112.039 343.572 110.804C343.495 109.688 343.915 109.062 344.506 109.414C345.097 109.766 345.161 110.68 344.647 111.445ZM470.702 110.187C471.307 110.769 470.953 111.246 469.917 111.246C468.881 111.246 468.032 110.769 468.032 110.187C468.032 109.604 468.385 109.127 468.817 109.127C469.25 109.127 470.097 109.604 470.702 110.187ZM574.833 110.187C574.833 110.769 573.984 111.246 572.948 111.246C571.912 111.246 571.558 110.769 572.163 110.187C572.768 109.604 573.616 109.127 574.048 109.127C574.481 109.127 574.833 109.604 574.833 110.187ZM334.504 114.69C334.465 118.126 331.854 120.371 329.988 118.574C329.177 117.792 329.383 117.035 330.467 116.82C331.516 116.613 331.964 115.512 331.464 114.374C330.964 113.235 331.448 112.306 332.543 112.306C333.637 112.306 334.518 113.379 334.504 114.69ZM406.177 113.007C404.954 113.302 403.952 114.297 403.952 115.219C403.952 116.142 403.451 116.6 402.841 116.236C401.105 115.202 403.583 112.296 406.121 112.389C407.907 112.455 407.919 112.589 406.177 113.007ZM26.5881 113.832C26.5881 114.09 25.7871 114.594 24.8081 114.954C23.8291 115.315 23.0281 115.104 23.0281 114.487C23.0281 113.871 23.8291 113.365 24.8081 113.365C25.7871 113.365 26.5881 113.575 26.5881 113.832ZM325.631 114.425C325.631 115.007 325.278 115.484 324.846 115.484C324.413 115.484 323.566 115.007 322.961 114.425C322.356 113.842 322.71 113.365 323.746 113.365C324.782 113.365 325.631 113.842 325.631 114.425ZM377.251 114.954C377.251 115.829 376.45 116.544 375.471 116.544C374.492 116.544 373.691 115.829 373.691 114.954C373.691 114.08 374.492 113.365 375.471 113.365C376.45 113.365 377.251 114.08 377.251 114.954ZM480.492 114.425C480.492 115.007 479.691 115.484 478.712 115.484C477.733 115.484 476.932 115.007 476.932 114.425C476.932 113.842 477.733 113.365 478.712 113.365C479.691 113.365 480.492 113.842 480.492 114.425ZM50.6183 115.484C51.2235 116.067 50.8693 116.544 49.8334 116.544C48.7974 116.544 47.9483 116.067 47.9483 115.484C47.9483 114.901 48.3008 114.425 48.7333 114.425C49.1658 114.425 50.0131 114.901 50.6183 115.484ZM504.522 115.484C505.128 116.067 504.773 116.544 503.737 116.544C502.701 116.544 501.852 116.067 501.852 115.484C501.852 114.901 502.205 114.425 502.637 114.425C503.07 114.425 503.917 114.901 504.522 115.484ZM350.551 117.187C350.551 117.416 349.35 117.603 347.881 117.603C346.413 117.603 345.211 117.141 345.211 116.577C345.211 116.013 346.413 115.825 347.881 116.16C349.35 116.496 350.551 116.958 350.551 117.187ZM40.7731 120.252C40.7731 120.835 39.997 120.596 39.0482 119.722C38.0995 118.848 37.3234 117.656 37.3234 117.074C37.3234 116.491 38.0995 116.729 39.0482 117.603C39.997 118.477 40.7731 119.669 40.7731 120.252ZM325.631 116.944C325.631 117.164 324.412 117.947 322.92 118.683C320.654 119.803 320.392 119.737 321.33 118.282C322.288 116.798 325.631 115.757 325.631 116.944ZM61.6242 119.921C61.0563 120.766 60.6345 120.515 60.549 119.28C60.4725 118.164 60.8926 117.539 61.4836 117.89C62.0745 118.242 62.1386 119.157 61.6242 119.921ZM290.921 118.663C291.526 119.246 291.171 119.722 290.136 119.722C289.1 119.722 288.25 119.246 288.25 118.663C288.25 118.08 288.603 117.603 289.035 117.603C289.468 117.603 290.315 118.08 290.921 118.663ZM371.911 119.268C371.911 119.602 370.761 120.558 369.355 121.395C367.548 122.471 366.438 122.569 365.567 121.731C364.889 121.078 365.439 120.129 366.788 119.621C369.622 118.552 371.911 118.395 371.911 119.268ZM488.687 121.554C486.879 122.632 485.385 121.01 486.87 119.58C487.991 118.5 488.411 118.5 489.013 119.576C489.426 120.312 489.278 121.202 488.687 121.554ZM35.4882 120.19C35.4882 120.447 34.6872 120.951 33.7082 121.312C32.7292 121.672 31.9282 121.461 31.9282 120.844C31.9282 120.228 32.7292 119.722 33.7082 119.722C34.6872 119.722 35.4882 119.932 35.4882 120.19ZM339.871 123.368C339.871 123.626 339.07 124.13 338.091 124.49C337.112 124.85 336.311 124.64 336.311 124.023C336.311 123.406 337.112 122.901 338.091 122.901C339.07 122.901 339.871 123.111 339.871 123.368ZM357.671 123.96C354.22 125.288 352.331 125.288 352.331 123.96C352.331 123.378 354.132 122.908 356.336 122.917C359.574 122.931 359.83 123.13 357.671 123.96ZM15.018 125.02C15.6232 125.603 15.269 126.079 14.233 126.079C13.1971 126.079 12.348 125.603 12.348 125.02C12.348 124.437 12.7004 123.96 13.133 123.96C13.5655 123.96 14.4128 124.437 15.018 125.02ZM89.7022 124.947C91.0194 126.215 87.6712 127.471 85.3002 126.599C83.3083 125.866 84.6166 123.96 87.1087 123.96C87.972 123.96 89.1397 124.404 89.7022 124.947ZM469.812 125.02C469.812 125.603 469.011 126.079 468.032 126.079C467.053 126.079 466.252 125.603 466.252 125.02C466.252 124.437 467.053 123.96 468.032 123.96C469.011 123.96 469.812 124.437 469.812 125.02ZM544.573 125.55C544.573 126.424 543.371 127.139 541.903 127.139C540.434 127.139 539.233 126.424 539.233 125.55C539.233 124.676 540.434 123.96 541.903 123.96C543.371 123.96 544.573 124.676 544.573 125.55ZM323.851 127.731C323.851 128.639 323.05 129.088 322.071 128.728C321.092 128.368 320.291 127.625 320.291 127.076C320.291 126.528 321.092 126.079 322.071 126.079C323.05 126.079 323.851 126.823 323.851 127.731ZM329.191 128.198C329.191 128.781 328.39 129.258 327.411 129.258C326.432 129.258 325.631 128.781 325.631 128.198C325.631 127.616 326.432 127.139 327.411 127.139C328.39 127.139 329.191 127.616 329.191 128.198ZM62.1884 129.258C62.1884 129.841 61.3874 130.317 60.4084 130.317C59.4294 130.317 58.6284 129.841 58.6284 129.258C58.6284 128.675 59.4294 128.198 60.4084 128.198C61.3874 128.198 62.1884 128.675 62.1884 129.258ZM516.983 129.258C517.588 129.841 517.234 130.317 516.198 130.317C515.162 130.317 514.313 129.841 514.313 129.258C514.313 128.675 514.665 128.198 515.098 128.198C515.53 128.198 516.377 128.675 516.983 129.258ZM259.77 130.317C259.77 130.9 259.418 131.377 258.985 131.377C258.553 131.377 257.705 130.9 257.1 130.317C256.495 129.735 256.849 129.258 257.885 129.258C258.921 129.258 259.77 129.735 259.77 130.317ZM346.991 132.437L350.551 134.556H346.101C342.838 134.556 341.651 133.991 341.651 132.437C341.651 131.271 342.051 130.317 342.541 130.317C343.03 130.317 345.033 131.271 346.991 132.437ZM376.285 132.363C376.849 132.906 376.495 133.649 375.5 134.015C374.505 134.381 373.691 133.937 373.691 133.029C373.691 131.167 374.759 130.894 376.285 132.363ZM370.131 135.085C370.131 135.959 369.33 136.675 368.351 136.675C367.372 136.675 366.571 135.959 366.571 135.085C366.571 134.211 367.372 133.496 368.351 133.496C369.33 133.496 370.131 134.211 370.131 135.085ZM388.821 134.556C389.427 135.138 389.072 135.615 388.036 135.615C387 135.615 386.151 135.138 386.151 134.556C386.151 133.973 386.504 133.496 386.936 133.496C387.369 133.496 388.216 133.973 388.821 134.556ZM398.611 136.675C398.611 137.257 397.81 137.734 396.831 137.734C395.852 137.734 395.051 137.257 395.051 136.675C395.051 136.092 395.852 135.615 396.831 135.615C397.81 135.615 398.611 136.092 398.611 136.675ZM90.6687 137.734C90.6687 138.317 89.8677 138.794 88.8887 138.794C87.9097 138.794 87.1087 138.317 87.1087 137.734C87.1087 137.151 87.9097 136.675 88.8887 136.675C89.8677 136.675 90.6687 137.151 90.6687 137.734ZM544.573 137.734C544.573 138.317 543.772 138.794 542.793 138.794C541.814 138.794 541.013 138.317 541.013 137.734C541.013 137.151 541.814 136.675 542.793 136.675C543.772 136.675 544.573 137.151 544.573 137.734ZM10.568 140.913C10.568 141.495 9.76697 141.972 8.78796 141.972C7.80895 141.972 7.00794 141.495 7.00794 140.913C7.00794 140.33 7.80895 139.853 8.78796 139.853C9.76697 139.853 10.568 140.33 10.568 140.913ZM464.472 140.913C464.472 141.495 463.671 141.972 462.692 141.972C461.713 141.972 460.912 141.495 460.912 140.913C460.912 140.33 461.713 139.853 462.692 139.853C463.671 139.853 464.472 140.33 464.472 140.913ZM380.247 143.231C379.679 144.075 379.257 143.824 379.172 142.59C379.095 141.473 379.515 140.848 380.106 141.2C380.697 141.552 380.761 142.466 380.247 143.231ZM174.329 143.032C174.329 143.614 173.08 144.091 171.554 144.091C170.029 144.091 169.274 143.614 169.879 143.032C170.485 142.449 171.732 141.972 172.654 141.972C173.577 141.972 174.329 142.449 174.329 143.032ZM282.91 144.091C282.91 144.674 281.777 145.151 280.388 145.151C279.002 145.151 277.51 145.747 277.072 146.475C276.636 147.204 275.669 147.463 274.924 147.05C272.572 145.749 275.527 143.032 279.295 143.032C281.283 143.032 282.91 143.508 282.91 144.091ZM131.007 151.773C130.514 152.502 130.11 151.905 130.11 150.448C130.11 148.991 130.514 148.396 131.007 149.124C131.502 149.853 131.502 151.045 131.007 151.773ZM587.293 150.978C587.293 151.783 586.492 152.737 585.513 153.097C584.5 153.47 583.733 152.558 583.733 150.978C583.733 149.398 584.5 148.486 585.513 148.859C586.492 149.219 587.293 150.173 587.293 150.978ZM321.181 153.627C321.786 154.21 321.432 154.686 320.396 154.686C319.36 154.686 318.511 154.21 318.511 153.627C318.511 153.044 318.863 152.567 319.296 152.567C319.728 152.567 320.576 153.044 321.181 153.627ZM330.971 154.686C330.971 155.269 330.17 155.746 329.191 155.746C328.212 155.746 327.411 155.269 327.411 154.686C327.411 154.104 328.212 153.627 329.191 153.627C330.17 153.627 330.971 154.104 330.971 154.686ZM225.06 155.746C225.665 156.329 225.311 156.805 224.275 156.805C223.239 156.805 222.39 156.329 222.39 155.746C222.39 155.163 222.742 154.686 223.175 154.686C223.607 154.686 224.455 155.163 225.06 155.746ZM155.965 161.243C155.397 162.087 154.975 161.836 154.89 160.602C154.813 159.485 155.233 158.86 155.824 159.212C156.415 159.563 156.479 160.478 155.965 161.243ZM229.51 161.573C229.51 163.03 228.709 164.222 227.73 164.222C226.751 164.222 225.95 163.03 225.95 161.573C225.95 160.116 226.751 158.924 227.73 158.924C228.709 158.924 229.51 160.116 229.51 161.573ZM193.91 165.483C193.91 166.876 189.864 166.004 188.977 164.42C188.543 163.646 189.358 163.409 191.09 163.805C192.64 164.16 193.91 164.914 193.91 165.483ZM84.4386 167.401C85.0812 168.018 83.2709 168.46 80.0936 168.46C77.0996 168.46 74.6486 167.983 74.6486 167.401C74.6486 166.818 76.603 166.341 78.9936 166.341C81.3841 166.341 83.8334 166.818 84.4386 167.401ZM538.343 167.401C538.985 168.018 537.175 168.46 533.998 168.46C531.004 168.46 528.553 167.983 528.553 167.401C528.553 166.818 530.507 166.341 532.898 166.341C535.288 166.341 537.738 166.818 538.343 167.401ZM188.57 168.46C188.57 169.043 187.817 169.52 186.895 169.52C185.973 169.52 184.725 169.043 184.12 168.46C183.514 167.877 184.269 167.401 185.795 167.401C187.32 167.401 188.57 167.877 188.57 168.46ZM76.4286 175.877C76.4286 176.459 75.5795 176.936 74.5435 176.936C73.5076 176.936 73.1533 176.459 73.7585 175.877C74.3638 175.294 75.211 174.817 75.6436 174.817C76.0761 174.817 76.4286 175.294 76.4286 175.877ZM446.672 175.877C446.672 176.459 445.871 176.936 444.892 176.936C443.913 176.936 443.112 176.459 443.112 175.877C443.112 175.294 443.913 174.817 444.892 174.817C445.871 174.817 446.672 175.294 446.672 175.877ZM17.688 177.996C17.688 178.578 16.4385 179.055 14.913 179.055C13.3875 179.055 12.6328 178.578 13.238 177.996C13.8432 177.413 15.091 176.936 16.013 176.936C16.9351 176.936 17.688 177.413 17.688 177.996ZM471.592 177.996C471.592 178.578 470.791 179.055 469.812 179.055C468.833 179.055 468.032 178.578 468.032 177.996C468.032 177.413 468.833 176.936 469.812 176.936C470.791 176.936 471.592 177.413 471.592 177.996ZM261.55 184.353C261.55 184.936 260.749 185.412 259.77 185.412C258.791 185.412 257.99 184.936 257.99 184.353C257.99 183.77 258.791 183.293 259.77 183.293C260.749 183.293 261.55 183.77 261.55 184.353ZM274.01 186.534C274.01 187.083 273.209 187.531 272.23 187.531C271.251 187.531 270.45 186.788 270.45 185.88C270.45 184.972 271.251 184.522 272.23 184.883C273.209 185.243 274.01 185.986 274.01 186.534ZM14.128 188.591C14.128 189.174 13.327 189.65 12.348 189.65C11.369 189.65 10.568 189.174 10.568 188.591C10.568 188.008 11.369 187.531 12.348 187.531C13.327 187.531 14.128 188.008 14.128 188.591ZM92.4487 189.209C92.4487 190.131 91.4982 190.698 90.3358 190.467C87.0339 189.813 86.4874 187.531 89.6309 187.531C91.1813 187.531 92.4487 188.287 92.4487 189.209ZM546.353 189.183C546.353 190.091 545.552 190.54 544.573 190.18C543.594 189.82 542.793 189.077 542.793 188.528C542.793 187.98 543.594 187.531 544.573 187.531C545.552 187.531 546.353 188.275 546.353 189.183ZM123.451 191.391C125.085 193.928 123.811 194.123 121.292 191.722C120.096 190.583 119.841 189.65 120.724 189.65C121.605 189.65 122.834 190.433 123.451 191.391ZM380.658 193.889C380.594 194.936 380.041 194.756 379.031 193.359C376.929 190.446 376.929 188.773 379.031 190.71C379.98 191.584 380.713 193.014 380.658 193.889ZM579.093 191.327C580.764 193.918 580.401 194.26 577.503 192.829C574.545 191.367 573.961 189.65 576.423 189.65C577.297 189.65 578.498 190.405 579.093 191.327ZM22.6525 195.371C21.3905 196.187 20.0768 196.695 19.7351 196.501C18.6795 195.904 21.3549 193.889 23.2025 193.889C24.1637 193.889 23.9163 194.556 22.6525 195.371ZM478.712 194.948C478.712 195.531 477.31 196 475.597 195.992C472.934 195.978 472.87 195.825 475.152 194.948C478.511 193.655 478.712 193.655 478.712 194.948ZM411.072 196.6C411.072 197.508 410.271 197.957 409.292 197.597C408.313 197.237 407.512 196.494 407.512 195.945C407.512 195.396 408.313 194.948 409.292 194.948C410.271 194.948 411.072 195.692 411.072 196.6ZM57.9502 198.682C56.366 199.625 55.0684 199.982 55.0684 199.473C55.0684 198.274 59.0485 195.905 60.056 196.504C60.4832 196.759 59.5362 197.738 57.9502 198.682ZM439.552 197.067C439.552 197.65 438.751 198.127 437.772 198.127C436.793 198.127 435.992 197.65 435.992 197.067C435.992 196.484 436.793 196.008 437.772 196.008C438.751 196.008 439.552 196.484 439.552 197.067ZM513.278 198.498C512.662 199.453 511.45 199.972 510.583 199.653C509.717 199.334 510.001 198.432 511.215 197.648C513.946 195.883 514.75 196.215 513.278 198.498ZM326.847 199.385C326.279 200.23 325.857 199.979 325.771 198.744C325.695 197.628 326.115 197.002 326.706 197.354C327.297 197.706 327.361 198.62 326.847 199.385ZM334.049 197.707C333.458 198.059 331.921 198.097 330.638 197.791C329.218 197.453 329.639 197.202 331.713 197.151C333.589 197.105 334.639 197.355 334.049 197.707ZM572.451 198.59C571.878 199.481 572.724 200.292 574.486 200.545C577.249 200.941 577.234 201.047 574.312 201.802C572.556 202.256 570.68 202.365 570.145 202.046C569.018 201.376 571.035 197.067 572.473 197.067C573.001 197.067 572.993 197.753 572.451 198.59ZM119.505 201.517C117.844 202.506 116.894 202.506 115.233 201.517C113.572 200.529 114.046 200.246 117.369 200.246C120.692 200.246 121.166 200.529 119.505 201.517ZM361.676 200.947C360.453 201.242 358.451 201.242 357.226 200.947C356.003 200.654 357.004 200.413 359.451 200.413C361.899 200.413 362.901 200.654 361.676 200.947ZM410.182 201.001C405.863 201.619 402.284 203.424 405.376 203.424C406.55 203.424 407.512 203.901 407.512 204.484C407.512 206.164 404.443 205.714 403.247 203.859C401.652 201.385 403.54 200.23 408.952 200.369C412.643 200.463 412.926 200.608 410.182 201.001ZM18.1117 203.387C19.8365 204.586 20.3812 205.737 19.3986 206.098C18.457 206.445 17.688 206.195 17.688 205.543C17.688 204.892 16.9226 204.641 15.9863 204.985C15.0501 205.329 14.735 206.311 15.2868 207.166C15.8368 208.021 15.4808 208.722 14.4947 208.722C13.5086 208.722 12.7805 207.053 12.8767 205.013C13.0796 200.755 13.9411 200.488 18.1117 203.387ZM471.185 203.226C472.253 205.132 468.573 204.732 467.331 202.805C466.667 201.775 467.064 201.289 468.365 201.548C469.527 201.779 470.796 202.533 471.185 203.226ZM332.751 204.484C332.751 205.066 331.95 205.543 330.971 205.543C329.992 205.543 329.191 205.066 329.191 204.484C329.191 203.901 329.992 203.424 330.971 203.424C331.95 203.424 332.751 203.901 332.751 204.484ZM325.631 205.543C325.631 206.126 324.83 206.603 323.851 206.603C322.872 206.603 322.071 206.126 322.071 205.543C322.071 204.96 322.872 204.484 323.851 204.484C324.83 204.484 325.631 204.96 325.631 205.543ZM142.289 206.01C142.289 206.268 141.488 206.772 140.509 207.132C139.53 207.493 138.729 207.282 138.729 206.665C138.729 206.049 139.53 205.543 140.509 205.543C141.488 205.543 142.289 205.753 142.289 206.01ZM319.401 208.369C319.401 211.206 317.619 211.627 316.031 209.165C314.427 206.678 314.702 205.896 317.176 205.896C318.4 205.896 319.401 207.009 319.401 208.369ZM460.912 207.787C460.912 208.37 460.111 208.552 459.132 208.192C458.153 207.832 457.352 207.06 457.352 206.478C457.352 205.895 458.153 205.713 459.132 206.073C460.111 206.433 460.912 207.205 460.912 207.787ZM469.812 207.132C469.812 208.007 469.011 208.722 468.032 208.722C467.053 208.722 466.252 208.007 466.252 207.132C466.252 206.258 467.053 205.543 468.032 205.543C469.011 205.543 469.812 206.258 469.812 207.132ZM7.00794 207.662C7.00794 208.245 6.6555 208.722 6.22296 208.722C5.79041 208.722 4.94312 208.245 4.33792 207.662C3.73271 207.08 4.08694 206.603 5.12291 206.603C6.15888 206.603 7.00794 207.08 7.00794 207.662ZM90.6687 207.003C90.6687 207.223 89.4494 208.006 87.9577 208.742C85.6918 209.862 85.4301 209.796 86.3682 208.341C87.3258 206.857 90.6687 205.816 90.6687 207.003ZM287.36 207.662C287.966 208.245 287.611 208.722 286.575 208.722C285.54 208.722 284.69 208.245 284.69 207.662C284.69 207.08 285.043 206.603 285.475 206.603C285.908 206.603 286.755 207.08 287.36 207.662ZM544.573 207.549C544.573 208.069 543.412 208.76 541.994 209.084C540.269 209.478 539.742 209.165 540.404 208.138C541.484 206.462 544.573 206.025 544.573 207.549ZM261.55 208.722C261.55 209.304 260.701 209.781 259.665 209.781C258.629 209.781 258.275 209.304 258.88 208.722C259.485 208.139 260.333 207.662 260.765 207.662C261.198 207.662 261.55 208.139 261.55 208.722ZM152.969 209.781C152.969 210.364 151.768 210.841 150.299 210.841C148.831 210.841 147.629 210.364 147.629 209.781C147.629 209.199 148.831 208.722 150.299 208.722C151.768 208.722 152.969 209.199 152.969 209.781ZM361.231 210.424C361.231 210.653 360.03 210.841 358.561 210.841C357.093 210.841 355.891 210.379 355.891 209.814C355.891 209.25 357.093 209.063 358.561 209.398C360.03 209.734 361.231 210.196 361.231 210.424ZM15.908 210.841C15.908 211.424 14.7065 211.9 13.238 211.9C11.7695 211.9 10.568 211.424 10.568 210.841C10.568 210.258 11.7695 209.781 13.238 209.781C14.7065 209.781 15.908 210.258 15.908 210.841ZM142.289 210.841C142.289 211.424 141.488 211.9 140.509 211.9C139.53 211.9 138.729 211.424 138.729 210.841C138.729 210.258 139.53 209.781 140.509 209.781C141.488 209.781 142.289 210.258 142.289 210.841ZM213.045 212.43C213.045 213.887 212.343 215.079 211.487 215.079C210.631 215.079 209.93 214.641 209.93 214.106C209.93 213.571 209.444 212.379 208.849 211.457C208.164 210.394 208.732 209.781 210.407 209.781C212.034 209.781 213.045 210.796 213.045 212.43ZM469.812 210.841C469.812 211.424 467.608 211.893 464.917 211.884C461.103 211.872 460.611 211.641 462.692 210.841C466.176 209.502 469.812 209.502 469.812 210.841ZM263.33 211.9C261.862 212.465 259.859 212.927 258.88 212.927C257.901 212.927 258.302 212.465 259.77 211.9C261.239 211.336 263.241 210.874 264.22 210.874C265.199 210.874 264.799 211.336 263.33 211.9ZM542.793 212.96C542.793 213.543 541.992 214.019 541.013 214.019C540.034 214.019 539.233 213.543 539.233 212.96C539.233 212.377 540.034 211.9 541.013 211.9C541.992 211.9 542.793 212.377 542.793 212.96ZM350.551 215.609C350.551 216.483 349.75 217.198 348.771 217.198C347.792 217.198 346.991 216.483 346.991 215.609C346.991 214.735 347.792 214.019 348.771 214.019C349.75 214.019 350.551 214.735 350.551 215.609ZM459.776 215.609C459.212 216.483 458.436 217.198 458.052 217.198C457.667 217.198 457.352 216.483 457.352 215.609C457.352 214.735 458.128 214.019 459.077 214.019C460.024 214.019 460.339 214.735 459.776 215.609ZM360.341 217.198C359.736 217.781 358.488 218.257 357.566 218.257C356.644 218.257 355.891 217.781 355.891 217.198C355.891 216.615 357.141 216.138 358.666 216.138C360.192 216.138 360.946 216.615 360.341 217.198ZM435.992 217.665C435.992 217.923 435.191 218.427 434.212 218.787C433.233 219.147 432.432 218.937 432.432 218.32C432.432 217.703 433.233 217.198 434.212 217.198C435.191 217.198 435.992 217.408 435.992 217.665ZM94.2287 220.376C94.2287 220.959 93.4277 221.436 92.4487 221.436C91.4697 221.436 90.6687 220.959 90.6687 220.376C90.6687 219.794 91.4697 219.317 92.4487 219.317C93.4277 219.317 94.2287 219.794 94.2287 220.376ZM328.555 220.906C330.024 221.78 330.465 222.495 329.536 222.495C328.607 222.495 326.85 221.78 325.631 220.906C324.412 220.032 323.97 219.317 324.65 219.317C325.33 219.317 327.087 220.032 328.555 220.906ZM110.249 222.495C110.249 223.078 109.448 223.555 108.469 223.555C107.49 223.555 106.689 223.078 106.689 222.495C106.689 221.913 107.49 221.436 108.469 221.436C109.448 221.436 110.249 221.913 110.249 222.495ZM565.043 222.495C565.648 223.078 565.294 223.555 564.258 223.555C563.222 223.555 562.373 223.078 562.373 222.495C562.373 221.913 562.725 221.436 563.158 221.436C563.591 221.436 564.438 221.913 565.043 222.495ZM492.952 224.615C492.952 225.197 492.151 225.674 491.172 225.674C490.193 225.674 489.392 225.197 489.392 224.615C489.392 224.032 490.193 223.555 491.172 223.555C492.151 223.555 492.952 224.032 492.952 224.615ZM468.032 226.734C468.032 227.316 467.231 227.793 466.252 227.793C465.273 227.793 464.472 227.316 464.472 226.734C464.472 226.151 465.273 225.674 466.252 225.674C467.231 225.674 468.032 226.151 468.032 226.734ZM144.959 227.793C145.564 228.376 144.81 228.853 143.284 228.853C141.759 228.853 140.509 228.376 140.509 227.793C140.509 227.21 141.262 226.734 142.184 226.734C143.106 226.734 144.354 227.21 144.959 227.793ZM333.395 228.323C332.277 230.054 329.191 230.509 329.191 228.941C329.191 228.136 330.439 227.59 334.031 226.817C334.244 226.772 333.958 227.449 333.395 228.323ZM377.251 231.227C377.251 231.669 376.45 232.031 375.471 232.031C374.492 232.031 373.691 231.526 373.691 230.909C373.691 230.292 372.89 230.082 371.911 230.442C370.932 230.802 370.131 230.35 370.131 229.436C370.131 228.04 370.699 227.987 373.691 229.098C375.649 229.826 377.251 230.784 377.251 231.227ZM271.748 229.493C271.157 229.844 269.621 229.882 268.337 229.576C266.917 229.238 267.339 228.987 269.413 228.936C271.289 228.891 272.339 229.141 271.748 229.493ZM274.01 232.031C274.01 232.614 273.209 233.091 272.23 233.091C271.251 233.091 270.45 232.614 270.45 232.031C270.45 231.448 271.251 230.972 272.23 230.972C273.209 230.972 274.01 231.448 274.01 232.031ZM204.59 234.15C204.59 234.733 203.789 235.21 202.81 235.21C201.831 235.21 201.03 234.733 201.03 234.15C201.03 233.567 201.831 233.091 202.81 233.091C203.789 233.091 204.59 233.567 204.59 234.15ZM266.184 234.707C264.325 235.529 262.109 235.945 261.258 235.632C258.788 234.723 260.924 233.569 265.42 233.384C269.384 233.221 269.416 233.277 266.184 234.707ZM243.75 235.21C243.75 235.792 242.549 236.269 241.08 236.269C239.612 236.269 238.41 235.792 238.41 235.21C238.41 234.627 239.612 234.15 241.08 234.15C242.549 234.15 243.75 234.627 243.75 235.21ZM104.909 235.677C104.909 235.934 104.108 236.439 103.129 236.799C102.15 237.159 101.349 236.948 101.349 236.332C101.349 235.715 102.15 235.21 103.129 235.21C104.108 235.21 104.909 235.419 104.909 235.677ZM357.671 238.388C357.671 238.971 356.822 239.448 355.786 239.448C354.75 239.448 354.396 238.971 355.001 238.388C355.606 237.806 356.454 237.329 356.886 237.329C357.319 237.329 357.671 237.806 357.671 238.388ZM448.452 239.448C448.452 240.031 447.651 240.507 446.672 240.507C445.693 240.507 444.892 240.031 444.892 239.448C444.892 238.865 445.693 238.388 446.672 238.388C447.651 238.388 448.452 238.865 448.452 239.448ZM590.853 239.448C590.853 240.031 590.052 240.507 589.073 240.507C588.094 240.507 587.293 240.031 587.293 239.448C587.293 238.865 588.094 238.388 589.073 238.388C590.052 238.388 590.853 238.865 590.853 239.448ZM274.01 241.629C274.01 242.178 273.209 242.626 272.23 242.626C271.251 242.626 270.45 241.883 270.45 240.975C270.45 240.067 271.251 239.617 272.23 239.978C273.209 240.338 274.01 241.08 274.01 241.629ZM157.864 244.304C156.168 245.313 152.766 243.678 154.032 242.461C154.783 241.737 155.778 241.755 157.056 242.516C158.105 243.14 158.468 243.944 157.864 244.304ZM187.68 243.686C187.074 244.269 185.625 244.738 184.46 244.729C183.185 244.719 183.406 244.302 185.01 243.686C188.429 242.37 189.045 242.37 187.68 243.686ZM166.243 249.97C166.807 250.512 166.453 251.255 165.458 251.622C164.463 251.987 163.649 251.543 163.649 250.635C163.649 248.774 164.717 248.5 166.243 249.97ZM309.611 252.162C309.611 253.327 308.81 254.281 307.831 254.281C306.852 254.281 306.051 253.327 306.051 252.162C306.051 250.997 306.852 250.043 307.831 250.043C308.81 250.043 309.611 250.997 309.611 252.162ZM261.55 253.689C261.55 253.946 260.749 254.451 259.77 254.811C258.791 255.171 257.99 254.96 257.99 254.344C257.99 253.727 258.791 253.221 259.77 253.221C260.749 253.221 261.55 253.431 261.55 253.689ZM129.124 258.232C127.316 259.309 125.822 257.687 127.307 256.258C128.428 255.177 128.848 255.177 129.45 256.254C129.863 256.99 129.715 257.88 129.124 258.232ZM583.918 257.773C581.633 259.134 579.317 258.083 581.008 256.453C581.663 255.823 583.014 255.606 584.011 255.973C585.227 256.42 585.196 257.012 583.918 257.773ZM49.7283 257.46C49.7283 258.042 48.8793 258.519 47.8433 258.519C46.8073 258.519 46.4531 258.042 47.0583 257.46C47.6635 256.877 48.5108 256.4 48.9433 256.4C49.3759 256.4 49.7283 256.877 49.7283 257.46ZM103.948 261.006C106.221 261.995 106.598 262.665 105.178 263.187C104.051 263.603 103.129 263.385 103.129 262.706C103.129 262.027 101.952 261.74 100.516 262.067C97.7265 262.705 95.3448 261.386 97.2441 260.256C98.9155 259.261 100.291 259.414 103.948 261.006ZM558.959 260.638C559.858 260.638 560.593 261.353 560.593 262.227C560.593 263.101 559.792 263.817 558.813 263.817C557.834 263.817 557.033 263.355 557.033 262.79C557.033 262.226 555.831 262.039 554.363 262.374C552.629 262.77 551.693 262.347 551.693 261.168C551.693 259.947 552.617 259.563 554.509 259.995C556.057 260.349 558.06 260.638 558.959 260.638ZM82.8437 265.649C81.0353 266.726 79.5418 265.104 81.0264 263.675C82.1478 262.594 82.5678 262.594 83.1695 263.67C83.5825 264.407 83.4347 265.297 82.8437 265.649ZM539.233 264.346C539.233 265.221 538.031 265.936 536.563 265.936C533.782 265.936 533.031 264.682 535.08 263.464C537.127 262.244 539.233 262.691 539.233 264.346ZM265.354 264.558C263.305 265.044 263.305 265.276 265.354 266.048C266.776 266.584 266.951 266.97 265.772 266.979C264.669 266.988 262.77 266.28 261.55 265.406C259.683 264.068 260 263.829 263.558 263.9C265.895 263.947 266.696 264.24 265.354 264.558ZM546.353 270.174C546.353 270.757 545.552 271.233 544.573 271.233C543.594 271.233 542.793 270.757 542.793 270.174C542.793 269.591 543.594 269.114 544.573 269.114C545.552 269.114 546.353 269.591 546.353 270.174ZM194.8 275.471C195.405 276.054 194.604 276.531 193.02 276.531C191.435 276.531 190.634 276.054 191.24 275.471C191.845 274.889 192.646 274.412 193.02 274.412C193.393 274.412 194.194 274.889 194.8 275.471ZM427.092 276.531C427.092 277.114 426.291 277.59 425.312 277.59C424.333 277.59 423.532 277.114 423.532 276.531C423.532 275.948 424.333 275.471 425.312 275.471C426.291 275.471 427.092 275.948 427.092 276.531ZM487.612 276.531C487.612 277.114 486.811 277.59 485.832 277.59C484.853 277.59 484.052 277.114 484.052 276.531C484.052 275.948 484.853 275.471 485.832 275.471C486.811 275.471 487.612 275.948 487.612 276.531ZM250.87 277.59C250.87 278.173 250.069 278.65 249.09 278.65C248.111 278.65 247.31 278.173 247.31 277.59C247.31 277.008 248.111 276.531 249.09 276.531C250.069 276.531 250.87 277.008 250.87 277.59ZM290.03 277.59C290.03 278.173 289.229 278.65 288.25 278.65C287.271 278.65 286.47 278.173 286.47 277.59C286.47 277.008 287.271 276.531 288.25 276.531C289.229 276.531 290.03 277.008 290.03 277.59ZM181.45 278.65C181.45 279.233 180.6 279.709 179.564 279.709C178.529 279.709 178.174 279.233 178.779 278.65C179.385 278.067 180.232 277.59 180.665 277.59C181.097 277.59 181.45 278.067 181.45 278.65ZM507.192 279.709C507.192 280.292 506.343 280.769 505.307 280.769C504.271 280.769 503.917 280.292 504.522 279.709C505.128 279.127 505.975 278.65 506.407 278.65C506.84 278.65 507.192 279.127 507.192 279.709ZM9.00868 282.111C7.25003 283.15 7.0471 283.028 8.01187 281.518C8.68116 280.473 9.67619 279.885 10.2244 280.212C10.7727 280.537 10.2262 281.392 9.00868 282.111ZM466.225 280.504C466.209 280.942 465.421 282.014 464.472 282.888C463.077 284.173 462.742 284.021 462.719 282.093C462.705 280.782 463.493 279.709 464.472 279.709C465.451 279.709 466.24 280.067 466.225 280.504ZM341.651 281.766C341.651 282.315 340.85 283.058 339.871 283.418C338.892 283.778 338.091 283.329 338.091 282.421C338.091 281.513 338.892 280.769 339.871 280.769C340.85 280.769 341.651 281.217 341.651 281.766ZM411.962 281.828C412.567 282.411 411.812 282.888 410.287 282.888C408.761 282.888 407.512 282.411 407.512 281.828C407.512 281.246 408.264 280.769 409.187 280.769C410.109 280.769 411.356 281.246 411.962 281.828ZM4.06914 285.571C2.65758 287.761 1.66789 287.503 1.66789 284.945C1.66789 283.745 2.4333 283.045 3.36959 283.389C4.30588 283.733 4.62094 284.716 4.06914 285.571ZM457.569 285.722C455.471 287.87 454.965 287.182 456.683 284.519C457.291 283.571 458.167 283.019 458.625 283.293C459.084 283.565 458.609 284.658 457.569 285.722ZM26.1805 285.206C25.7925 285.898 24.5233 286.652 23.361 286.883C22.0598 287.142 21.6628 286.657 22.3268 285.626C23.5692 283.7 27.2485 283.299 26.1805 285.206ZM241.406 286.266C240.838 287.11 240.416 286.859 240.331 285.625C240.254 284.508 240.674 283.883 241.265 284.235C241.856 284.586 241.92 285.501 241.406 286.266ZM420.935 285.078C422.761 286.837 421.122 287.081 418.567 285.43C417.303 284.615 417.056 283.948 418.017 283.948C418.977 283.948 420.29 284.456 420.935 285.078ZM479.458 286.438C478.842 287.393 477.63 287.912 476.763 287.593C475.896 287.274 476.181 286.372 477.395 285.588C480.126 283.823 480.93 284.155 479.458 286.438ZM68.4185 286.067C69.0237 286.649 68.6695 287.126 67.6335 287.126C66.5975 287.126 65.7485 286.649 65.7485 286.067C65.7485 285.484 66.1009 285.007 66.5335 285.007C66.966 285.007 67.8133 285.484 68.4185 286.067ZM429.536 285.632C431.892 286.17 431.793 286.563 428.811 288.468C424.822 291.017 422.674 290.404 424.379 287.206C425.684 284.759 425.698 284.755 429.536 285.632ZM524.026 285.993C524.59 286.536 524.236 287.279 523.241 287.645C522.246 288.011 521.433 287.567 521.433 286.659C521.433 284.797 522.501 284.524 524.026 285.993ZM250.87 288.186C250.87 288.768 250.069 289.245 249.09 289.245C248.111 289.245 247.31 288.768 247.31 288.186C247.31 287.603 248.111 287.126 249.09 287.126C250.069 287.126 250.87 287.603 250.87 288.186ZM274.01 288.186C274.01 288.768 273.161 289.245 272.125 289.245C271.089 289.245 270.735 288.768 271.34 288.186C271.946 287.603 272.793 287.126 273.225 287.126C273.658 287.126 274.01 287.603 274.01 288.186ZM398.611 288.715C398.611 289.589 397.81 290.305 396.831 290.305C395.852 290.305 395.051 289.589 395.051 288.715C395.051 287.841 395.852 287.126 396.831 287.126C397.81 287.126 398.611 287.841 398.611 288.715ZM417.784 288.385C417.396 289.077 416.127 289.831 414.964 290.062C413.663 290.321 413.266 289.835 413.93 288.804C415.173 286.878 418.852 286.478 417.784 288.385ZM362.447 290.504C361.879 291.348 361.457 291.097 361.372 289.863C361.295 288.746 361.715 288.121 362.306 288.473C362.897 288.824 362.961 289.739 362.447 290.504ZM257.99 289.712C257.99 290.83 254.574 291.301 253.558 290.322C252.944 289.729 253.69 289.245 255.215 289.245C256.741 289.245 257.99 289.455 257.99 289.712ZM325.631 290.305C325.631 290.887 325.278 291.364 324.846 291.364C324.413 291.364 323.566 290.887 322.961 290.305C322.356 289.722 322.71 289.245 323.746 289.245C324.782 289.245 325.631 289.722 325.631 290.305ZM104.909 291.894C104.909 292.768 104.108 293.483 103.129 293.483C102.15 293.483 101.349 292.768 101.349 291.894C101.349 291.02 102.15 290.305 103.129 290.305C104.108 290.305 104.909 291.02 104.909 291.894ZM459.577 291.006C458.354 291.301 456.352 291.301 455.127 291.006C453.904 290.713 454.904 290.472 457.352 290.472C459.8 290.472 460.802 290.713 459.577 291.006ZM560.148 293.041C558.452 294.051 555.05 292.416 556.316 291.199C557.067 290.475 558.062 290.493 559.34 291.254C560.388 291.878 560.751 292.682 560.148 293.041ZM375.42 292.382C376.86 292.925 377.495 293.691 376.831 294.086C375.203 295.056 370.131 293.822 370.131 292.457C370.131 291.111 371.974 291.085 375.42 292.382ZM410.507 293.682C409.939 294.527 409.518 294.276 409.432 293.041C409.356 291.925 409.776 291.3 410.367 291.651C410.958 292.003 411.022 292.917 410.507 293.682ZM35.4882 292.829C35.4882 293.77 28.2863 294.262 27.3749 293.384C26.8266 292.856 28.4287 292.424 30.9331 292.424C33.4376 292.424 35.4882 292.607 35.4882 292.829ZM389.318 293.656C388.939 294.333 387.326 295.001 385.733 295.14C383.893 295.301 383.186 294.852 383.795 293.908C384.941 292.13 390.309 291.884 389.318 293.656ZM487.612 293.483C484.161 294.811 482.272 294.811 482.272 293.483C482.272 292.9 484.074 292.431 486.277 292.44C489.515 292.453 489.771 292.653 487.612 293.483ZM313.171 294.543C313.171 295.125 312.37 295.602 311.391 295.602C310.412 295.602 309.611 295.125 309.611 294.543C309.611 293.96 310.412 293.483 311.391 293.483C312.37 293.483 313.171 293.96 313.171 294.543ZM363.011 294.543C363.011 295.125 362.21 295.602 361.231 295.602C360.252 295.602 359.451 295.125 359.451 294.543C359.451 293.96 360.252 293.483 361.231 293.483C362.21 293.483 363.011 293.96 363.011 294.543ZM395.051 295.602C395.051 296.185 394.25 296.662 393.271 296.662C392.292 296.662 391.491 296.185 391.491 295.602C391.491 295.019 392.292 294.543 393.271 294.543C394.25 294.543 395.051 295.019 395.051 295.602ZM332.751 305.138C332.751 307.043 329.458 306.249 328.292 304.062C327.667 302.889 326.421 302.199 325.522 302.528C324.625 302.859 324.346 302.426 324.899 301.566C325.739 300.263 326.473 300.341 329.328 302.041C331.211 303.162 332.751 304.555 332.751 305.138ZM455.572 300.9C455.572 301.483 454.771 301.959 453.792 301.959C452.813 301.959 452.012 301.483 452.012 300.9C452.012 300.317 452.813 299.84 453.792 299.84C454.771 299.84 455.572 300.317 455.572 300.9ZM384.371 303.099C384.371 303.601 383.17 303.737 381.701 303.402C380.233 303.067 379.031 302.381 379.031 301.879C379.031 301.378 380.233 301.241 381.701 301.576C383.17 301.912 384.371 302.597 384.371 303.099ZM23.0281 303.019C23.0281 303.602 24.3631 304.078 25.9954 304.078C27.6259 304.078 28.4874 304.36 27.9089 304.705C26.4244 305.589 19.4681 304.141 19.4681 302.948C19.4681 302.404 20.2691 301.959 21.2481 301.959C22.2271 301.959 23.0281 302.436 23.0281 303.019ZM104.909 303.425C104.909 304.231 103.141 305.165 100.982 305.502C95.8361 306.303 95.1864 305.778 98.7215 303.675C102.253 301.573 104.909 301.466 104.909 303.425ZM354.111 304.141C354.111 304.69 353.31 305.138 352.331 305.138C351.352 305.138 350.551 304.394 350.551 303.486C350.551 302.578 351.352 302.129 352.331 302.489C353.31 302.849 354.111 303.592 354.111 304.141ZM481.379 304.964C480.104 305.722 475.152 304.194 475.152 303.043C475.152 302.346 476.428 302.416 478.632 303.235C480.546 303.946 481.781 304.724 481.379 304.964ZM558.813 303.425C558.813 304.231 557.211 305.14 555.253 305.445C553.008 305.795 551.693 305.477 551.693 304.587C551.693 303.81 553.096 302.956 554.808 302.689C556.52 302.423 558.124 302.15 558.368 302.082C558.612 302.014 558.813 302.619 558.813 303.425ZM72.8685 305.2C72.8685 305.749 72.0675 306.197 71.0885 306.197C70.1095 306.197 69.3085 305.454 69.3085 304.546C69.3085 303.638 70.1095 303.188 71.0885 303.549C72.0675 303.909 72.8685 304.652 72.8685 305.2ZM266.89 304.078C266.89 304.661 266.089 305.138 265.11 305.138C264.131 305.138 263.33 304.661 263.33 304.078C263.33 303.496 264.131 303.019 265.11 303.019C266.089 303.019 266.89 303.496 266.89 304.078ZM526.068 305.91C524.259 306.988 522.766 305.366 524.25 303.936C525.372 302.856 525.792 302.856 526.393 303.932C526.806 304.669 526.659 305.559 526.068 305.91ZM393.271 304.546C393.271 304.803 392.47 305.307 391.491 305.668C390.512 306.028 389.711 305.817 389.711 305.2C389.711 304.584 390.512 304.078 391.491 304.078C392.47 304.078 393.271 304.288 393.271 304.546ZM167.209 306.197C167.209 306.78 166.408 307.257 165.429 307.257C164.45 307.257 163.649 306.78 163.649 306.197C163.649 305.615 164.45 305.138 165.429 305.138C166.408 305.138 167.209 305.615 167.209 306.197ZM330.971 307.724C330.971 307.982 330.17 308.486 329.191 308.846C328.212 309.206 327.411 308.996 327.411 308.379C327.411 307.762 328.212 307.257 329.191 307.257C330.17 307.257 330.971 307.467 330.971 307.724ZM310.826 310.635C310.259 311.479 309.837 311.228 309.751 309.994C309.675 308.877 310.095 308.252 310.686 308.604C311.277 308.955 311.341 309.87 310.826 310.635ZM356.571 309.961C357.178 310.904 356.879 311.329 355.872 310.958C354.903 310.602 354.111 309.862 354.111 309.313C354.111 307.79 355.387 308.126 356.571 309.961ZM15.908 312.554C15.908 313.137 15.107 313.614 14.128 313.614C13.149 313.614 12.348 313.137 12.348 312.554C12.348 311.972 13.149 311.495 14.128 311.495C15.107 311.495 15.908 311.972 15.908 312.554ZM107.579 312.554C108.184 313.137 107.83 313.614 106.794 313.614C105.758 313.614 104.909 313.137 104.909 312.554C104.909 311.972 105.261 311.495 105.694 311.495C106.126 311.495 106.974 311.972 107.579 312.554ZM469.812 312.554C469.812 313.137 469.011 313.614 468.032 313.614C467.053 313.614 466.252 313.137 466.252 312.554C466.252 311.972 467.053 311.495 468.032 311.495C469.011 311.495 469.812 311.972 469.812 312.554ZM561.483 312.554C562.088 313.137 561.734 313.614 560.698 313.614C559.662 313.614 558.813 313.137 558.813 312.554C558.813 311.972 559.165 311.495 559.598 311.495C560.03 311.495 560.878 311.972 561.483 312.554ZM334.531 314.674C334.531 315.256 333.682 315.733 332.646 315.733C331.61 315.733 331.256 315.256 331.861 314.674C332.466 314.091 333.313 313.614 333.746 313.614C334.178 313.614 334.531 314.091 334.531 314.674ZM279.35 317.322C279.35 318.196 278.149 318.912 276.68 318.912C273.9 318.912 273.149 317.658 275.198 316.44C277.245 315.22 279.35 315.667 279.35 317.322ZM338.981 317.852C339.586 318.435 338.785 318.912 337.201 318.912C335.617 318.912 334.816 318.435 335.421 317.852C336.026 317.269 336.827 316.793 337.201 316.793C337.575 316.793 338.376 317.269 338.981 317.852ZM256.21 319.971C256.21 320.554 255.409 321.031 254.43 321.031C253.451 321.031 252.65 320.554 252.65 319.971C252.65 319.388 253.451 318.912 254.43 318.912C255.409 318.912 256.21 319.388 256.21 319.971ZM261.55 321.031C261.55 321.613 260.749 322.09 259.77 322.09C258.791 322.09 257.99 321.613 257.99 321.031C257.99 320.448 258.791 319.971 259.77 319.971C260.749 319.971 261.55 320.448 261.55 321.031ZM290.03 321.031C290.03 321.613 289.229 322.09 288.25 322.09C287.271 322.09 286.47 321.613 286.47 321.031C286.47 320.448 287.271 319.971 288.25 319.971C289.229 319.971 290.03 320.448 290.03 321.031ZM311.391 324.676C311.391 326.267 308.196 327.958 306.78 327.115C305.538 326.377 307.996 323.15 309.801 323.15C310.675 323.15 311.391 323.836 311.391 324.676ZM229.51 327.388C229.51 327.97 228.709 328.447 227.73 328.447C226.751 328.447 225.95 327.97 225.95 327.388C225.95 326.805 226.751 326.328 227.73 326.328C228.709 326.328 229.51 326.805 229.51 327.388ZM183.23 332.685C183.23 333.268 182.877 333.745 182.445 333.745C182.012 333.745 181.165 333.268 180.56 332.685C179.954 332.103 180.309 331.626 181.345 331.626C182.38 331.626 183.23 332.103 183.23 332.685ZM129.829 336.923C129.829 337.506 129.028 337.983 128.049 337.983C127.07 337.983 126.269 337.506 126.269 336.923C126.269 336.341 127.07 335.864 128.049 335.864C129.028 335.864 129.829 336.341 129.829 336.923ZM583.733 336.923C583.733 337.506 582.932 337.983 581.953 337.983C580.974 337.983 580.173 337.506 580.173 336.923C580.173 336.341 580.974 335.864 581.953 335.864C582.932 335.864 583.733 336.341 583.733 336.923ZM370.131 342.221C370.131 342.804 368.93 343.281 367.461 343.281C365.993 343.281 364.791 342.804 364.791 342.221C364.791 341.638 365.993 341.161 367.461 341.161C368.93 341.161 370.131 341.638 370.131 342.221ZM40.8282 343.748C40.8282 344.005 40.0272 344.51 39.0482 344.87C38.0692 345.23 37.2682 345.019 37.2682 344.403C37.2682 343.786 38.0692 343.281 39.0482 343.281C40.0272 343.281 40.8282 343.49 40.8282 343.748ZM240.19 344.34C240.19 344.923 239.389 345.4 238.41 345.4C237.431 345.4 236.63 344.923 236.63 344.34C236.63 343.757 237.431 343.281 238.41 343.281C239.389 343.281 240.19 343.757 240.19 344.34ZM494.732 344.34C494.732 344.923 493.883 345.4 492.847 345.4C491.811 345.4 491.457 344.923 492.062 344.34C492.668 343.757 493.515 343.281 493.947 343.281C494.38 343.281 494.732 343.757 494.732 344.34ZM46.1683 345.4C46.1683 345.982 45.3673 346.459 44.3883 346.459C43.4093 346.459 42.6083 345.982 42.6083 345.4C42.6083 344.817 43.4093 344.34 44.3883 344.34C45.3673 344.34 46.1683 344.817 46.1683 345.4ZM119.149 346.459C119.149 347.042 118.348 347.519 117.369 347.519C116.39 347.519 115.589 347.042 115.589 346.459C115.589 345.876 116.39 345.4 117.369 345.4C118.348 345.4 119.149 345.876 119.149 346.459ZM441.332 346.459C441.332 347.042 440.531 347.519 439.552 347.519C438.573 347.519 437.772 347.042 437.772 346.459C437.772 345.876 438.573 345.4 439.552 345.4C440.531 345.4 441.332 345.876 441.332 346.459ZM573.053 346.459C573.053 347.042 572.204 347.519 571.168 347.519C570.132 347.519 569.778 347.042 570.383 346.459C570.988 345.876 571.836 345.4 572.268 345.4C572.701 345.4 573.053 345.876 573.053 346.459ZM190.35 347.519C190.35 348.101 189.148 348.578 187.68 348.578C186.211 348.578 185.01 348.101 185.01 347.519C185.01 346.936 186.211 346.459 187.68 346.459C189.148 346.459 190.35 346.936 190.35 347.519ZM268.67 349.045C268.67 349.303 267.869 349.807 266.89 350.167C265.911 350.528 265.11 350.317 265.11 349.7C265.11 349.083 265.911 348.578 266.89 348.578C267.869 348.578 268.67 348.788 268.67 349.045ZM357.671 352.816C357.671 353.399 356.87 353.876 355.891 353.876C354.912 353.876 354.111 353.399 354.111 352.816C354.111 352.233 354.912 351.757 355.891 351.757C356.87 351.757 357.671 352.233 357.671 352.816ZM218.347 354.516C217.756 354.867 216.22 354.906 214.937 354.599C213.517 354.261 213.938 354.01 216.012 353.959C217.888 353.914 218.938 354.164 218.347 354.516Z" fill="black"/>
</mask>
<g mask="url(#mask0_140_73)">
<path d="M25 108C102.722 99.6678 311.533 86.3305 525 99.6393" stroke="#5F9EA0" stroke-width="16" stroke-linecap="round"/>
</g>
</svg>
