<svg width="396" height="396" viewBox="0 0 396 396" fill="none" xmlns="http://www.w3.org/2000/svg">
<mask id="mask0_140_74" style="mask-type:alpha" maskUnits="userSpaceOnUse" x="0" y="0" width="397" height="396">
<path fill-rule="evenodd" clip-rule="evenodd" d="M0.0201737 46.7961C-0.0387633 82.7941 0.280675 93.8031 1.40755 94.6022C2.55211 95.413 2.558 95.7678 1.43466 96.2251C0.314859 96.6824 -0.00222238 129.812 0.000135095 246.406L0.00367131 396L197.993 395.983L395.982 395.968V325.267C395.982 271.064 395.652 254.566 394.568 254.566C393.468 254.566 393.468 254.252 394.568 253.152C396.508 251.212 396.459 236.128 394.509 235.218C393.353 234.678 393.347 234.385 394.483 233.852C395.612 233.323 395.938 207.552 395.965 116.586L396 0L198.048 0.0141428L0.0967918 0.0282855L0.0201737 46.7961ZM129.587 5.23047C129.587 5.51686 129.057 6.07786 128.409 6.47857C127.76 6.87928 127.23 6.64475 127.23 5.95882C127.23 5.2729 127.76 4.71072 128.409 4.71072C129.057 4.71072 129.587 4.94408 129.587 5.23047ZM191.594 9.10559C190.396 10.3042 189.407 8.49981 190.39 6.90992C191.133 5.70779 191.411 5.70779 191.809 6.90521C192.083 7.72431 191.985 8.7143 191.594 9.10559ZM166.128 8.24642C166.128 8.89462 165.598 9.42498 164.949 9.42498C164.301 9.42498 163.771 8.89462 163.771 8.24642C163.771 7.5982 164.301 7.06785 164.949 7.06785C165.598 7.06785 166.128 7.5982 166.128 8.24642ZM170.843 8.24642C170.843 8.89462 170.313 9.42498 169.664 9.42498C169.016 9.42498 168.486 8.89462 168.486 8.24642C168.486 7.5982 169.016 7.06785 169.664 7.06785C170.313 7.06785 170.843 7.5982 170.843 8.24642ZM120.157 9.42498C120.157 10.0732 119.924 10.6035 119.638 10.6035C119.351 10.6035 118.79 10.0732 118.389 9.42498C117.988 8.77677 118.223 8.24642 118.909 8.24642C119.595 8.24642 120.157 8.77677 120.157 9.42498ZM335.867 10.6035C335.867 11.2518 335.633 11.7821 335.347 11.7821C335.06 11.7821 334.499 11.2518 334.099 10.6035C333.698 9.95533 333.932 9.42498 334.618 9.42498C335.304 9.42498 335.867 9.95533 335.867 10.6035ZM5.96574 13.2753C4.80114 14.4303 4.66677 14.2948 5.30564 12.6154C5.74885 11.4533 6.40776 10.7992 6.77082 11.1622C7.13387 11.524 6.772 12.4751 5.96574 13.2753ZM226.244 12.3714C226.244 13.3437 225.713 14.1392 225.065 14.1392C224.417 14.1392 223.886 13.3437 223.886 12.3714C223.886 11.3991 224.417 10.6035 225.065 10.6035C225.713 10.6035 226.244 11.3991 226.244 12.3714ZM272.215 12.4409C272.215 13.451 271.684 13.9507 271.036 13.55C270.388 13.1492 269.857 12.3231 269.857 11.7126C269.857 11.1021 270.388 10.6035 271.036 10.6035C271.684 10.6035 272.215 11.4309 272.215 12.4409ZM308.756 11.7126C308.756 12.3231 308.225 13.1492 307.577 13.55C306.929 13.9507 306.398 13.451 306.398 12.4409C306.398 11.4309 306.929 10.6035 307.577 10.6035C308.225 10.6035 308.756 11.1021 308.756 11.7126ZM3.46209 15.2483C3.46209 15.8588 2.93166 16.6849 2.28335 17.0856C1.63505 17.4864 1.10461 16.9866 1.10461 15.9766C1.10461 14.9666 1.63505 14.1392 2.28335 14.1392C2.93166 14.1392 3.46209 14.6378 3.46209 15.2483ZM278.573 16.0061C279.013 17.1528 278.75 17.6926 277.888 17.405C276.126 16.8181 275.156 14.1392 276.706 14.1392C277.339 14.1392 278.178 14.9796 278.573 16.0061ZM303.008 16.811C301.844 17.966 301.709 17.8305 302.348 16.151C302.791 14.989 303.45 14.3349 303.813 14.6979C304.176 15.0597 303.814 16.0108 303.008 16.811ZM17.337 16.7179C17.0801 17.4875 16.2267 18.243 15.4404 18.3974C14.6554 18.5506 14.5588 18.4056 15.2271 18.0756C15.8954 17.7445 16.143 16.989 15.7764 16.3962C15.4098 15.8034 15.7163 15.3178 16.4565 15.3178C17.1979 15.3178 17.594 15.9472 17.337 16.7179ZM317.645 17.596C317.218 18.2878 316.348 18.8535 315.713 18.8535C315.076 18.8535 315.24 18.111 316.077 17.2047C317.768 15.3685 318.854 15.6395 317.645 17.596ZM45.8967 17.6749C45.8967 18.3231 45.3663 18.8535 44.718 18.8535C44.0697 18.8535 43.5392 18.3231 43.5392 17.6749C43.5392 17.0267 44.0697 16.4964 44.718 16.4964C45.3663 16.4964 45.8967 17.0267 45.8967 17.6749ZM284.465 17.2C286.039 17.8046 286.065 18.1381 284.646 19.5571C283.736 20.4669 282.424 21.2106 281.728 21.2106C280.336 21.2106 280.011 18.5235 281.252 17.2825C282.207 16.3267 282.189 16.3267 284.465 17.2ZM347.065 17.6749C347.466 18.3231 347.263 18.8535 346.614 18.8535C345.966 18.8535 345.108 18.3231 344.707 17.6749C344.306 17.0267 344.509 16.4964 345.158 16.4964C345.806 16.4964 346.664 17.0267 347.065 17.6749ZM9.35579 20.3019C9.35579 20.9926 8.60729 20.8783 7.58768 20.0321C6.61522 19.2247 5.81957 18.3809 5.81957 18.157C5.81957 17.933 6.61522 18.0544 7.58768 18.4269C8.56014 18.8005 9.35579 19.6443 9.35579 20.3019ZM309.393 18.9325C310.603 20.8889 309.517 21.1599 307.826 19.3237C306.989 18.4174 306.825 17.6749 307.461 17.6749C308.097 17.6749 308.967 18.2406 309.393 18.9325ZM166.128 20.0321C166.128 20.6803 165.598 21.2106 164.949 21.2106C164.301 21.2106 163.771 20.6803 163.771 20.0321C163.771 19.3838 164.301 18.8535 164.949 18.8535C165.598 18.8535 166.128 19.3838 166.128 20.0321ZM181.452 20.0321C181.452 20.6803 180.921 21.2106 180.273 21.2106C179.625 21.2106 179.094 20.6803 179.094 20.0321C179.094 19.3838 179.625 18.8535 180.273 18.8535C180.921 18.8535 181.452 19.3838 181.452 20.0321ZM263.964 20.6213C263.964 21.5937 263.433 22.3892 262.785 22.3892C262.137 22.3892 261.606 21.5937 261.606 20.6213C261.606 19.649 262.137 18.8535 262.785 18.8535C263.433 18.8535 263.964 19.649 263.964 20.6213ZM276.66 20.2536C276.403 21.0232 275.549 21.7787 274.763 21.9331C273.978 22.0863 273.882 21.9413 274.55 21.6113C275.218 21.2802 275.466 20.5247 275.099 19.9319C274.733 19.3391 275.039 18.8535 275.779 18.8535C276.521 18.8535 276.917 19.4828 276.66 20.2536ZM170.843 21.2106C170.843 21.8588 170.016 22.3892 169.005 22.3892C167.995 22.3892 167.496 21.8588 167.896 21.2106C168.297 20.5624 169.123 20.0321 169.734 20.0321C170.345 20.0321 170.843 20.5624 170.843 21.2106ZM215.635 22.3892C215.635 23.0374 215.402 23.5678 215.115 23.5678C214.829 23.5678 214.268 23.0374 213.867 22.3892C213.466 21.741 213.701 21.2106 214.387 21.2106C215.073 21.2106 215.635 21.741 215.635 22.3892ZM305.219 22.2855C305.219 23.4829 302.205 23.3038 300.931 22.0309C300.481 21.5795 301.261 21.2106 302.665 21.2106C304.07 21.2106 305.219 21.6938 305.219 22.2855ZM377.712 22.3892C378.113 23.0374 377.878 23.5678 377.192 23.5678C376.506 23.5678 375.944 23.0374 375.944 22.3892C375.944 21.741 376.177 21.2106 376.464 21.2106C376.75 21.2106 377.311 21.741 377.712 22.3892ZM69.4715 24.2266C69.4715 25.2366 68.9411 25.7363 68.2928 25.3356C67.6445 24.9349 67.114 24.1087 67.114 23.4982C67.114 22.8877 67.6445 22.3892 68.2928 22.3892C68.9411 22.3892 69.4715 23.2165 69.4715 24.2266ZM371.229 23.5678C371.229 24.216 370.698 24.7463 370.05 24.7463C369.402 24.7463 368.871 24.216 368.871 23.5678C368.871 22.9195 369.402 22.3892 370.05 22.3892C370.698 22.3892 371.229 22.9195 371.229 23.5678ZM21.7326 24.7463C23.8213 25.6444 23.7211 25.7681 20.8485 25.8424C19.0663 25.8872 17.607 25.3945 17.607 24.7463C17.607 23.3627 18.5134 23.3627 21.7326 24.7463ZM248.606 24.7004C249.559 25.3038 249.885 26.2231 249.328 26.7452C248.772 27.2661 248.073 27.008 247.775 26.17C247.354 24.9891 246.855 24.9596 245.552 26.0427C244.191 27.1706 244.012 27.0681 244.613 25.5018C245.461 23.2955 246.162 23.1553 248.606 24.7004ZM257.849 25.8518C258.144 26.7357 257.702 27.1777 256.818 26.8831C255.967 26.599 255.038 25.6703 254.755 24.8206C254.461 23.9366 254.903 23.4947 255.787 23.7893C256.637 24.0722 257.565 25.0009 257.849 25.8518ZM271.841 26.1464C271.465 27.0858 271.186 26.8064 271.129 25.4334C271.078 24.1912 271.357 23.4959 271.748 23.8871C272.139 24.2784 272.182 25.2955 271.841 26.1464ZM322.901 24.7463C324.33 25.6703 324.161 25.8919 322.017 25.9072C320.557 25.9166 319.364 25.3945 319.364 24.7463C319.364 23.2696 320.615 23.2696 322.901 24.7463ZM289.896 25.9249C289.896 26.5731 289.365 27.1034 288.717 27.1034C288.069 27.1034 287.538 26.5731 287.538 25.9249C287.538 25.2767 288.069 24.7463 288.717 24.7463C289.365 24.7463 289.896 25.2767 289.896 25.9249ZM207.384 27.1034C207.384 27.7517 207.151 28.282 206.864 28.282C206.578 28.282 206.017 27.7517 205.616 27.1034C205.215 26.4552 205.45 25.9249 206.136 25.9249C206.822 25.9249 207.384 26.4552 207.384 27.1034ZM240.389 27.1034C240.389 27.7517 239.858 28.282 239.21 28.282C238.562 28.282 238.031 27.7517 238.031 27.1034C238.031 26.4552 238.562 25.9249 239.21 25.9249C239.858 25.9249 240.389 26.4552 240.389 27.1034ZM73.4109 28.665C73.8376 28.2384 74.1865 28.5083 74.1865 29.2638C74.1865 30.8407 73.9 30.9078 71.3363 29.9237C70.3108 29.5301 69.4715 28.6698 69.4715 28.0121C69.4715 27.259 70.0585 27.3026 71.0534 28.1276C71.9233 28.8489 72.9842 29.0917 73.4109 28.665ZM255.485 30.0805C255.122 30.4435 254.463 29.7894 254.02 28.6273C253.381 26.9479 253.515 26.8123 254.68 27.9673C255.486 28.7676 255.848 29.7187 255.485 30.0805ZM261.606 27.6232C261.606 27.9096 261.076 28.4706 260.427 28.8713C259.779 29.272 259.249 29.0375 259.249 28.3515C259.249 27.6656 259.779 27.1034 260.427 27.1034C261.076 27.1034 261.606 27.3368 261.606 27.6232ZM29.9837 29.4606C30.3845 30.1088 30.1499 30.6391 29.4639 30.6391C28.7779 30.6391 28.2156 30.1088 28.2156 29.4606C28.2156 28.8124 28.449 28.282 28.7355 28.282C29.0219 28.282 29.583 28.8124 29.9837 29.4606ZM273.393 29.4606C273.393 30.1088 272.831 30.6391 272.145 30.6391C271.459 30.6391 271.225 30.1088 271.625 29.4606C272.026 28.8124 272.587 28.282 272.874 28.282C273.16 28.282 273.393 28.8124 273.393 29.4606ZM331.152 29.4606C331.152 30.1088 330.59 30.6391 329.903 30.6391C329.217 30.6391 328.983 30.1088 329.384 29.4606C329.784 28.8124 330.345 28.282 330.632 28.282C330.918 28.282 331.152 28.8124 331.152 29.4606ZM186.167 32.9963C186.167 33.6445 185.636 34.1748 184.988 34.1748C184.34 34.1748 183.809 33.6445 183.809 32.9963C183.809 32.3481 184.34 31.8177 184.988 31.8177C185.636 31.8177 186.167 32.3481 186.167 32.9963ZM216.565 34.6451C215.73 35.5526 214.86 36.1183 214.633 35.9026C213.934 35.2379 215.706 32.9963 216.93 32.9963C217.566 32.9963 217.402 33.7388 216.565 34.6451ZM253.904 36.3552C253.239 37.0541 250.997 35.2827 250.997 34.0593C250.997 33.4229 251.74 33.5867 252.647 34.4235C253.554 35.2591 254.12 36.1289 253.904 36.3552ZM234.477 38.0052C234.487 38.4919 233.965 38.8891 233.316 38.8891C232.668 38.8891 232.146 37.6964 232.155 36.2373C232.171 34.0935 232.392 33.9238 233.316 35.3534C233.945 36.3257 234.467 37.5184 234.477 38.0052ZM263.374 35.3534C263.775 36.0016 263.54 36.532 262.854 36.532C262.168 36.532 261.606 36.0016 261.606 35.3534C261.606 34.7052 261.839 34.1748 262.126 34.1748C262.412 34.1748 262.973 34.7052 263.374 35.3534ZM15.2495 36.532C15.2495 37.1802 16.1335 37.7105 17.2145 37.7105C18.2942 37.7105 18.8647 38.024 18.4816 38.4071C17.4985 39.3912 12.892 37.7801 12.892 36.453C12.892 35.8484 13.4224 35.3534 14.0708 35.3534C14.7191 35.3534 15.2495 35.8837 15.2495 36.532ZM69.4715 37.2473C69.4715 38.4082 68.8173 38.8903 67.78 38.4919C66.8488 38.1348 65.861 38.4766 65.584 39.2497C65.3059 40.024 64.6092 40.2162 64.0352 39.6764C63.4458 39.1224 63.9857 37.9698 65.2787 37.0246C68.2562 34.8478 69.4715 34.9114 69.4715 37.2473ZM219.944 37.1719C220.837 39.5008 220.004 40.3128 217.646 39.4088C216.622 39.0152 216.073 37.9427 216.425 37.0234C217.27 34.8207 219.07 34.8961 219.944 37.1719ZM316.473 36.4424C316.103 37.0423 316.612 37.7836 317.604 38.0912C319.001 38.5226 318.96 38.6098 317.422 38.4742C315.202 38.2798 313.682 35.3534 315.8 35.3534C316.54 35.3534 316.843 35.8437 316.473 36.4424ZM370.05 37.2367C370.05 37.9946 368.989 38.8914 367.693 39.2309C366.021 39.6681 365.335 39.2662 365.335 37.8531C365.335 36.6439 366.264 35.859 367.693 35.859C368.989 35.859 370.05 36.4789 370.05 37.2367ZM48.2542 37.7105C48.2542 38.3587 47.7238 38.8891 47.0755 38.8891C46.4272 38.8891 45.8967 38.3587 45.8967 37.7105C45.8967 37.0623 46.4272 36.532 47.0755 36.532C47.7238 36.532 48.2542 37.0623 48.2542 37.7105ZM176.737 37.7105C176.737 38.3587 176.206 38.8891 175.558 38.8891C174.91 38.8891 174.379 38.3587 174.379 37.7105C174.379 37.0623 174.91 36.532 175.558 36.532C176.206 36.532 176.737 37.0623 176.737 37.7105ZM238.836 39.1107C238.46 40.05 238.181 39.7707 238.124 38.3976C238.074 37.1554 238.352 36.4601 238.743 36.8513C239.135 37.2426 239.177 38.2597 238.836 39.1107ZM348.833 37.7105C348.833 38.3587 348.302 38.8891 347.654 38.8891C347.006 38.8891 346.475 38.3587 346.475 37.7105C346.475 37.0623 347.006 36.532 347.654 36.532C348.302 36.532 348.833 37.0623 348.833 37.7105ZM261.065 38.9681C262.274 40.9245 261.189 41.1955 259.497 39.3593C258.66 38.453 258.497 37.7105 259.133 37.7105C259.768 37.7105 260.638 38.2762 261.065 38.9681ZM269.857 38.8891C269.857 39.5373 269.327 40.0677 268.679 40.0677C268.03 40.0677 267.5 39.5373 267.5 38.8891C267.5 38.2409 268.03 37.7105 268.679 37.7105C269.327 37.7105 269.857 38.2409 269.857 38.8891ZM110.727 40.0677C110.727 40.7159 110.197 41.2462 109.549 41.2462C108.9 41.2462 108.37 40.7159 108.37 40.0677C108.37 39.4194 108.9 38.8891 109.549 38.8891C110.197 38.8891 110.727 39.4194 110.727 40.0677ZM10.5345 47.139C10.5345 47.7873 10.0041 48.3176 9.35579 48.3176C8.70749 48.3176 8.17705 47.7873 8.17705 47.139C8.17705 46.4908 8.70749 45.9605 9.35579 45.9605C10.0041 45.9605 10.5345 46.4908 10.5345 47.139ZM51.7904 46.4802C51.7904 46.7666 51.26 47.3276 50.6117 47.7283C49.9634 48.129 49.4329 47.8945 49.4329 47.2086C49.4329 46.5226 49.9634 45.9605 50.6117 45.9605C51.26 45.9605 51.7904 46.1938 51.7904 46.4802ZM71.829 46.4802C71.829 46.7666 71.2986 47.3276 70.6503 47.7283C70.002 48.129 69.4715 47.8945 69.4715 47.2086C69.4715 46.5226 70.002 45.9605 70.6503 45.9605C71.2986 45.9605 71.829 46.1938 71.829 46.4802ZM311.113 47.139C311.113 47.7873 310.583 48.3176 309.934 48.3176C309.286 48.3176 308.756 47.7873 308.756 47.139C308.756 46.4908 309.286 45.9605 309.934 45.9605C310.583 45.9605 311.113 46.4908 311.113 47.139ZM372.408 47.139C372.408 47.7873 371.877 48.3176 371.229 48.3176C370.581 48.3176 370.05 47.7873 370.05 47.139C370.05 46.4908 370.581 45.9605 371.229 45.9605C371.877 45.9605 372.408 46.4908 372.408 47.139ZM221.529 49.4962C221.529 50.1444 220.999 50.6747 220.35 50.6747C219.702 50.6747 219.171 50.1444 219.171 49.4962C219.171 48.848 219.702 48.3176 220.35 48.3176C220.999 48.3176 221.529 48.848 221.529 49.4962ZM184.718 52.0749C183.99 54.2599 181.452 54.6217 181.452 52.5404C181.452 51.5139 182.292 50.6747 183.318 50.6747C184.344 50.6747 184.975 51.3041 184.718 52.0749ZM225.065 53.0319C225.065 53.6801 224.27 54.2104 223.297 54.2104C222.325 54.2104 221.529 53.6801 221.529 53.0319C221.529 52.3836 222.325 51.8533 223.297 51.8533C224.27 51.8533 225.065 52.3836 225.065 53.0319ZM282.234 53.0319C282.635 53.6801 282.4 54.2104 281.714 54.2104C281.028 54.2104 280.466 53.6801 280.466 53.0319C280.466 52.3836 280.699 51.8533 280.986 51.8533C281.272 51.8533 281.833 52.3836 282.234 53.0319ZM169.664 54.2104C169.664 54.8586 169.134 55.389 168.486 55.389C167.837 55.389 167.307 54.8586 167.307 54.2104C167.307 53.5622 167.837 53.0319 168.486 53.0319C169.134 53.0319 169.664 53.5622 169.664 54.2104ZM173.201 55.389C173.201 56.0372 172.638 56.5676 171.952 56.5676C171.266 56.5676 171.032 56.0372 171.433 55.389C171.833 54.7408 172.394 54.2104 172.681 54.2104C172.967 54.2104 173.201 54.7408 173.201 55.389ZM206.188 59.8086C206.155 61.4221 203.987 64.1716 203.295 63.4787C202.366 62.5499 203.845 58.9247 205.153 58.9247C205.731 58.9247 206.197 59.3219 206.188 59.8086ZM276.61 61.9937C276.219 62.3849 275.202 62.4274 274.352 62.0868C273.411 61.7108 273.691 61.4315 275.064 61.3749C276.306 61.3242 277.002 61.6024 276.61 61.9937ZM85.3845 73.0675C85.7853 73.7157 85.5507 74.246 84.8647 74.246C84.1787 74.246 83.6164 73.7157 83.6164 73.0675C83.6164 72.4192 83.8498 71.8889 84.1362 71.8889C84.4227 71.8889 84.9837 72.4192 85.3845 73.0675ZM386.553 73.0675C386.553 73.7157 385.99 74.246 385.304 74.246C384.618 74.246 384.384 73.7157 384.784 73.0675C385.185 72.4192 385.746 71.8889 386.033 71.8889C386.319 71.8889 386.553 72.4192 386.553 73.0675ZM58.8629 77.7817C58.8629 78.4299 58.3324 78.9603 57.6841 78.9603C57.0358 78.9603 56.5054 78.4299 56.5054 77.7817C56.5054 77.1335 57.0358 76.6031 57.6841 76.6031C58.3324 76.6031 58.8629 77.1335 58.8629 77.7817ZM245.104 80.1388C245.104 80.787 244.308 81.3174 243.336 81.3174C242.363 81.3174 241.568 80.787 241.568 80.1388C241.568 79.4906 242.363 78.9603 243.336 78.9603C244.308 78.9603 245.104 79.4906 245.104 80.1388ZM291.787 85.7123C290.589 86.9109 289.6 85.1065 290.583 83.5166C291.326 82.3145 291.604 82.3145 292.002 83.5119C292.276 84.331 292.178 85.321 291.787 85.7123ZM78.9014 84.8531C78.9014 85.5013 78.371 86.0317 77.7227 86.0317C77.0744 86.0317 76.544 85.5013 76.544 84.8531C76.544 84.2049 77.0744 83.6745 77.7227 83.6745C78.371 83.6745 78.9014 84.2049 78.9014 84.8531ZM125.399 86.1318C125.02 86.7459 124.207 86.938 123.593 86.5585C122.979 86.179 122.787 85.367 123.167 84.7529C123.546 84.1389 124.358 83.9468 124.972 84.3263C125.587 84.7058 125.779 85.5178 125.399 86.1318ZM177.591 86.0317C177.494 87.3281 176.996 88.3888 176.486 88.3888C175.371 88.3888 175.339 87.9728 176.274 85.539C177.251 82.991 177.805 83.1984 177.591 86.0317ZM379.48 84.8531C379.48 85.5013 378.95 86.0317 378.301 86.0317C377.653 86.0317 377.123 85.5013 377.123 84.8531C377.123 84.2049 377.653 83.6745 378.301 83.6745C378.95 83.6745 379.48 84.2049 379.48 84.8531ZM215.635 87.2102C215.635 87.8584 215.105 88.3888 214.457 88.3888C213.808 88.3888 213.278 87.8584 213.278 87.2102C213.278 86.562 213.808 86.0317 214.457 86.0317C215.105 86.0317 215.635 86.562 215.635 87.2102ZM294.021 90.7459C294.422 91.3941 294.188 91.9245 293.502 91.9245C292.816 91.9245 292.253 91.3941 292.253 90.7459C292.253 90.0977 292.487 89.5674 292.773 89.5674C293.06 89.5674 293.621 90.0977 294.021 90.7459ZM236.853 91.9245C236.853 92.5727 236.322 93.1031 235.674 93.1031C235.026 93.1031 234.495 92.5727 234.495 91.9245C234.495 91.2763 235.026 90.7459 235.674 90.7459C236.322 90.7459 236.853 91.2763 236.853 91.9245ZM144.911 93.1031C144.911 93.7513 144.412 94.2816 143.802 94.2816C143.191 94.2816 142.365 93.7513 141.964 93.1031C141.563 92.4548 142.063 91.9245 143.073 91.9245C144.083 91.9245 144.911 92.4548 144.911 93.1031ZM176.259 97.5085C175.768 98 174.613 97.3742 173.693 96.1166C171.16 92.654 171.693 91.5261 174.588 94.2227C176 95.538 176.752 97.0159 176.259 97.5085ZM207.384 95.4602C207.384 96.1084 206.822 96.6387 206.136 96.6387C205.45 96.6387 205.215 96.1084 205.616 95.4602C206.017 94.812 206.578 94.2816 206.864 94.2816C207.151 94.2816 207.384 94.812 207.384 95.4602ZM302.862 95.4602C302.862 96.1084 302.363 96.6387 301.753 96.6387C301.142 96.6387 300.316 96.1084 299.915 95.4602C299.514 94.812 300.014 94.2816 301.024 94.2816C302.035 94.2816 302.862 94.812 302.862 95.4602ZM111.906 96.6387C111.906 97.2869 111.376 97.8173 110.727 97.8173C110.079 97.8173 109.549 97.2869 109.549 96.6387C109.549 95.9905 110.079 95.4602 110.727 95.4602C111.376 95.4602 111.906 95.9905 111.906 96.6387ZM55.3266 101.423C55.3266 102.033 54.7962 102.532 54.1479 102.532C53.4996 102.532 52.9692 101.704 52.9692 100.694C52.9692 99.6842 53.4996 99.1844 54.1479 99.5852C54.7962 99.9859 55.3266 100.812 55.3266 101.423ZM356.509 102.321C355.573 103.258 353.545 101.131 354.266 99.967C354.755 99.175 355.362 99.2964 355.989 100.309C356.521 101.17 356.755 102.075 356.509 102.321ZM30.5731 101.353C30.5731 102.001 30.0427 102.532 29.3944 102.532C28.7461 102.532 28.2156 102.001 28.2156 101.353C28.2156 100.705 28.7461 100.174 29.3944 100.174C30.0427 100.174 30.5731 100.705 30.5731 101.353ZM63.5778 102.532C63.5778 103.18 63.0474 103.71 62.3991 103.71C61.7508 103.71 61.2203 103.18 61.2203 102.532C61.2203 101.883 61.7508 101.353 62.3991 101.353C63.0474 101.353 63.5778 101.883 63.5778 102.532ZM169.664 102.532C169.664 103.18 169.134 103.71 168.486 103.71C167.837 103.71 167.307 103.18 167.307 102.532C167.307 101.883 167.837 101.353 168.486 101.353C169.134 101.353 169.664 101.883 169.664 102.532ZM364.156 102.532C364.156 103.18 363.626 103.71 362.978 103.71C362.329 103.71 361.799 103.18 361.799 102.532C361.799 101.883 362.329 101.353 362.978 101.353C363.626 101.353 364.156 101.883 364.156 102.532ZM129.587 105.441C129.587 106.493 128.895 106.906 127.826 106.496C126.857 106.124 126.358 105.346 126.717 104.765C127.745 103.101 129.587 103.535 129.587 105.441ZM295.014 106.596C295.452 107.738 295.104 108.087 293.961 107.649C293.022 107.288 292.253 106.52 292.253 105.941C292.253 104.246 294.298 104.732 295.014 106.596ZM68.1949 110.362C68.4649 110.593 68.4165 111.05 68.0877 111.379C67.1694 112.297 60.0416 110.62 60.0416 109.485C60.0416 108.586 66.9915 109.333 68.1949 110.362ZM189.703 109.603C189.703 110.251 189.173 110.782 188.524 110.782C187.876 110.782 187.346 110.251 187.346 109.603C187.346 108.955 187.876 108.424 188.524 108.424C189.173 108.424 189.703 108.955 189.703 109.603ZM312.292 110.782C312.292 111.43 311.761 111.96 311.113 111.96C310.465 111.96 309.934 111.43 309.934 110.782C309.934 110.133 310.465 109.603 311.113 109.603C311.761 109.603 312.292 110.133 312.292 110.782ZM369.461 110.782C369.06 111.43 367.999 111.96 367.103 111.96C366.207 111.96 365.147 111.43 364.746 110.782C364.331 110.111 365.346 109.603 367.103 109.603C368.861 109.603 369.876 110.111 369.461 110.782ZM145.5 111.96C145.901 112.608 145.371 113.139 144.322 113.139C143.272 113.139 142.742 112.608 143.143 111.96C143.544 111.312 144.074 110.782 144.322 110.782C144.569 110.782 145.099 111.312 145.5 111.96ZM192.511 112.611C192.913 113.66 192.715 114.132 192.047 113.72C191.406 113.324 190.882 112.501 190.882 111.891C190.882 110.196 191.727 110.569 192.511 112.611ZM137.838 113.139C137.838 113.787 137.308 114.317 136.66 114.317C136.011 114.317 135.481 113.787 135.481 113.139C135.481 112.49 136.011 111.96 136.66 111.96C137.308 111.96 137.838 112.49 137.838 113.139ZM183.809 113.139C183.809 113.787 183.311 114.317 182.7 114.317C182.09 114.317 181.263 113.787 180.862 113.139C180.462 112.49 180.961 111.96 181.972 111.96C182.982 111.96 183.809 112.49 183.809 113.139ZM251.803 114.539C251.427 115.478 251.147 115.199 251.091 113.826C251.04 112.584 251.318 111.888 251.709 112.279C252.101 112.671 252.143 113.688 251.803 114.539ZM260.427 112.423C260.427 112.678 259.632 113.192 258.659 113.565C257.687 113.938 256.891 113.729 256.891 113.102C256.891 112.474 257.687 111.96 258.659 111.96C259.632 111.96 260.427 112.169 260.427 112.423ZM221.529 115.496C221.529 116.144 221.296 116.674 221.009 116.674C220.723 116.674 220.162 116.144 219.761 115.496C219.36 114.848 219.595 114.317 220.281 114.317C220.967 114.317 221.529 114.848 221.529 115.496ZM360.62 115.496C360.62 116.144 360.09 116.674 359.441 116.674C358.793 116.674 358.263 116.144 358.263 115.496C358.263 114.848 358.793 114.317 359.441 114.317C360.09 114.317 360.62 114.848 360.62 115.496ZM3.46209 117.853C3.46209 118.501 2.93166 119.031 2.28335 119.031C1.63505 119.031 1.10461 118.501 1.10461 117.853C1.10461 117.205 1.63505 116.674 2.28335 116.674C2.93166 116.674 3.46209 117.205 3.46209 117.853ZM11.7133 117.853C11.7133 118.501 11.1828 119.031 10.5345 119.031C9.88623 119.031 9.35579 118.501 9.35579 117.853C9.35579 117.205 9.88623 116.674 10.5345 116.674C11.1828 116.674 11.7133 117.205 11.7133 117.853ZM304.041 117.853C304.041 118.501 303.807 119.031 303.521 119.031C303.234 119.031 302.673 118.501 302.273 117.853C301.872 117.205 302.106 116.674 302.792 116.674C303.478 116.674 304.041 117.205 304.041 117.853ZM312.292 117.853C312.292 118.501 312.059 119.031 311.772 119.031C311.486 119.031 310.925 118.501 310.524 117.853C310.123 117.205 310.358 116.674 311.044 116.674C311.73 116.674 312.292 117.205 312.292 117.853ZM235.674 119.031C235.674 119.68 235.112 120.21 234.426 120.21C233.74 120.21 233.505 119.68 233.906 119.031C234.306 118.383 234.868 117.853 235.154 117.853C235.44 117.853 235.674 118.383 235.674 119.031ZM288.717 118.373C288.717 118.659 288.187 119.22 287.538 119.621C286.89 120.021 286.36 119.787 286.36 119.101C286.36 118.415 286.89 117.853 287.538 117.853C288.187 117.853 288.717 118.086 288.717 118.373ZM307.577 119.031C307.577 119.68 307.344 120.21 307.057 120.21C306.771 120.21 306.21 119.68 305.809 119.031C305.408 118.383 305.643 117.853 306.329 117.853C307.015 117.853 307.577 118.383 307.577 119.031ZM216.041 122.865C215.622 123.542 214.992 123.432 214.472 122.592C213.994 121.82 213.146 121.272 212.586 121.377C212.026 121.481 211.375 120.984 211.138 120.276C210.839 119.376 211.62 119.402 213.725 120.36C215.383 121.115 216.425 122.243 216.041 122.865ZM1.90969 122.789C1.53368 123.728 1.25431 123.449 1.19773 122.076C1.14705 120.833 1.42523 120.138 1.81657 120.529C2.20791 120.921 2.25035 121.938 1.90969 122.789ZM303.667 122.789C303.291 123.728 303.012 123.449 302.955 122.076C302.904 120.833 303.183 120.138 303.574 120.529C303.965 120.921 304.008 121.938 303.667 122.789ZM79.4908 122.567C79.8916 123.215 79.657 123.746 78.971 123.746C78.285 123.746 77.7227 123.215 77.7227 122.567C77.7227 121.919 77.9561 121.389 78.2425 121.389C78.529 121.389 79.09 121.919 79.4908 122.567ZM210.036 123.029C211.171 123.891 212.083 125.332 212.061 126.232C212.034 127.429 211.602 127.314 210.458 125.808C209.597 124.673 208.288 123.746 207.549 123.746C206.81 123.746 206.205 123.215 206.205 122.567C206.205 120.978 207.548 121.141 210.036 123.029ZM228.228 123.967C227.852 124.907 227.572 124.627 227.516 123.254C227.465 122.012 227.743 121.317 228.135 121.708C228.526 122.099 228.568 123.116 228.228 123.967ZM311.703 122.567C312.103 123.215 311.869 123.746 311.183 123.746C310.497 123.746 309.934 123.215 309.934 122.567C309.934 121.919 310.168 121.389 310.454 121.389C310.741 121.389 311.302 121.919 311.703 122.567ZM380.659 122.567C380.659 123.215 380.097 123.746 379.411 123.746C378.725 123.746 378.49 123.215 378.891 122.567C379.291 121.919 379.853 121.389 380.139 121.389C380.425 121.389 380.659 121.919 380.659 122.567ZM221.511 127.576C221.485 131.398 219.756 133.896 218.521 131.897C217.983 131.027 218.12 130.185 218.838 129.946C219.532 129.715 219.829 128.491 219.498 127.225C219.167 125.958 219.487 124.924 220.212 124.924C220.937 124.924 221.521 126.118 221.511 127.576ZM268.973 125.704C268.163 126.032 267.5 127.139 267.5 128.165C267.5 129.192 267.169 129.701 266.764 129.297C265.615 128.146 267.256 124.914 268.937 125.017C270.119 125.09 270.127 125.239 268.973 125.704ZM17.607 126.623C17.607 126.909 17.0765 127.47 16.4282 127.871C15.7799 128.271 15.2495 128.037 15.2495 127.351C15.2495 126.665 15.7799 126.103 16.4282 126.103C17.0765 126.103 17.607 126.336 17.607 126.623ZM215.635 127.281C215.635 127.93 215.402 128.46 215.115 128.46C214.829 128.46 214.268 127.93 213.867 127.281C213.466 126.633 213.701 126.103 214.387 126.103C215.073 126.103 215.635 126.633 215.635 127.281ZM249.819 127.871C249.819 128.843 249.288 129.639 248.64 129.639C247.992 129.639 247.461 128.843 247.461 127.871C247.461 126.898 247.992 126.103 248.64 126.103C249.288 126.103 249.819 126.898 249.819 127.871ZM318.186 127.281C318.186 127.93 317.655 128.46 317.007 128.46C316.359 128.46 315.828 127.93 315.828 127.281C315.828 126.633 316.359 126.103 317.007 126.103C317.655 126.103 318.186 126.633 318.186 127.281ZM33.52 128.46C33.9207 129.108 33.6862 129.639 33.0001 129.639C32.3141 129.639 31.7519 129.108 31.7519 128.46C31.7519 127.812 31.9852 127.281 32.2717 127.281C32.5581 127.281 33.1192 127.812 33.52 128.46ZM334.099 128.46C334.499 129.108 334.265 129.639 333.579 129.639C332.893 129.639 332.331 129.108 332.331 128.46C332.331 127.812 332.564 127.281 332.85 127.281C333.137 127.281 333.698 127.812 334.099 128.46ZM232.138 130.354C232.138 130.609 231.342 130.817 230.37 130.817C229.397 130.817 228.601 130.303 228.601 129.675C228.601 129.048 229.397 128.839 230.37 129.212C231.342 129.586 232.138 130.099 232.138 130.354ZM27.0003 133.764C27.0003 134.412 26.4864 134.147 25.8582 133.174C25.2299 132.202 24.716 130.876 24.716 130.228C24.716 129.58 25.2299 129.845 25.8582 130.817C26.4864 131.789 27.0003 133.115 27.0003 133.764ZM215.635 130.084C215.635 130.328 214.828 131.199 213.84 132.018C212.34 133.264 212.166 133.191 212.787 131.573C213.422 129.921 215.635 128.763 215.635 130.084ZM40.8081 133.396C40.4321 134.335 40.1527 134.056 40.0961 132.683C40.0455 131.441 40.3236 130.745 40.715 131.137C41.1063 131.528 41.1488 132.545 40.8081 133.396ZM192.65 131.996C193.051 132.644 192.816 133.174 192.13 133.174C191.444 133.174 190.882 132.644 190.882 131.996C190.882 131.347 191.115 130.817 191.402 130.817C191.688 130.817 192.249 131.347 192.65 131.996ZM246.282 132.669C246.282 133.04 245.521 134.104 244.59 135.035C243.393 136.231 242.658 136.341 242.081 135.409C241.632 134.683 241.997 133.627 242.89 133.061C244.767 131.872 246.282 131.697 246.282 132.669ZM323.613 135.212C322.415 136.411 321.426 134.606 322.409 133.016C323.152 131.814 323.43 131.814 323.828 133.012C324.102 133.831 324.004 134.821 323.613 135.212ZM23.5007 133.694C23.5007 133.98 22.9702 134.541 22.3219 134.942C21.6736 135.343 21.1432 135.108 21.1432 134.422C21.1432 133.736 21.6736 133.174 22.3219 133.174C22.9702 133.174 23.5007 133.408 23.5007 133.694ZM225.065 137.23C225.065 137.516 224.535 138.077 223.886 138.478C223.238 138.878 222.708 138.644 222.708 137.958C222.708 137.272 223.238 136.71 223.886 136.71C224.535 136.71 225.065 136.943 225.065 137.23ZM236.853 137.888C234.567 139.365 233.316 139.365 233.316 137.888C233.316 137.24 234.509 136.718 235.969 136.728C238.113 136.743 238.282 136.964 236.853 137.888ZM9.94516 139.067C10.3459 139.715 10.1114 140.246 9.42534 140.246C8.73931 140.246 8.17705 139.715 8.17705 139.067C8.17705 138.419 8.41044 137.888 8.69688 137.888C8.98331 137.888 9.54439 138.419 9.94516 139.067ZM59.4016 138.986C60.2738 140.396 58.0566 141.793 56.4865 140.823C55.1675 140.009 56.0339 137.888 57.6841 137.888C58.2558 137.888 59.0291 138.382 59.4016 138.986ZM311.113 139.067C311.113 139.715 310.583 140.246 309.934 140.246C309.286 140.246 308.756 139.715 308.756 139.067C308.756 138.419 309.286 137.888 309.934 137.888C310.583 137.888 311.113 138.419 311.113 139.067ZM360.62 139.656C360.62 140.629 359.825 141.424 358.852 141.424C357.88 141.424 357.084 140.629 357.084 139.656C357.084 138.684 357.88 137.888 358.852 137.888C359.825 137.888 360.62 138.684 360.62 139.656ZM214.457 142.083C214.457 143.093 213.926 143.593 213.278 143.192C212.629 142.791 212.099 141.965 212.099 141.355C212.099 140.744 212.629 140.246 213.278 140.246C213.926 140.246 214.457 141.073 214.457 142.083ZM217.993 142.603C217.993 143.251 217.462 143.781 216.814 143.781C216.166 143.781 215.635 143.251 215.635 142.603C215.635 141.955 216.166 141.424 216.814 141.424C217.462 141.424 217.993 141.955 217.993 142.603ZM41.1818 143.781C41.1818 144.43 40.6513 144.96 40.003 144.96C39.3547 144.96 38.8243 144.43 38.8243 143.781C38.8243 143.133 39.3547 142.603 40.003 142.603C40.6513 142.603 41.1818 143.133 41.1818 143.781ZM342.35 143.781C342.751 144.43 342.516 144.96 341.83 144.96C341.144 144.96 340.582 144.43 340.582 143.781C340.582 143.133 340.815 142.603 341.102 142.603C341.388 142.603 341.949 143.133 342.35 143.781ZM172.022 144.96C172.022 145.608 171.788 146.138 171.502 146.138C171.216 146.138 170.655 145.608 170.254 144.96C169.853 144.312 170.088 143.781 170.774 143.781C171.46 143.781 172.022 144.312 172.022 144.96ZM229.78 147.317L232.138 149.674H229.191C227.03 149.674 226.244 149.046 226.244 147.317C226.244 146.021 226.509 144.96 226.833 144.96C227.157 144.96 228.484 146.021 229.78 147.317ZM249.179 147.236C249.552 147.839 249.318 148.665 248.659 149.073C248 149.48 247.461 148.986 247.461 147.976C247.461 145.905 248.168 145.601 249.179 147.236ZM245.104 150.263C245.104 151.236 244.573 152.031 243.925 152.031C243.277 152.031 242.746 151.236 242.746 150.263C242.746 149.291 243.277 148.496 243.925 148.496C244.573 148.496 245.104 149.291 245.104 150.263ZM257.481 149.674C257.881 150.322 257.647 150.853 256.961 150.853C256.275 150.853 255.712 150.322 255.712 149.674C255.712 149.026 255.946 148.496 256.232 148.496C256.519 148.496 257.08 149.026 257.481 149.674ZM263.964 152.031C263.964 152.679 263.433 153.21 262.785 153.21C262.137 153.21 261.606 152.679 261.606 152.031C261.606 151.383 262.137 150.853 262.785 150.853C263.433 150.853 263.964 151.383 263.964 152.031ZM60.0416 153.21C60.0416 153.858 59.5112 154.388 58.8629 154.388C58.2146 154.388 57.6841 153.858 57.6841 153.21C57.6841 152.562 58.2146 152.031 58.8629 152.031C59.5112 152.031 60.0416 152.562 60.0416 153.21ZM360.62 153.21C360.62 153.858 360.09 154.388 359.441 154.388C358.793 154.388 358.263 153.858 358.263 153.21C358.263 152.562 358.793 152.031 359.441 152.031C360.09 152.031 360.62 152.562 360.62 153.21ZM6.99831 156.746C6.99831 157.394 6.46788 157.924 5.81957 157.924C5.17127 157.924 4.64083 157.394 4.64083 156.746C4.64083 156.097 5.17127 155.567 5.81957 155.567C6.46788 155.567 6.99831 156.097 6.99831 156.746ZM307.577 156.746C307.577 157.394 307.047 157.924 306.398 157.924C305.75 157.924 305.219 157.394 305.219 156.746C305.219 156.097 305.75 155.567 306.398 155.567C307.047 155.567 307.577 156.097 307.577 156.746ZM251.803 159.324C251.427 160.264 251.147 159.984 251.091 158.611C251.04 157.369 251.318 156.674 251.709 157.065C252.101 157.456 252.143 158.473 251.803 159.324ZM115.442 159.103C115.442 159.751 114.615 160.281 113.605 160.281C112.595 160.281 112.095 159.751 112.496 159.103C112.896 158.454 113.723 157.924 114.333 157.924C114.944 157.924 115.442 158.454 115.442 159.103ZM187.346 160.281C187.346 160.929 186.595 161.46 185.675 161.46C184.757 161.46 183.769 162.123 183.479 162.933C183.19 163.744 182.55 164.031 182.057 163.573C180.499 162.126 182.456 159.103 184.951 159.103C186.268 159.103 187.346 159.633 187.346 160.281ZM86.7542 168.826C86.4277 169.637 86.1601 168.973 86.1601 167.353C86.1601 165.732 86.4277 165.07 86.7542 165.879C87.0819 166.69 87.0819 168.016 86.7542 168.826ZM388.91 167.942C388.91 168.838 388.38 169.898 387.731 170.299C387.061 170.714 386.553 169.699 386.553 167.942C386.553 166.185 387.061 165.17 387.731 165.585C388.38 165.985 388.91 167.046 388.91 167.942ZM212.688 170.888C213.089 171.536 212.855 172.067 212.169 172.067C211.483 172.067 210.92 171.536 210.92 170.888C210.92 170.24 211.154 169.71 211.44 169.71C211.727 169.71 212.288 170.24 212.688 170.888ZM219.171 172.067C219.171 172.715 218.641 173.245 217.993 173.245C217.344 173.245 216.814 172.715 216.814 172.067C216.814 171.419 217.344 170.888 217.993 170.888C218.641 170.888 219.171 171.419 219.171 172.067ZM149.036 173.245C149.437 173.894 149.203 174.424 148.517 174.424C147.831 174.424 147.268 173.894 147.268 173.245C147.268 172.597 147.502 172.067 147.788 172.067C148.075 172.067 148.636 172.597 149.036 173.245ZM103.281 179.36C102.905 180.299 102.626 180.02 102.569 178.647C102.519 177.405 102.797 176.709 103.188 177.1C103.58 177.492 103.622 178.509 103.281 179.36ZM151.983 179.728C151.983 181.348 151.453 182.674 150.805 182.674C150.156 182.674 149.626 181.348 149.626 179.728C149.626 178.107 150.156 176.781 150.805 176.781C151.453 176.781 151.983 178.107 151.983 179.728ZM128.409 184.076C128.409 185.626 125.729 184.656 125.142 182.894C124.855 182.033 125.394 181.77 126.541 182.21C127.568 182.604 128.409 183.444 128.409 184.076ZM55.916 186.21C56.3415 186.897 55.1428 187.388 53.0387 187.388C51.0561 187.388 49.4329 186.858 49.4329 186.21C49.4329 185.561 50.7272 185.031 52.3103 185.031C53.8933 185.031 55.5152 185.561 55.916 186.21ZM356.495 186.21C356.92 186.897 355.721 187.388 353.617 187.388C351.635 187.388 350.012 186.858 350.012 186.21C350.012 185.561 351.306 185.031 352.889 185.031C354.472 185.031 356.094 185.561 356.495 186.21ZM124.872 187.388C124.872 188.036 124.374 188.567 123.763 188.567C123.153 188.567 122.326 188.036 121.925 187.388C121.525 186.74 122.024 186.21 123.035 186.21C124.045 186.21 124.872 186.74 124.872 187.388ZM50.6117 195.638C50.6117 196.286 50.0494 196.817 49.3634 196.817C48.6774 196.817 48.4428 196.286 48.8436 195.638C49.2443 194.99 49.8054 194.46 50.0919 194.46C50.3783 194.46 50.6117 194.99 50.6117 195.638ZM295.79 195.638C295.79 196.286 295.259 196.817 294.611 196.817C293.963 196.817 293.432 196.286 293.432 195.638C293.432 194.99 293.963 194.46 294.611 194.46C295.259 194.46 295.79 194.99 295.79 195.638ZM11.7133 197.995C11.7133 198.643 10.8858 199.174 9.87562 199.174C8.86544 199.174 8.36565 198.643 8.76642 197.995C9.16719 197.347 9.99349 196.817 10.6041 196.817C11.2147 196.817 11.7133 197.347 11.7133 197.995ZM312.292 197.995C312.292 198.643 311.761 199.174 311.113 199.174C310.465 199.174 309.934 198.643 309.934 197.995C309.934 197.347 310.465 196.817 311.113 196.817C311.761 196.817 312.292 197.347 312.292 197.995ZM173.201 205.067C173.201 205.715 172.67 206.245 172.022 206.245C171.374 206.245 170.843 205.715 170.843 205.067C170.843 204.418 171.374 203.888 172.022 203.888C172.67 203.888 173.201 204.418 173.201 205.067ZM181.452 207.493C181.452 208.104 180.921 208.602 180.273 208.602C179.625 208.602 179.094 207.775 179.094 206.765C179.094 205.755 179.625 205.255 180.273 205.656C180.921 206.057 181.452 206.883 181.452 207.493ZM9.35579 209.781C9.35579 210.429 8.82536 210.959 8.17705 210.959C7.52875 210.959 6.99831 210.429 6.99831 209.781C6.99831 209.133 7.52875 208.602 8.17705 208.602C8.82536 208.602 9.35579 209.133 9.35579 209.781ZM61.2203 210.468C61.2203 211.495 60.5909 212.125 59.8212 211.868C57.6346 211.14 57.2727 208.602 59.3544 208.602C60.3811 208.602 61.2203 209.443 61.2203 210.468ZM361.799 210.44C361.799 211.45 361.269 211.949 360.62 211.549C359.972 211.148 359.441 210.322 359.441 209.711C359.441 209.101 359.972 208.602 360.62 208.602C361.269 208.602 361.799 209.43 361.799 210.44ZM81.7505 212.896C82.8325 215.717 81.9886 215.934 80.3206 213.264C79.5285 211.997 79.36 210.959 79.9446 210.959C80.5281 210.959 81.3414 211.83 81.7505 212.896ZM252.075 215.674C252.032 216.839 251.666 216.639 250.997 215.084C249.605 211.845 249.605 209.984 250.997 212.138C251.626 213.11 252.111 214.701 252.075 215.674ZM383.48 212.824C384.586 215.707 384.346 216.087 382.427 214.495C380.468 212.869 380.081 210.959 381.711 210.959C382.29 210.959 383.086 211.799 383.48 212.824ZM15.0008 217.323C14.1651 218.23 13.2951 218.796 13.0688 218.58C12.3698 217.915 14.1415 215.674 15.365 215.674C16.0015 215.674 15.8377 216.416 15.0008 217.323ZM317.007 216.852C317.007 217.501 316.078 218.023 314.944 218.013C313.181 217.998 313.138 217.828 314.649 216.852C316.874 215.414 317.007 215.414 317.007 216.852ZM272.215 218.69C272.215 219.7 271.684 220.199 271.036 219.799C270.388 219.398 269.857 218.572 269.857 217.961C269.857 217.351 270.388 216.852 271.036 216.852C271.684 216.852 272.215 217.68 272.215 218.69ZM38.3752 221.006C37.3261 222.054 36.4668 222.452 36.4668 221.886C36.4668 220.552 39.1025 217.917 39.7696 218.584C40.0525 218.866 39.4254 219.955 38.3752 221.006ZM291.075 219.209C291.075 219.858 290.544 220.388 289.896 220.388C289.248 220.388 288.717 219.858 288.717 219.209C288.717 218.561 289.248 218.031 289.896 218.031C290.544 218.031 291.075 218.561 291.075 219.209ZM339.897 220.802C339.489 221.864 338.686 222.441 338.112 222.086C337.538 221.732 337.727 220.727 338.531 219.855C340.339 217.892 340.872 218.262 339.897 220.802ZM216.44 221.788C216.064 222.727 215.785 222.448 215.728 221.075C215.678 219.833 215.956 219.138 216.347 219.529C216.739 219.92 216.781 220.937 216.44 221.788ZM221.21 219.921C220.818 220.313 219.801 220.355 218.951 220.014C218.01 219.638 218.29 219.359 219.663 219.303C220.905 219.252 221.601 219.53 221.21 219.921ZM379.082 220.903C378.702 221.894 379.262 222.797 380.429 223.079C382.258 223.518 382.249 223.636 380.313 224.476C379.151 224.981 377.909 225.102 377.554 224.747C376.808 224.003 378.143 219.209 379.096 219.209C379.446 219.209 379.44 219.972 379.082 220.903ZM79.1372 224.159C78.0374 225.259 77.408 225.259 76.3082 224.159C75.2085 223.06 75.522 222.745 77.7227 222.745C79.9234 222.745 80.2369 223.06 79.1372 224.159ZM239.505 223.525C238.695 223.853 237.369 223.853 236.558 223.525C235.748 223.199 236.411 222.931 238.031 222.931C239.652 222.931 240.316 223.199 239.505 223.525ZM271.625 223.585C268.766 224.273 266.395 226.281 268.443 226.281C269.221 226.281 269.857 226.811 269.857 227.459C269.857 229.329 267.825 228.828 267.033 226.764C265.977 224.012 267.228 222.727 270.811 222.882C273.256 222.987 273.443 223.148 271.625 223.585ZM11.9938 226.24C13.136 227.574 13.4967 228.854 12.846 229.256C12.2225 229.641 11.7133 229.363 11.7133 228.638C11.7133 227.913 11.2064 227.634 10.5864 228.017C9.96638 228.4 9.75774 229.492 10.1232 230.443C10.4874 231.395 10.2516 232.174 9.59861 232.174C8.94559 232.174 8.46349 230.317 8.52714 228.049C8.66152 223.312 9.23203 223.015 11.9938 226.24ZM312.022 226.06C312.729 228.181 310.293 227.735 309.47 225.593C309.03 224.446 309.293 223.906 310.155 224.194C310.925 224.451 311.765 225.29 312.022 226.06ZM220.35 227.459C220.35 228.108 219.82 228.638 219.171 228.638C218.523 228.638 217.993 228.108 217.993 227.459C217.993 226.811 218.523 226.281 219.171 226.281C219.82 226.281 220.35 226.811 220.35 227.459ZM215.635 228.638C215.635 229.286 215.105 229.816 214.457 229.816C213.808 229.816 213.278 229.286 213.278 228.638C213.278 227.99 213.808 227.459 214.457 227.459C215.105 227.459 215.635 227.99 215.635 228.638ZM94.2251 229.158C94.2251 229.444 93.6946 230.005 93.0463 230.406C92.398 230.806 91.8676 230.572 91.8676 229.886C91.8676 229.2 92.398 228.638 93.0463 228.638C93.6946 228.638 94.2251 228.871 94.2251 229.158ZM211.51 231.781C211.51 234.937 210.33 235.405 209.278 232.666C208.216 229.9 208.398 229.03 210.036 229.03C210.847 229.03 211.51 230.268 211.51 231.781ZM305.219 231.134C305.219 231.782 304.689 231.985 304.041 231.584C303.392 231.184 302.862 230.326 302.862 229.677C302.862 229.029 303.392 228.827 304.041 229.227C304.689 229.628 305.219 230.486 305.219 231.134ZM311.113 230.406C311.113 231.378 310.583 232.174 309.934 232.174C309.286 232.174 308.756 231.378 308.756 230.406C308.756 229.433 309.286 228.638 309.934 228.638C310.583 228.638 311.113 229.433 311.113 230.406ZM4.64083 230.995C4.64083 231.643 4.40744 232.174 4.12101 232.174C3.83458 232.174 3.2735 231.643 2.87272 230.995C2.47195 230.347 2.70652 229.816 3.39255 229.816C4.07857 229.816 4.64083 230.347 4.64083 230.995ZM60.0416 230.262C60.0416 230.506 59.2342 231.377 58.2464 232.196C56.7458 233.442 56.5726 233.369 57.1938 231.751C57.8279 230.099 60.0416 228.941 60.0416 230.262ZM190.292 230.995C190.693 231.643 190.459 232.174 189.773 232.174C189.087 232.174 188.524 231.643 188.524 230.995C188.524 230.347 188.758 229.816 189.044 229.816C189.33 229.816 189.892 230.347 190.292 230.995ZM360.62 230.869C360.62 231.448 359.852 232.216 358.912 232.577C357.77 233.015 357.421 232.666 357.86 231.524C358.575 229.66 360.62 229.174 360.62 230.869ZM173.201 232.174C173.201 232.822 172.638 233.352 171.952 233.352C171.266 233.352 171.032 232.822 171.433 232.174C171.833 231.525 172.394 230.995 172.681 230.995C172.967 230.995 173.201 231.525 173.201 232.174ZM101.298 233.352C101.298 234 100.502 234.531 99.5294 234.531C98.5569 234.531 97.7613 234 97.7613 233.352C97.7613 232.704 98.5569 232.174 99.5294 232.174C100.502 232.174 101.298 232.704 101.298 233.352ZM239.21 234.068C239.21 234.322 238.414 234.531 237.442 234.531C236.469 234.531 235.674 234.017 235.674 233.389C235.674 232.762 236.469 232.553 237.442 232.926C238.414 233.299 239.21 233.813 239.21 234.068ZM10.5345 234.531C10.5345 235.179 9.73888 235.709 8.76642 235.709C7.79396 235.709 6.99831 235.179 6.99831 234.531C6.99831 233.883 7.79396 233.352 8.76642 233.352C9.73888 233.352 10.5345 233.883 10.5345 234.531ZM94.2251 234.531C94.2251 235.179 93.6946 235.709 93.0463 235.709C92.398 235.709 91.8676 235.179 91.8676 234.531C91.8676 233.883 92.398 233.352 93.0463 233.352C93.6946 233.352 94.2251 233.883 94.2251 234.531ZM141.08 236.299C141.08 237.919 140.616 239.245 140.049 239.245C139.482 239.245 139.017 238.758 139.017 238.163C139.017 237.568 138.695 236.242 138.302 235.217C137.848 234.033 138.224 233.352 139.333 233.352C140.41 233.352 141.08 234.481 141.08 236.299ZM311.113 234.531C311.113 235.179 309.654 235.701 307.872 235.692C305.346 235.678 305.02 235.421 306.398 234.531C308.705 233.041 311.113 233.041 311.113 234.531ZM174.379 235.709C173.407 236.337 172.081 236.851 171.433 236.851C170.784 236.851 171.049 236.337 172.022 235.709C172.994 235.081 174.32 234.567 174.969 234.567C175.617 234.567 175.352 235.081 174.379 235.709ZM359.441 236.888C359.441 237.536 358.911 238.066 358.263 238.066C357.614 238.066 357.084 237.536 357.084 236.888C357.084 236.24 357.614 235.709 358.263 235.709C358.911 235.709 359.441 236.24 359.441 236.888ZM232.138 239.834C232.138 240.807 231.607 241.602 230.959 241.602C230.311 241.602 229.78 240.807 229.78 239.834C229.78 238.862 230.311 238.066 230.959 238.066C231.607 238.066 232.138 238.862 232.138 239.834ZM304.467 239.834C304.094 240.807 303.58 241.602 303.325 241.602C303.071 241.602 302.862 240.807 302.862 239.834C302.862 238.862 303.376 238.066 304.004 238.066C304.631 238.066 304.84 238.862 304.467 239.834ZM238.621 241.602C238.22 242.25 237.394 242.781 236.783 242.781C236.172 242.781 235.674 242.25 235.674 241.602C235.674 240.954 236.501 240.424 237.511 240.424C238.522 240.424 239.021 240.954 238.621 241.602ZM288.717 242.122C288.717 242.408 288.187 242.969 287.538 243.37C286.89 243.771 286.36 243.536 286.36 242.85C286.36 242.164 286.89 241.602 287.538 241.602C288.187 241.602 288.717 241.835 288.717 242.122ZM62.3991 245.138C62.3991 245.786 61.8687 246.316 61.2203 246.316C60.572 246.316 60.0416 245.786 60.0416 245.138C60.0416 244.49 60.572 243.959 61.2203 243.959C61.8687 243.959 62.3991 244.49 62.3991 245.138ZM217.572 245.727C218.544 246.699 218.837 247.495 218.221 247.495C217.606 247.495 216.443 246.699 215.635 245.727C214.828 244.755 214.535 243.959 214.986 243.959C215.436 243.959 216.599 244.755 217.572 245.727ZM73.0077 247.495C73.0077 248.143 72.4773 248.674 71.829 248.674C71.1807 248.674 70.6503 248.143 70.6503 247.495C70.6503 246.847 71.1807 246.316 71.829 246.316C72.4773 246.316 73.0077 246.847 73.0077 247.495ZM374.176 247.495C374.577 248.143 374.342 248.674 373.656 248.674C372.97 248.674 372.408 248.143 372.408 247.495C372.408 246.847 372.641 246.316 372.927 246.316C373.214 246.316 373.775 246.847 374.176 247.495ZM326.437 249.852C326.437 250.5 325.906 251.031 325.258 251.031C324.61 251.031 324.079 250.5 324.079 249.852C324.079 249.204 324.61 248.674 325.258 248.674C325.906 248.674 326.437 249.204 326.437 249.852ZM309.934 252.209C309.934 252.857 309.404 253.388 308.756 253.388C308.107 253.388 307.577 252.857 307.577 252.209C307.577 251.561 308.107 251.031 308.756 251.031C309.404 251.031 309.934 251.561 309.934 252.209ZM95.9932 253.388C96.3939 254.036 95.8941 254.566 94.884 254.566C93.8738 254.566 93.0463 254.036 93.0463 253.388C93.0463 252.74 93.5449 252.209 94.1555 252.209C94.7661 252.209 95.5924 252.74 95.9932 253.388ZM220.777 253.977C220.037 255.903 217.993 256.408 217.993 254.664C217.993 253.77 218.819 253.161 221.198 252.302C221.339 252.252 221.149 253.005 220.777 253.977ZM249.819 257.208C249.819 257.699 249.288 258.102 248.64 258.102C247.992 258.102 247.461 257.54 247.461 256.854C247.461 256.168 246.931 255.933 246.282 256.334C245.634 256.735 245.104 256.232 245.104 255.216C245.104 253.662 245.48 253.603 247.461 254.84C248.758 255.649 249.819 256.715 249.819 257.208ZM179.954 255.278C179.562 255.669 178.545 255.712 177.695 255.371C176.755 254.995 177.034 254.716 178.407 254.659C179.65 254.609 180.345 254.887 179.954 255.278ZM181.452 258.102C181.452 258.75 180.921 259.281 180.273 259.281C179.625 259.281 179.094 258.75 179.094 258.102C179.094 257.454 179.625 256.923 180.273 256.923C180.921 256.923 181.452 257.454 181.452 258.102ZM135.481 260.459C135.481 261.107 134.951 261.638 134.302 261.638C133.654 261.638 133.123 261.107 133.123 260.459C133.123 259.811 133.654 259.281 134.302 259.281C134.951 259.281 135.481 259.811 135.481 260.459ZM176.269 261.079C175.038 261.992 173.571 262.456 173.007 262.108C171.371 261.097 172.786 259.812 175.763 259.607C178.388 259.426 178.409 259.488 176.269 261.079ZM161.413 261.638C161.413 262.286 160.618 262.816 159.645 262.816C158.673 262.816 157.877 262.286 157.877 261.638C157.877 260.99 158.673 260.459 159.645 260.459C160.618 260.459 161.413 260.99 161.413 261.638ZM69.4715 262.157C69.4715 262.444 68.9411 263.005 68.2928 263.406C67.6445 263.806 67.114 263.572 67.114 262.886C67.114 262.2 67.6445 261.638 68.2928 261.638C68.9411 261.638 69.4715 261.871 69.4715 262.157ZM236.853 265.173C236.853 265.822 236.29 266.352 235.604 266.352C234.918 266.352 234.684 265.822 235.084 265.173C235.485 264.525 236.046 263.995 236.333 263.995C236.619 263.995 236.853 264.525 236.853 265.173ZM296.968 266.352C296.968 267 296.438 267.531 295.79 267.531C295.141 267.531 294.611 267 294.611 266.352C294.611 265.704 295.141 265.173 295.79 265.173C296.438 265.173 296.968 265.704 296.968 266.352ZM391.267 266.352C391.267 267 390.737 267.531 390.089 267.531C389.44 267.531 388.91 267 388.91 266.352C388.91 265.704 389.44 265.173 390.089 265.173C390.737 265.173 391.267 265.704 391.267 266.352ZM181.452 268.779C181.452 269.389 180.921 269.888 180.273 269.888C179.625 269.888 179.094 269.06 179.094 268.05C179.094 267.04 179.625 266.541 180.273 266.941C180.921 267.342 181.452 268.168 181.452 268.779ZM104.539 271.753C103.416 272.877 101.163 271.058 102.001 269.704C102.499 268.899 103.158 268.919 104.004 269.765C104.698 270.459 104.939 271.354 104.539 271.753ZM124.283 271.066C123.882 271.714 122.923 272.237 122.151 272.227C121.307 272.215 121.453 271.752 122.515 271.066C124.779 269.602 125.187 269.602 124.283 271.066ZM110.087 278.056C110.461 278.66 110.226 279.486 109.568 279.894C108.909 280.3 108.37 279.806 108.37 278.796C108.37 276.726 109.077 276.422 110.087 278.056ZM205.027 280.495C205.027 281.791 204.496 282.852 203.848 282.852C203.2 282.852 202.669 281.791 202.669 280.495C202.669 279.198 203.2 278.138 203.848 278.138C204.496 278.138 205.027 279.198 205.027 280.495ZM173.201 282.193C173.201 282.479 172.67 283.04 172.022 283.441C171.374 283.842 170.843 283.607 170.843 282.921C170.843 282.236 171.374 281.673 172.022 281.673C172.67 281.673 173.201 281.907 173.201 282.193ZM85.5071 287.247C84.3095 288.445 83.3205 286.641 84.3036 285.051C85.0462 283.849 85.3244 283.849 85.7228 285.046C85.9963 285.865 85.8984 286.855 85.5071 287.247ZM386.675 286.736C385.162 288.25 383.628 287.081 384.748 285.268C385.182 284.567 386.076 284.326 386.736 284.734C387.542 285.231 387.521 285.89 386.675 286.736ZM32.9306 286.388C32.9306 287.036 32.3683 287.566 31.6823 287.566C30.9963 287.566 30.7617 287.036 31.1625 286.388C31.5633 285.739 32.1243 285.209 32.4108 285.209C32.6972 285.209 32.9306 285.739 32.9306 286.388ZM68.835 290.332C70.3403 291.433 70.5901 292.178 69.6495 292.759C68.9034 293.221 68.2928 292.979 68.2928 292.224C68.2928 291.468 67.5136 291.149 66.5624 291.513C64.7153 292.223 63.1382 290.755 64.3959 289.498C65.5027 288.391 66.4139 288.562 68.835 290.332ZM370.147 289.923C370.742 289.923 371.229 290.719 371.229 291.691C371.229 292.663 370.698 293.459 370.05 293.459C369.402 293.459 368.871 292.945 368.871 292.317C368.871 291.69 368.076 291.481 367.103 291.854C365.955 292.295 365.335 291.824 365.335 290.513C365.335 289.155 365.947 288.727 367.2 289.208C368.225 289.602 369.552 289.923 370.147 289.923ZM54.8599 295.497C53.6623 296.695 52.6733 294.891 53.6564 293.301C54.399 292.099 54.6772 292.099 55.0756 293.296C55.349 294.115 55.2512 295.105 54.8599 295.497ZM357.084 294.048C357.084 295.021 356.288 295.816 355.316 295.816C353.475 295.816 352.977 294.422 354.334 293.067C355.69 291.71 357.084 292.207 357.084 294.048ZM175.72 294.284C174.363 294.824 174.363 295.082 175.72 295.941C176.661 296.537 176.777 296.966 175.997 296.977C175.266 296.986 174.008 296.199 173.201 295.227C171.964 293.738 172.174 293.473 174.53 293.552C176.078 293.604 176.608 293.93 175.72 294.284ZM361.799 300.53C361.799 301.179 361.269 301.709 360.62 301.709C359.972 301.709 359.441 301.179 359.441 300.53C359.441 299.882 359.972 299.352 360.62 299.352C361.269 299.352 361.799 299.882 361.799 300.53ZM128.998 306.423C129.399 307.071 128.868 307.602 127.819 307.602C126.77 307.602 126.24 307.071 126.64 306.423C127.041 305.775 127.572 305.245 127.819 305.245C128.067 305.245 128.597 305.775 128.998 306.423ZM282.823 307.602C282.823 308.25 282.293 308.78 281.645 308.78C280.996 308.78 280.466 308.25 280.466 307.602C280.466 306.954 280.996 306.423 281.645 306.423C282.293 306.423 282.823 306.954 282.823 307.602ZM322.901 307.602C322.901 308.25 322.37 308.78 321.722 308.78C321.074 308.78 320.543 308.25 320.543 307.602C320.543 306.954 321.074 306.423 321.722 306.423C322.37 306.423 322.901 306.954 322.901 307.602ZM166.128 308.78C166.128 309.429 165.598 309.959 164.949 309.959C164.301 309.959 163.771 309.429 163.771 308.78C163.771 308.132 164.301 307.602 164.949 307.602C165.598 307.602 166.128 308.132 166.128 308.78ZM192.06 308.78C192.06 309.429 191.53 309.959 190.882 309.959C190.233 309.959 189.703 309.429 189.703 308.78C189.703 308.132 190.233 307.602 190.882 307.602C191.53 307.602 192.06 308.132 192.06 308.78ZM120.157 309.959C120.157 310.607 119.595 311.137 118.909 311.137C118.223 311.137 117.988 310.607 118.389 309.959C118.79 309.311 119.351 308.78 119.638 308.78C119.924 308.78 120.157 309.311 120.157 309.959ZM335.867 311.137C335.867 311.786 335.304 312.316 334.618 312.316C333.932 312.316 333.698 311.786 334.099 311.137C334.499 310.489 335.06 309.959 335.347 309.959C335.633 309.959 335.867 310.489 335.867 311.137ZM5.96574 313.809C4.80114 314.964 4.66677 314.829 5.30564 313.149C5.74885 311.987 6.40776 311.333 6.77082 311.696C7.13387 312.058 6.772 313.009 5.96574 313.809ZM308.738 312.021C308.727 312.508 308.205 313.701 307.577 314.673C306.653 316.103 306.431 315.933 306.416 313.789C306.406 312.33 306.929 311.137 307.577 311.137C308.225 311.137 308.747 311.535 308.738 312.021ZM226.244 313.425C226.244 314.036 225.713 314.862 225.065 315.262C224.417 315.663 223.886 315.163 223.886 314.153C223.886 313.143 224.417 312.316 225.065 312.316C225.713 312.316 226.244 312.815 226.244 313.425ZM272.804 313.495C273.205 314.143 272.705 314.673 271.695 314.673C270.685 314.673 269.857 314.143 269.857 313.495C269.857 312.846 270.356 312.316 270.966 312.316C271.577 312.316 272.403 312.846 272.804 313.495ZM2.69473 317.657C1.75999 320.093 1.10461 319.807 1.10461 316.961C1.10461 315.627 1.61147 314.848 2.23149 315.231C2.85151 315.614 3.06014 316.706 2.69473 317.657ZM303.006 317.826C301.616 320.215 301.281 319.45 302.419 316.487C302.822 315.433 303.402 314.819 303.705 315.123C304.009 315.426 303.694 316.643 303.006 317.826ZM17.337 317.252C17.0801 318.021 16.2396 318.861 15.4699 319.117C14.6083 319.405 14.3454 318.865 14.7851 317.719C15.6078 315.576 18.0443 315.13 17.337 317.252ZM159.861 318.43C159.485 319.37 159.205 319.09 159.149 317.717C159.098 316.475 159.376 315.78 159.768 316.171C160.159 316.562 160.201 317.579 159.861 318.43ZM278.746 317.109C279.956 319.066 278.87 319.337 277.178 317.501C276.342 316.594 276.178 315.852 276.814 315.852C277.45 315.852 278.319 316.417 278.746 317.109ZM317.501 318.623C317.093 319.684 316.29 320.262 315.716 319.907C315.142 319.552 315.331 318.548 316.135 317.676C317.943 315.713 318.476 316.083 317.501 318.623ZM45.3074 318.209C45.7081 318.857 45.4736 319.387 44.7875 319.387C44.1015 319.387 43.5392 318.857 43.5392 318.209C43.5392 317.561 43.7726 317.03 44.0591 317.03C44.3455 317.03 44.9066 317.561 45.3074 318.209ZM284.442 317.726C286.002 318.324 285.936 318.762 283.962 320.881C281.321 323.715 279.898 323.034 281.027 319.476C281.891 316.755 281.9 316.75 284.442 317.726ZM347.014 318.128C347.388 318.731 347.153 319.557 346.494 319.965C345.835 320.371 345.297 319.878 345.297 318.868C345.297 316.797 346.004 316.493 347.014 318.128ZM166.128 320.566C166.128 321.214 165.598 321.745 164.949 321.745C164.301 321.745 163.771 321.214 163.771 320.566C163.771 319.918 164.301 319.387 164.949 319.387C165.598 319.387 166.128 319.918 166.128 320.566ZM181.452 320.566C181.452 321.214 180.89 321.745 180.204 321.745C179.517 321.745 179.283 321.214 179.684 320.566C180.084 319.918 180.646 319.387 180.932 319.387C181.218 319.387 181.452 319.918 181.452 320.566ZM263.964 321.155C263.964 322.128 263.433 322.923 262.785 322.923C262.137 322.923 261.606 322.128 261.606 321.155C261.606 320.183 262.137 319.387 262.785 319.387C263.433 319.387 263.964 320.183 263.964 321.155ZM276.66 320.788C276.403 321.557 275.562 322.396 274.793 322.653C273.931 322.941 273.668 322.401 274.108 321.254C274.931 319.112 277.367 318.666 276.66 320.788ZM240.015 323.145C239.639 324.084 239.36 323.805 239.303 322.432C239.252 321.189 239.531 320.494 239.922 320.885C240.313 321.277 240.356 322.294 240.015 323.145ZM170.843 322.264C170.843 323.508 168.581 324.031 167.908 322.942C167.501 322.283 167.995 321.745 169.005 321.745C170.016 321.745 170.843 321.978 170.843 322.264ZM215.635 322.923C215.635 323.571 215.402 324.102 215.115 324.102C214.829 324.102 214.268 323.571 213.867 322.923C213.466 322.275 213.701 321.745 214.387 321.745C215.073 321.745 215.635 322.275 215.635 322.923ZM69.4715 324.691C69.4715 325.663 68.9411 326.459 68.2928 326.459C67.6445 326.459 67.114 325.663 67.114 324.691C67.114 323.719 67.6445 322.923 68.2928 322.923C68.9411 322.923 69.4715 323.719 69.4715 324.691ZM304.335 323.703C303.526 324.031 302.2 324.031 301.389 323.703C300.579 323.377 301.241 323.109 302.862 323.109C304.483 323.109 305.146 323.377 304.335 323.703ZM370.934 325.967C369.811 327.091 367.558 325.272 368.396 323.918C368.894 323.113 369.553 323.133 370.399 323.979C371.093 324.673 371.334 325.568 370.934 325.967ZM248.606 325.234C249.559 325.838 249.98 326.69 249.541 327.129C248.462 328.208 245.104 326.836 245.104 325.317C245.104 323.82 246.324 323.792 248.606 325.234ZM271.841 326.68C271.465 327.62 271.186 327.34 271.129 325.967C271.078 324.725 271.357 324.03 271.748 324.421C272.139 324.812 272.182 325.829 271.841 326.68ZM23.5007 325.732C23.5007 326.778 18.7315 327.325 18.128 326.348C17.7649 325.761 18.8258 325.28 20.4843 325.28C22.1428 325.28 23.5007 325.484 23.5007 325.732ZM257.809 326.651C257.558 327.404 256.49 328.148 255.435 328.302C254.217 328.481 253.749 327.982 254.152 326.931C254.911 324.954 258.466 324.68 257.809 326.651ZM322.901 326.459C320.615 327.936 319.364 327.936 319.364 326.459C319.364 325.811 320.557 325.288 322.017 325.298C324.161 325.313 324.33 325.535 322.901 326.459ZM207.384 327.637C207.384 328.286 206.854 328.816 206.205 328.816C205.557 328.816 205.027 328.286 205.027 327.637C205.027 326.989 205.557 326.459 206.205 326.459C206.854 326.459 207.384 326.989 207.384 327.637ZM240.389 327.637C240.389 328.286 239.858 328.816 239.21 328.816C238.562 328.816 238.031 328.286 238.031 327.637C238.031 326.989 238.562 326.459 239.21 326.459C239.858 326.459 240.389 326.989 240.389 327.637ZM261.606 328.816C261.606 329.464 261.076 329.994 260.427 329.994C259.779 329.994 259.249 329.464 259.249 328.816C259.249 328.168 259.779 327.637 260.427 327.637C261.076 327.637 261.606 328.168 261.606 328.816ZM220.35 339.423C220.35 341.542 218.17 340.659 217.397 338.227C216.984 336.921 216.159 336.154 215.563 336.52C214.969 336.888 214.784 336.406 215.151 335.45C215.707 334 216.193 334.088 218.083 335.978C219.331 337.225 220.35 338.775 220.35 339.423ZM301.683 334.709C301.683 335.357 301.153 335.887 300.505 335.887C299.856 335.887 299.326 335.357 299.326 334.709C299.326 334.061 299.856 333.53 300.505 333.53C301.153 333.53 301.683 334.061 301.683 334.709ZM254.534 337.155C254.534 337.713 253.738 337.865 252.766 337.492C251.793 337.119 250.997 336.356 250.997 335.798C250.997 335.24 251.793 335.088 252.766 335.461C253.738 335.834 254.534 336.597 254.534 337.155ZM15.2495 337.066C15.2495 337.714 16.1335 338.244 17.2145 338.244C18.2942 338.244 18.8647 338.558 18.4816 338.941C17.4985 339.925 12.892 338.314 12.892 336.987C12.892 336.382 13.4224 335.887 14.0708 335.887C14.7191 335.887 15.2495 336.418 15.2495 337.066ZM69.4715 337.517C69.4715 338.414 68.301 339.454 66.8712 339.828C63.4635 340.719 63.0332 340.135 65.3742 337.795C67.7128 335.457 69.4715 335.338 69.4715 337.517ZM234.495 338.314C234.495 338.924 233.965 339.423 233.316 339.423C232.668 339.423 232.138 338.596 232.138 337.586C232.138 336.576 232.668 336.076 233.316 336.477C233.965 336.877 234.495 337.703 234.495 338.314ZM318.773 339.23C317.929 340.072 314.649 338.373 314.649 337.093C314.649 336.318 315.495 336.395 316.954 337.306C318.221 338.097 319.039 338.962 318.773 339.23ZM370.05 337.517C370.05 338.414 368.989 339.425 367.693 339.765C366.206 340.154 365.335 339.8 365.335 338.81C365.335 337.946 366.264 336.996 367.398 336.699C368.532 336.404 369.594 336.099 369.755 336.024C369.917 335.949 370.05 336.622 370.05 337.517ZM48.2542 339.493C48.2542 340.103 47.7238 340.602 47.0755 340.602C46.4272 340.602 45.8967 339.774 45.8967 338.764C45.8967 337.754 46.4272 337.254 47.0755 337.655C47.7238 338.056 48.2542 338.882 48.2542 339.493ZM176.737 338.244C176.737 338.893 176.206 339.423 175.558 339.423C174.91 339.423 174.379 338.893 174.379 338.244C174.379 337.596 174.91 337.066 175.558 337.066C176.206 337.066 176.737 337.596 176.737 338.244ZM348.366 340.282C347.168 341.481 346.18 339.676 347.163 338.086C347.905 336.884 348.183 336.884 348.582 338.082C348.855 338.901 348.757 339.891 348.366 340.282ZM260.427 338.764C260.427 339.051 259.897 339.612 259.249 340.012C258.6 340.413 258.07 340.178 258.07 339.493C258.07 338.807 258.6 338.244 259.249 338.244C259.897 338.244 260.427 338.478 260.427 338.764ZM110.727 340.602C110.727 341.25 110.197 341.78 109.549 341.78C108.9 341.78 108.37 341.25 108.37 340.602C108.37 339.953 108.9 339.423 109.549 339.423C110.197 339.423 110.727 339.953 110.727 340.602ZM219.171 342.3C219.171 342.586 218.641 343.147 217.993 343.548C217.344 343.949 216.814 343.714 216.814 343.028C216.814 342.342 217.344 341.78 217.993 341.78C218.641 341.78 219.171 342.013 219.171 342.3ZM205.832 345.537C205.456 346.477 205.176 346.197 205.12 344.824C205.069 343.582 205.347 342.887 205.739 343.278C206.13 343.669 206.172 344.686 205.832 345.537ZM236.124 344.788C236.526 345.837 236.328 346.309 235.661 345.897C235.02 345.501 234.495 344.678 234.495 344.068C234.495 342.373 235.34 342.747 236.124 344.788ZM10.5345 347.673C10.5345 348.321 10.0041 348.852 9.35579 348.852C8.70749 348.852 8.17705 348.321 8.17705 347.673C8.17705 347.025 8.70749 346.494 9.35579 346.494C10.0041 346.494 10.5345 347.025 10.5345 347.673ZM71.2396 347.673C71.6404 348.321 71.4058 348.852 70.7198 348.852C70.0338 348.852 69.4715 348.321 69.4715 347.673C69.4715 347.025 69.7049 346.494 69.9913 346.494C70.2778 346.494 70.8389 347.025 71.2396 347.673ZM311.113 347.673C311.113 348.321 310.583 348.852 309.934 348.852C309.286 348.852 308.756 348.321 308.756 347.673C308.756 347.025 309.286 346.494 309.934 346.494C310.583 346.494 311.113 347.025 311.113 347.673ZM371.818 347.673C372.219 348.321 371.984 348.852 371.298 348.852C370.612 348.852 370.05 348.321 370.05 347.673C370.05 347.025 370.284 346.494 370.57 346.494C370.856 346.494 371.418 347.025 371.818 347.673ZM221.529 350.03C221.529 350.678 220.967 351.209 220.281 351.209C219.595 351.209 219.36 350.678 219.761 350.03C220.162 349.382 220.723 348.852 221.009 348.852C221.296 348.852 221.529 349.382 221.529 350.03ZM184.988 352.976C184.988 353.949 184.192 354.744 183.22 354.744C181.379 354.744 180.881 353.35 182.238 351.995C183.594 350.638 184.988 351.136 184.988 352.976ZM224.476 353.566C224.877 354.214 224.346 354.744 223.297 354.744C222.248 354.744 221.718 354.214 222.118 353.566C222.519 352.918 223.05 352.387 223.297 352.387C223.545 352.387 224.075 352.918 224.476 353.566ZM169.664 355.923C169.664 356.571 169.134 357.101 168.486 357.101C167.837 357.101 167.307 356.571 167.307 355.923C167.307 355.275 167.837 354.744 168.486 354.744C169.134 354.744 169.664 355.275 169.664 355.923ZM173.201 357.101C173.201 357.75 172.67 358.28 172.022 358.28C171.374 358.28 170.843 357.75 170.843 357.101C170.843 356.453 171.374 355.923 172.022 355.923C172.67 355.923 173.201 356.453 173.201 357.101ZM192.06 357.101C192.06 357.75 191.53 358.28 190.882 358.28C190.233 358.28 189.703 357.75 189.703 357.101C189.703 356.453 190.233 355.923 190.882 355.923C191.53 355.923 192.06 356.453 192.06 357.101ZM206.205 361.157C206.205 362.926 204.09 364.807 203.152 363.87C202.33 363.049 203.957 359.459 205.153 359.459C205.731 359.459 206.205 360.222 206.205 361.157ZM151.983 364.173C151.983 364.821 151.453 365.351 150.805 365.351C150.156 365.351 149.626 364.821 149.626 364.173C149.626 363.525 150.156 362.994 150.805 362.994C151.453 362.994 151.983 363.525 151.983 364.173ZM121.336 370.066C121.336 370.714 121.103 371.244 120.816 371.244C120.53 371.244 119.969 370.714 119.568 370.066C119.167 369.417 119.402 368.887 120.088 368.887C120.774 368.887 121.336 369.417 121.336 370.066ZM85.9739 374.78C85.9739 375.428 85.4434 375.958 84.7951 375.958C84.1468 375.958 83.6164 375.428 83.6164 374.78C83.6164 374.132 84.1468 373.601 84.7951 373.601C85.4434 373.601 85.9739 374.132 85.9739 374.78ZM386.553 374.78C386.553 375.428 386.022 375.958 385.374 375.958C384.725 375.958 384.195 375.428 384.195 374.78C384.195 374.132 384.725 373.601 385.374 373.601C386.022 373.601 386.553 374.132 386.553 374.78ZM245.104 380.673C245.104 381.321 244.308 381.851 243.336 381.851C242.363 381.851 241.568 381.321 241.568 380.673C241.568 380.025 242.363 379.494 243.336 379.494C244.308 379.494 245.104 380.025 245.104 380.673ZM27.0369 382.371C27.0369 382.657 26.5065 383.218 25.8582 383.619C25.2098 384.02 24.6794 383.785 24.6794 383.099C24.6794 382.413 25.2098 381.851 25.8582 381.851C26.5065 381.851 27.0369 382.085 27.0369 382.371ZM159.056 383.03C159.056 383.678 158.525 384.208 157.877 384.208C157.229 384.208 156.698 383.678 156.698 383.03C156.698 382.382 157.229 381.851 157.877 381.851C158.525 381.851 159.056 382.382 159.056 383.03ZM327.616 383.03C327.616 383.678 327.053 384.208 326.367 384.208C325.681 384.208 325.447 383.678 325.847 383.03C326.248 382.382 326.809 381.851 327.096 381.851C327.382 381.851 327.616 382.382 327.616 383.03ZM30.5731 384.208C30.5731 384.857 30.0427 385.387 29.3944 385.387C28.7461 385.387 28.2156 384.857 28.2156 384.208C28.2156 383.56 28.7461 383.03 29.3944 383.03C30.0427 383.03 30.5731 383.56 30.5731 384.208ZM78.9014 385.387C78.9014 386.035 78.371 386.566 77.7227 386.566C77.0744 386.566 76.544 386.035 76.544 385.387C76.544 384.739 77.0744 384.208 77.7227 384.208C78.371 384.208 78.9014 384.739 78.9014 385.387ZM292.253 385.387C292.253 386.035 291.723 386.566 291.075 386.566C290.426 386.566 289.896 386.035 289.896 385.387C289.896 384.739 290.426 384.208 291.075 384.208C291.723 384.208 292.253 384.739 292.253 385.387ZM379.48 385.387C379.48 386.035 378.918 386.566 378.232 386.566C377.546 386.566 377.311 386.035 377.712 385.387C378.113 384.739 378.674 384.208 378.96 384.208C379.247 384.208 379.48 384.739 379.48 385.387ZM126.051 386.566C126.051 387.214 125.255 387.744 124.283 387.744C123.31 387.744 122.515 387.214 122.515 386.566C122.515 385.917 123.31 385.387 124.283 385.387C125.255 385.387 126.051 385.917 126.051 386.566ZM177.916 388.264C177.916 388.55 177.385 389.111 176.737 389.512C176.089 389.913 175.558 389.678 175.558 388.992C175.558 388.306 176.089 387.744 176.737 387.744C177.385 387.744 177.916 387.978 177.916 388.264ZM236.853 392.458C236.853 393.107 236.322 393.637 235.674 393.637C235.026 393.637 234.495 393.107 234.495 392.458C234.495 391.81 235.026 391.28 235.674 391.28C236.322 391.28 236.853 391.81 236.853 392.458ZM144.591 394.349C144.2 394.74 143.183 394.783 142.333 394.442C141.392 394.066 141.672 393.787 143.045 393.73C144.287 393.679 144.983 393.958 144.591 394.349Z" fill="black"/>
</mask>
<g mask="url(#mask0_140_74)">
<path d="M178.93 10.2654C327.907 160.359 106.447 354.416 48.0204 297.378C-28.4655 222.709 235.727 65.7127 354.846 182.001M354.846 182.001L299.514 189.443M354.846 182.001L363 134.258" stroke="#5F9EA0" stroke-width="15" stroke-linecap="round"/>
</g>
</svg>
